{"glyphs":{"0":{"ha":910,"x_min":79,"x_max":831,"o":"m 79 458 q 104 634 79 550 q 178 782 129 718 q 297 883 226 846 q 458 921 368 921 q 621 881 551 921 q 738 775 690 840 q 808 626 785 710 q 829 453 831 542 q 799 263 829 349 q 718 117 769 178 q 599 22 667 56 q 451 -11 531 -11 q 306 23 374 -11 q 188 118 239 57 q 108 265 138 179 q 79 458 79 351 m 161 457 q 185 302 161 374 q 248 179 208 231 q 340 98 288 128 q 451 68 393 68 q 563 97 510 68 q 658 176 617 125 q 724 299 699 228 q 749 454 749 371 q 730 597 749 526 q 674 721 711 667 q 583 808 638 775 q 457 842 529 842 q 328 808 383 842 q 237 720 274 775 q 181 597 200 665 q 161 457 161 528 z "},"1":{"ha":414,"x_min":58,"x_max":260,"o":"m 58 831 l 58 910 l 260 910 l 260 0 l 176 0 l 176 831 l 58 831 z "},"2":{"ha":733,"x_min":74,"x_max":681,"o":"m 281 79 l 681 79 l 681 0 l 83 0 q 253 169 171 86 q 400 331 336 253 q 503 481 464 408 q 542 621 542 554 q 523 724 542 682 q 476 792 504 767 q 414 830 447 818 q 351 842 381 842 q 255 821 293 842 q 194 770 217 800 q 164 706 172 740 q 156 644 156 671 q 170 558 156 596 q 211 493 185 521 l 163 444 q 125 483 142 460 q 97 533 108 506 q 80 588 86 560 q 74 644 74 617 q 92 751 74 700 q 145 839 110 801 q 233 899 181 876 q 351 921 285 921 q 463 899 413 921 q 549 838 513 876 q 604 748 585 800 q 624 638 624 696 q 593 492 624 564 q 514 352 563 421 q 404 215 465 283 q 281 79 343 147 z "},"3":{"ha":658,"x_min":60,"x_max":576,"o":"m 188 474 q 309 652 246 564 q 431 831 372 740 l 99 831 l 99 910 l 565 910 q 448 740 507 825 q 331 569 389 656 q 427 535 382 560 q 506 474 472 511 q 558 388 539 436 q 576 285 576 340 q 553 170 576 224 q 488 76 529 117 q 393 13 447 36 q 278 -11 339 -11 q 156 15 213 -11 q 60 86 100 42 l 119 143 q 188 88 147 108 q 276 68 228 68 q 361 85 321 68 q 431 133 401 103 q 478 201 461 163 q 496 285 496 240 q 478 370 496 331 q 431 439 461 410 q 361 485 401 468 q 276 501 321 501 q 188 474 228 501 z "},"4":{"ha":733,"x_min":11,"x_max":676,"o":"m 458 699 q 388 608 425 656 q 314 511 351 560 q 240 414 276 463 q 169 322 203 365 l 458 322 l 458 699 m 11 243 q 276 583 140 411 q 540 921 411 754 l 540 322 l 676 322 l 676 243 l 540 243 l 540 0 l 458 0 l 458 243 l 11 243 z "},"5":{"ha":646,"x_min":71,"x_max":575,"o":"m 121 444 l 121 910 l 524 910 l 524 831 l 192 831 l 192 560 q 231 574 211 568 q 276 579 251 579 q 397 556 342 579 q 491 494 451 533 q 553 401 531 454 q 575 288 575 347 q 551 171 575 225 q 487 76 528 117 q 391 12 446 35 q 275 -11 336 -11 q 164 10 217 -11 q 71 72 111 32 l 131 126 q 195 83 158 99 q 275 68 232 68 q 360 85 319 68 q 430 133 400 103 q 477 201 460 163 q 494 285 494 240 q 477 369 494 329 q 430 438 460 408 q 360 483 400 467 q 275 500 319 500 q 192 488 233 500 q 121 444 151 475 z "},"6":{"ha":743,"x_min":74,"x_max":669,"o":"m 74 285 q 95 419 74 356 q 153 540 117 483 q 236 646 189 596 q 335 740 283 696 q 437 821 386 783 q 532 890 488 858 l 583 826 q 464 740 521 785 q 361 654 407 696 q 282 576 315 613 q 233 511 249 539 q 293 560 257 542 q 371 579 329 579 q 486 556 432 579 q 581 493 540 533 q 646 399 622 453 q 669 285 669 346 q 646 170 669 224 q 582 76 622 117 q 488 13 542 36 q 372 -11 433 -11 q 263 9 317 -11 q 167 67 210 29 q 99 159 125 104 q 74 285 74 214 m 157 285 q 174 201 157 240 q 219 132 190 161 q 288 85 249 103 q 371 68 326 68 q 455 85 415 68 q 524 132 494 103 q 572 201 554 161 q 589 285 589 240 q 572 369 589 329 q 524 438 554 408 q 455 483 494 467 q 371 500 415 500 q 288 483 326 500 q 219 438 249 467 q 174 369 190 408 q 157 285 157 329 z "},"7":{"ha":640,"x_min":49,"x_max":621,"o":"m 49 831 l 49 910 l 621 910 q 428 452 522 675 q 240 0 335 229 l 146 0 q 317 409 229 199 q 493 831 406 619 l 49 831 z "},"8":{"ha":742,"x_min":74,"x_max":669,"o":"m 233 703 q 274 615 233 650 q 371 579 314 579 q 467 615 428 579 q 506 703 506 650 q 495 756 506 731 q 467 801 485 782 q 424 831 449 819 q 371 842 399 842 q 318 831 343 842 q 274 801 293 819 q 244 756 256 782 q 233 703 233 731 m 157 285 q 174 201 157 240 q 219 133 190 163 q 285 85 247 103 q 368 68 324 68 q 453 85 413 68 q 523 133 493 103 q 570 201 553 163 q 588 285 588 240 q 570 368 588 329 q 524 436 553 407 q 455 483 494 465 q 371 500 415 500 q 288 483 326 500 q 219 438 249 467 q 174 369 190 408 q 157 285 157 331 m 74 282 q 88 375 74 332 q 126 451 101 418 q 183 509 150 485 q 253 546 215 533 q 179 613 204 571 q 154 703 154 656 q 171 790 154 750 q 217 858 188 829 q 285 904 246 888 q 368 921 324 921 q 451 904 413 921 q 519 858 490 888 q 566 789 549 829 q 583 703 583 749 q 558 613 583 654 q 486 546 533 572 q 557 509 524 533 q 615 451 590 485 q 655 374 640 417 q 669 282 669 332 q 647 169 669 222 q 585 76 625 117 q 490 13 544 36 q 369 -11 435 -11 q 250 13 304 -11 q 156 76 196 36 q 95 169 117 117 q 74 282 74 222 z "},"9":{"ha":743,"x_min":74,"x_max":669,"o":"m 588 594 q 571 678 588 639 q 525 747 554 718 q 457 794 496 776 q 374 811 418 811 q 290 794 329 811 q 220 747 250 776 q 173 678 190 718 q 156 594 156 639 q 173 510 156 550 q 220 442 190 471 q 290 396 250 413 q 374 379 329 379 q 457 396 418 379 q 525 442 496 413 q 571 510 554 471 q 588 594 588 550 m 669 594 q 623 398 669 488 q 507 233 576 308 q 358 98 438 158 q 211 -11 278 38 q 185 21 199 4 q 161 53 172 38 q 281 138 224 94 q 383 224 338 182 q 463 303 429 265 q 511 368 496 340 q 451 318 488 336 q 372 300 415 300 q 257 323 311 300 q 162 385 203 346 q 97 479 121 425 q 74 594 74 533 q 97 709 74 656 q 162 803 121 763 q 257 867 203 843 q 372 890 311 890 q 480 870 426 890 q 576 813 533 850 q 644 720 618 775 q 669 594 669 665 z "},"\u0000":{"ha":0,"x_min":0,"x_max":0,"o":""},"\r":{"ha":417,"x_min":0,"x_max":0,"o":""}," ":{"ha":342,"x_min":0,"x_max":0,"o":""},"t":{"ha":397,"x_min":26,"x_max":379,"o":"m 138 799 l 214 799 l 214 550 l 379 550 l 379 481 l 214 481 l 214 0 l 138 0 l 138 481 l 26 481 l 26 550 l 138 550 l 138 799 z "},"b":{"ha":738,"x_min":96,"x_max":682,"o":"m 682 278 q 660 164 682 217 q 600 72 639 111 q 508 11 561 33 q 393 -11 456 -11 q 255 25 315 -11 q 171 114 194 61 q 172 87 171 100 q 172 58 172 74 l 172 0 l 96 0 l 96 1064 l 172 1064 l 172 439 q 257 529 199 490 q 396 568 315 568 q 510 547 458 568 q 601 487 563 525 q 660 395 639 449 q 682 278 682 342 m 600 278 q 585 363 600 324 q 541 431 569 403 q 474 476 513 460 q 389 493 435 493 q 303 476 343 493 q 235 431 264 460 q 189 364 206 403 q 172 279 172 325 q 189 194 172 233 q 235 126 206 156 q 303 81 264 97 q 389 64 343 64 q 474 81 435 64 q 541 126 513 97 q 585 194 569 156 q 600 278 600 233 z "},"l":{"ha":271,"x_min":97,"x_max":174,"o":"m 174 0 l 97 0 l 97 1064 l 174 1064 l 174 0 z "},"m":{"ha":1069,"x_min":96,"x_max":981,"o":"m 96 556 l 161 556 q 163 523 163 543 q 165 481 164 503 q 167 441 167 460 q 168 413 168 422 q 255 524 199 482 q 394 568 311 567 q 519 527 472 568 q 575 419 567 486 q 662 526 607 486 q 799 568 717 567 q 930 522 882 568 q 981 401 978 476 l 981 0 l 904 0 l 904 375 q 871 456 901 422 q 779 492 840 489 q 699 477 736 492 q 635 437 663 463 q 593 376 608 411 q 576 299 578 340 l 576 0 l 500 0 l 500 375 q 467 456 497 422 q 376 492 436 489 q 295 477 332 492 q 231 436 258 463 q 188 374 203 410 q 172 294 172 338 l 172 0 l 96 0 l 96 556 z "},"i":{"ha":265,"x_min":78,"x_max":188,"o":"m 78 757 q 95 797 78 781 q 133 813 113 813 q 171 797 154 813 q 188 757 188 781 q 171 717 188 732 q 133 701 154 701 q 95 717 113 701 q 78 757 78 732 m 171 0 l 94 0 l 94 556 l 171 556 l 171 0 z "},"h":{"ha":669,"x_min":94,"x_max":581,"o":"m 94 1064 l 171 1064 l 171 421 q 256 526 199 485 q 397 568 314 567 q 529 522 481 568 q 581 401 578 476 l 581 0 l 504 0 l 504 375 q 471 456 501 422 q 379 492 440 489 q 297 477 335 492 q 231 436 260 463 q 187 374 203 410 q 171 294 171 338 l 171 0 l 94 0 l 94 1064 z "},"c":{"ha":575,"x_min":54,"x_max":532,"o":"m 483 110 l 531 53 q 447 6 493 22 q 347 -11 400 -11 q 233 12 286 -11 q 140 74 179 35 q 77 165 100 113 q 54 278 54 218 q 77 391 54 338 q 140 483 100 444 q 233 545 179 522 q 347 568 286 568 q 447 551 400 568 q 532 504 494 535 q 508 476 521 489 q 483 447 496 463 q 347 493 426 493 q 262 476 301 493 q 193 431 222 460 q 147 363 164 403 q 131 278 131 324 q 147 194 131 233 q 193 126 164 156 q 262 81 222 97 q 347 64 301 64 q 483 110 426 64 z "},"q":{"ha":738,"x_min":56,"x_max":642,"o":"m 132 279 q 149 194 132 233 q 194 126 165 156 q 263 81 224 97 q 349 64 303 64 q 434 81 394 64 q 503 126 474 97 q 549 194 532 156 q 565 279 565 233 q 549 363 565 324 q 503 431 532 401 q 434 476 474 460 q 349 493 394 493 q 263 476 303 493 q 194 431 224 460 q 149 364 165 403 q 132 279 132 325 m 56 278 q 78 394 56 340 q 138 485 100 447 q 228 546 176 524 q 342 568 281 568 q 421 557 385 568 q 485 528 457 546 q 534 486 514 510 q 565 439 554 463 q 566 471 565 453 q 567 506 567 489 q 567 538 567 524 q 568 556 568 551 l 642 556 l 642 -267 l 565 -267 l 565 57 q 567 87 565 72 q 568 115 568 101 q 482 26 540 64 q 340 -11 424 -11 q 224 12 276 -11 q 135 74 172 35 q 76 165 97 113 q 56 278 56 218 z "},"u":{"ha":669,"x_min":89,"x_max":575,"o":"m 575 -7 l 511 -7 l 503 143 q 414 31 474 74 q 269 -12 354 -12 q 140 33 188 -12 q 89 154 92 79 l 89 556 l 165 556 l 165 181 q 199 100 168 133 q 290 64 229 67 q 372 78 333 64 q 438 119 410 93 q 482 181 465 144 q 499 260 499 217 l 499 556 l 575 556 l 575 -7 z "},"r":{"ha":408,"x_min":96,"x_max":399,"o":"m 383 472 q 303 459 342 472 q 236 422 265 446 q 190 365 207 399 q 172 289 172 331 l 172 0 l 96 0 l 96 556 l 161 556 l 168 413 q 211 477 185 449 q 269 526 238 506 q 334 557 300 546 q 399 568 368 568 l 383 472 z "},"e":{"ha":633,"x_min":54,"x_max":603,"o":"m 554 67 q 460 10 514 31 q 347 -11 406 -11 q 233 12 286 -11 q 140 74 179 35 q 77 165 100 113 q 54 278 54 218 q 77 391 54 338 q 140 484 100 444 q 232 547 179 524 q 344 569 285 569 q 503 514 436 569 q 603 372 571 458 q 498 331 556 354 q 380 284 440 308 q 260 235 319 260 q 149 190 200 211 q 226 99 174 133 q 344 64 278 64 q 429 79 389 64 q 497 121 469 94 l 554 67 m 507 392 q 440 466 483 439 q 344 493 397 493 q 261 476 300 493 q 193 429 222 458 q 147 362 164 400 q 131 281 131 324 q 135 242 131 258 q 226 279 178 260 q 324 319 275 299 q 419 358 372 339 q 507 392 467 376 z "},"p":{"ha":738,"x_min":96,"x_max":682,"o":"m 600 278 q 585 363 600 324 q 541 431 569 403 q 474 476 513 460 q 389 493 435 493 q 303 476 343 493 q 235 431 264 460 q 189 364 206 403 q 172 279 172 325 q 189 194 172 233 q 235 126 206 156 q 303 81 264 97 q 389 64 343 64 q 474 81 435 64 q 541 126 513 97 q 585 194 569 156 q 600 278 600 233 m 682 278 q 660 164 682 217 q 600 72 639 111 q 508 11 561 33 q 393 -11 456 -11 q 255 25 315 -11 q 171 114 194 61 q 172 87 171 100 q 172 58 172 74 l 172 -267 l 96 -267 l 96 556 l 169 556 q 170 538 169 551 q 171 506 171 524 q 172 471 171 489 q 172 439 172 453 q 257 529 199 490 q 396 568 315 568 q 510 547 458 568 q 601 487 563 525 q 660 395 639 449 q 682 278 682 342 z "},"á":{"ha":735,"x_min":54,"x_max":640,"o":"m 54 275 q 77 388 54 335 q 140 482 100 442 q 232 545 179 522 q 344 568 285 568 q 422 557 386 568 q 487 527 458 546 q 535 485 515 508 q 564 440 554 463 l 569 556 l 640 556 l 640 0 l 564 0 l 564 57 q 565 86 564 72 q 565 113 565 100 q 536 67 556 89 q 488 28 517 46 q 424 -1 460 10 q 344 -11 388 -11 q 228 12 282 -11 q 137 74 175 35 q 76 165 99 113 q 54 275 54 217 m 131 279 q 147 194 131 233 q 193 126 164 156 q 262 81 222 97 q 347 64 301 64 q 433 81 393 64 q 501 126 472 97 q 547 194 531 156 q 564 279 564 233 q 547 363 564 324 q 501 431 531 401 q 433 476 472 460 q 347 493 393 493 q 262 476 301 493 q 193 431 222 460 q 147 364 164 403 q 131 279 131 325 m 319 671 l 446 857 l 528 857 q 454 763 492 810 q 379 671 417 717 l 319 671 z "},"é":{"ha":633,"x_min":54,"x_max":603,"o":"m 554 67 q 460 10 514 31 q 347 -11 406 -11 q 233 12 286 -11 q 140 74 179 35 q 77 165 100 113 q 54 278 54 218 q 77 391 54 338 q 140 484 100 444 q 232 547 179 524 q 344 569 285 569 q 503 514 436 569 q 603 372 571 458 q 498 331 556 354 q 380 284 440 308 q 260 235 319 260 q 149 190 200 211 q 226 99 174 133 q 344 64 278 64 q 429 79 389 64 q 497 121 469 94 l 554 67 m 507 392 q 440 466 483 439 q 344 493 397 493 q 261 476 300 493 q 193 429 222 458 q 147 362 164 400 q 131 281 131 324 q 135 242 131 258 q 226 279 178 260 q 324 319 275 299 q 419 358 372 339 q 507 392 467 376 m 299 671 l 425 857 l 507 857 q 433 763 471 810 q 358 671 396 717 l 299 671 z "},"í":{"ha":265,"x_min":94,"x_max":304,"o":"m 171 0 l 94 0 l 94 556 l 171 556 l 171 0 m 96 671 l 222 857 l 304 857 q 231 763 268 810 q 156 671 193 717 l 96 671 z "},"ó":{"ha":692,"x_min":54,"x_max":638,"o":"m 54 278 q 77 391 54 338 q 140 484 100 444 q 233 547 179 524 q 347 569 286 569 q 462 547 408 569 q 554 484 515 524 q 615 391 593 444 q 638 278 638 338 q 615 165 638 218 q 553 74 593 113 q 461 12 514 35 q 346 -11 408 -11 q 232 10 285 -11 q 140 71 179 32 q 77 163 100 110 q 54 278 54 215 m 131 278 q 147 194 131 233 q 193 126 164 156 q 261 81 222 97 q 344 64 300 64 q 428 81 389 64 q 497 126 468 97 q 543 194 526 156 q 560 278 560 233 q 543 362 560 322 q 497 431 526 401 q 428 476 468 460 q 344 493 389 493 q 261 476 300 493 q 193 431 222 460 q 147 362 164 401 q 131 278 131 322 m 344 671 l 471 857 l 553 857 q 479 763 517 810 q 404 671 442 717 l 344 671 z "},"ú":{"ha":669,"x_min":89,"x_max":575,"o":"m 575 -7 l 511 -7 l 503 143 q 414 31 474 74 q 269 -12 354 -12 q 140 33 188 -12 q 89 154 92 79 l 89 556 l 165 556 l 165 181 q 199 100 168 133 q 290 64 229 67 q 372 78 333 64 q 438 119 410 93 q 482 181 465 144 q 499 260 499 217 l 499 556 l 575 556 l 575 -7 m 307 671 l 433 857 l 515 857 q 442 763 479 810 q 367 671 404 717 l 307 671 z "},"ä":{"ha":735,"x_min":54,"x_max":640,"o":"m 54 275 q 77 388 54 335 q 140 482 100 442 q 232 545 179 522 q 344 568 285 568 q 422 557 386 568 q 487 527 458 546 q 535 485 515 508 q 564 440 554 463 l 569 556 l 640 556 l 640 0 l 564 0 l 564 57 q 565 86 564 72 q 565 113 565 100 q 536 67 556 89 q 488 28 517 46 q 424 -1 460 10 q 344 -11 388 -11 q 228 12 282 -11 q 137 74 175 35 q 76 165 99 113 q 54 275 54 217 m 131 279 q 147 194 131 233 q 193 126 164 156 q 262 81 222 97 q 347 64 301 64 q 433 81 393 64 q 501 126 472 97 q 547 194 531 156 q 564 279 564 233 q 547 363 564 324 q 501 431 531 401 q 433 476 472 460 q 347 493 393 493 q 262 476 301 493 q 193 431 222 460 q 147 364 164 403 q 131 279 131 325 m 440 718 q 457 758 440 742 q 496 775 474 775 q 534 758 517 775 q 551 718 551 742 q 534 677 551 693 q 496 661 517 661 q 457 677 474 661 q 440 718 440 693 m 192 718 q 208 758 192 742 q 247 775 225 775 q 285 758 268 775 q 303 718 303 742 q 285 677 303 693 q 247 661 268 661 q 208 677 225 661 q 192 718 192 693 z "},"ë":{"ha":633,"x_min":54,"x_max":603,"o":"m 554 67 q 460 10 514 31 q 347 -11 406 -11 q 233 12 286 -11 q 140 74 179 35 q 77 165 100 113 q 54 278 54 218 q 77 391 54 338 q 140 484 100 444 q 232 547 179 524 q 344 569 285 569 q 503 514 436 569 q 603 372 571 458 q 498 331 556 354 q 380 284 440 308 q 260 235 319 260 q 149 190 200 211 q 226 99 174 133 q 344 64 278 64 q 429 79 389 64 q 497 121 469 94 l 554 67 m 507 392 q 440 466 483 439 q 344 493 397 493 q 261 476 300 493 q 193 429 222 458 q 147 362 164 400 q 131 281 131 324 q 135 242 131 258 q 226 279 178 260 q 324 319 275 299 q 419 358 372 339 q 507 392 467 376 m 399 718 q 415 758 399 742 q 454 775 432 775 q 492 758 475 775 q 510 718 510 742 q 492 677 510 693 q 454 661 475 661 q 415 677 432 661 q 399 718 399 693 m 150 718 q 167 758 150 742 q 206 775 183 775 q 244 758 226 775 q 261 718 261 742 q 244 677 261 693 q 206 661 226 661 q 167 677 183 661 q 150 718 150 693 z "},"ö":{"ha":692,"x_min":54,"x_max":638,"o":"m 54 278 q 77 391 54 338 q 140 484 100 444 q 233 547 179 524 q 347 569 286 569 q 462 547 408 569 q 554 484 515 524 q 615 391 593 444 q 638 278 638 338 q 615 165 638 218 q 553 74 593 113 q 461 12 514 35 q 346 -11 408 -11 q 232 10 285 -11 q 140 71 179 32 q 77 163 100 110 q 54 278 54 215 m 131 278 q 147 194 131 233 q 193 126 164 156 q 261 81 222 97 q 344 64 300 64 q 428 81 389 64 q 497 126 468 97 q 543 194 526 156 q 560 278 560 233 q 543 362 560 322 q 497 431 526 401 q 428 476 468 460 q 344 493 389 493 q 261 476 300 493 q 193 431 222 460 q 147 362 164 401 q 131 278 131 322 m 428 718 q 444 758 428 742 q 483 775 461 775 q 522 758 504 775 q 539 718 539 742 q 522 677 539 693 q 483 661 504 661 q 444 677 461 661 q 428 718 428 693 m 179 718 q 196 758 179 742 q 235 775 213 775 q 273 758 256 775 q 290 718 290 742 q 273 677 290 693 q 235 661 256 661 q 196 677 213 661 q 179 718 179 693 z "},"ü":{"ha":669,"x_min":89,"x_max":575,"o":"m 575 -7 l 511 -7 l 503 143 q 414 31 474 74 q 269 -12 354 -12 q 140 33 188 -12 q 89 154 92 79 l 89 556 l 165 556 l 165 181 q 199 100 168 133 q 290 64 229 67 q 372 78 333 64 q 438 119 410 93 q 482 181 465 144 q 499 260 499 217 l 499 556 l 575 556 l 575 -7 m 424 718 q 440 758 424 742 q 479 775 457 775 q 517 758 500 775 q 535 718 535 742 q 517 677 535 693 q 479 661 500 661 q 440 677 457 661 q 424 718 424 693 m 175 718 q 192 758 175 742 q 231 775 208 775 q 269 758 251 775 q 286 718 286 742 q 269 677 286 693 q 231 661 251 661 q 192 677 208 661 q 175 718 175 693 z "},"à":{"ha":735,"x_min":54,"x_max":640,"o":"m 54 275 q 77 388 54 335 q 140 482 100 442 q 232 545 179 522 q 344 568 285 568 q 422 557 386 568 q 487 527 458 546 q 535 485 515 508 q 564 440 554 463 l 569 556 l 640 556 l 640 0 l 564 0 l 564 57 q 565 86 564 72 q 565 113 565 100 q 536 67 556 89 q 488 28 517 46 q 424 -1 460 10 q 344 -11 388 -11 q 228 12 282 -11 q 137 74 175 35 q 76 165 99 113 q 54 275 54 217 m 131 279 q 147 194 131 233 q 193 126 164 156 q 262 81 222 97 q 347 64 301 64 q 433 81 393 64 q 501 126 472 97 q 547 194 531 156 q 564 279 564 233 q 547 363 564 324 q 501 431 531 401 q 433 476 472 460 q 347 493 393 493 q 262 476 301 493 q 193 431 222 460 q 147 364 164 403 q 131 279 131 325 m 260 857 q 323 763 292 810 q 386 671 354 717 l 325 671 l 176 857 l 260 857 z "},"è":{"ha":633,"x_min":54,"x_max":603,"o":"m 554 67 q 460 10 514 31 q 347 -11 406 -11 q 233 12 286 -11 q 140 74 179 35 q 77 165 100 113 q 54 278 54 218 q 77 391 54 338 q 140 484 100 444 q 232 547 179 524 q 344 569 285 569 q 503 514 436 569 q 603 372 571 458 q 498 331 556 354 q 380 284 440 308 q 260 235 319 260 q 149 190 200 211 q 226 99 174 133 q 344 64 278 64 q 429 79 389 64 q 497 121 469 94 l 554 67 m 507 392 q 440 466 483 439 q 344 493 397 493 q 261 476 300 493 q 193 429 222 458 q 147 362 164 400 q 131 281 131 324 q 135 242 131 258 q 226 279 178 260 q 324 319 275 299 q 419 358 372 339 q 507 392 467 376 m 226 857 q 290 763 258 810 q 353 671 321 717 l 292 671 l 143 857 l 226 857 z "},"ì":{"ha":265,"x_min":-33,"x_max":176,"o":"m 171 0 l 94 0 l 94 556 l 171 556 l 171 0 m 50 857 q 113 763 82 810 q 176 671 144 717 l 115 671 l -33 857 l 50 857 z "},"ò":{"ha":692,"x_min":54,"x_max":638,"o":"m 54 278 q 77 391 54 338 q 140 484 100 444 q 233 547 179 524 q 347 569 286 569 q 462 547 408 569 q 554 484 515 524 q 615 391 593 444 q 638 278 638 338 q 615 165 638 218 q 553 74 593 113 q 461 12 514 35 q 346 -11 408 -11 q 232 10 285 -11 q 140 71 179 32 q 77 163 100 110 q 54 278 54 215 m 131 278 q 147 194 131 233 q 193 126 164 156 q 261 81 222 97 q 344 64 300 64 q 428 81 389 64 q 497 126 468 97 q 543 194 526 156 q 560 278 560 233 q 543 362 560 322 q 497 431 526 401 q 428 476 468 460 q 344 493 389 493 q 261 476 300 493 q 193 431 222 460 q 147 362 164 401 q 131 278 131 322 m 235 857 q 298 763 267 810 q 361 671 329 717 l 300 671 l 151 857 l 235 857 z "},"ù":{"ha":669,"x_min":89,"x_max":575,"o":"m 575 -7 l 511 -7 l 503 143 q 414 31 474 74 q 269 -12 354 -12 q 140 33 188 -12 q 89 154 92 79 l 89 556 l 165 556 l 165 181 q 199 100 168 133 q 290 64 229 67 q 372 78 333 64 q 438 119 410 93 q 482 181 465 144 q 499 260 499 217 l 499 556 l 575 556 l 575 -7 m 279 857 q 342 763 311 810 q 406 671 374 717 l 344 671 l 196 857 l 279 857 z "},",":{"ha":319,"x_min":21,"x_max":215,"o":"m 215 121 l 96 -168 l 21 -168 q 75 -24 49 -94 q 129 121 101 47 l 215 121 z "},".":{"ha":289,"x_min":89,"x_max":200,"o":"m 89 57 q 106 97 89 81 q 144 114 122 114 q 183 97 165 114 q 200 57 200 81 q 183 16 200 32 q 144 0 165 0 q 106 16 122 0 q 89 57 89 32 z "},"f":{"ha":411,"x_min":39,"x_max":432,"o":"m 39 479 l 39 554 l 135 554 l 135 718 q 216 973 135 888 q 432 1064 297 1058 l 432 990 q 270 916 329 988 q 211 718 211 844 l 211 554 l 393 554 l 393 479 l 211 479 l 211 0 l 135 0 l 135 479 l 39 479 z "},"å":{"ha":736,"x_min":54,"x_max":640,"o":"m 54 275 q 77 388 54 335 q 140 482 100 442 q 232 545 179 522 q 344 568 285 568 q 422 557 386 568 q 487 527 458 546 q 535 485 515 508 q 564 440 554 463 l 569 556 l 640 556 l 640 0 l 564 0 l 564 57 q 565 86 564 72 q 565 113 565 100 q 536 67 556 89 q 488 28 517 46 q 424 -1 460 10 q 344 -11 388 -11 q 228 12 282 -11 q 137 74 175 35 q 76 165 99 113 q 54 275 54 217 m 131 279 q 147 194 131 233 q 193 126 164 156 q 262 81 222 97 q 347 64 301 64 q 433 81 393 64 q 501 126 472 97 q 547 194 531 156 q 564 279 564 233 q 547 363 564 324 q 501 431 531 401 q 433 476 472 460 q 347 493 393 493 q 262 476 301 493 q 193 431 222 460 q 147 364 164 403 q 131 279 131 325 m 249 711 q 279 785 249 754 q 354 815 310 815 q 429 785 399 815 q 460 711 460 754 q 429 636 460 667 q 354 606 399 606 q 279 636 310 606 q 249 711 249 667 m 297 710 q 314 669 297 686 q 354 653 331 653 q 394 669 378 653 q 411 710 411 686 q 394 750 411 733 q 354 767 378 767 q 314 750 331 767 q 297 710 297 733 z "},"v":{"ha":593,"x_min":17,"x_max":576,"o":"m 297 -33 q 224 114 258 40 q 156 261 189 188 q 88 408 122 335 q 17 556 54 482 l 99 556 q 169 409 140 472 q 220 295 199 346 q 260 201 242 244 q 297 113 278 157 q 334 201 317 157 q 373 295 351 244 q 424 409 394 346 q 494 556 453 472 l 576 556 q 437 261 501 407 q 297 -33 372 115 z "},"j":{"ha":265,"x_min":14,"x_max":190,"o":"m 68 -267 q 40 -240 53 -253 q 14 -211 28 -226 q 73 -124 51 -175 q 94 -4 94 -74 l 94 556 l 171 556 l 171 -4 q 143 -158 171 -92 q 68 -267 115 -224 m 79 757 q 97 797 79 781 q 135 813 114 813 q 174 797 157 813 q 190 757 190 781 q 174 717 190 732 q 135 701 157 701 q 97 717 114 701 q 79 757 79 732 z "},"s":{"ha":461,"x_min":50,"x_max":408,"o":"m 388 503 l 346 449 q 302 477 335 464 q 236 490 269 490 q 206 486 222 490 q 177 473 190 482 q 155 449 164 464 q 146 414 146 435 q 165 363 146 382 q 214 331 185 344 q 277 304 243 317 q 340 274 311 292 q 389 227 369 256 q 408 154 408 199 q 361 37 408 85 q 226 -11 314 -11 q 130 6 179 -11 q 50 58 81 22 q 64 74 56 64 q 79 92 72 83 q 91 106 86 100 q 97 113 96 113 q 115 97 101 106 q 147 81 129 89 q 186 68 165 74 q 226 63 207 63 q 262 67 243 63 q 297 83 281 72 q 322 111 313 94 q 332 151 332 128 q 313 202 332 183 q 264 235 293 221 q 200 260 235 249 q 136 290 165 272 q 88 338 107 308 q 68 413 68 367 q 83 483 68 454 q 122 530 99 511 q 176 557 146 549 q 233 565 206 565 q 313 550 269 565 q 388 503 356 535 z "},"k":{"ha":574,"x_min":94,"x_max":557,"o":"m 471 569 l 517 522 q 416 427 464 474 q 315 332 368 381 l 557 0 l 468 0 l 261 281 l 171 197 l 171 0 l 94 0 l 94 1064 l 171 1064 l 171 289 q 321 428 249 361 q 471 569 393 496 z "},"y":{"ha":622,"x_min":19,"x_max":601,"o":"m 222 -267 l 142 -267 q 174 -197 160 -229 q 203 -131 189 -164 q 233 -60 217 -97 q 269 22 249 -24 q 144 288 206 150 q 19 556 83 426 l 101 556 q 174 406 143 472 q 228 284 204 339 q 272 182 253 229 q 311 90 292 135 q 349 182 331 135 q 392 284 368 229 q 447 406 417 339 q 519 556 478 472 l 601 556 l 222 -267 z "},"ø":{"ha":690,"x_min":53,"x_max":636,"o":"m 53 278 q 76 391 53 338 q 138 484 99 444 q 231 547 178 524 q 346 569 285 569 q 431 557 390 569 q 506 522 471 544 l 551 576 l 593 542 l 547 488 q 613 394 589 447 q 636 278 636 340 q 614 165 636 218 q 552 74 592 113 q 460 12 513 35 q 344 -11 407 -11 q 249 3 294 -11 q 167 46 203 18 q 134 8 149 25 q 110 -21 119 -8 l 71 17 q 94 45 81 28 q 126 82 108 63 q 72 170 92 121 q 53 278 53 219 m 217 104 q 275 74 243 85 q 343 64 307 64 q 427 81 388 64 q 496 126 467 97 q 542 194 525 156 q 558 278 558 233 q 542 361 558 322 q 496 429 525 400 q 428 351 464 393 q 357 267 393 310 q 285 183 321 225 q 217 104 249 142 m 129 278 q 178 142 129 199 q 245 219 210 178 q 317 302 281 260 q 388 385 353 344 q 454 463 424 426 q 343 493 404 493 q 260 476 299 493 q 192 431 221 460 q 146 362 163 401 q 129 278 129 322 z "},"w":{"ha":897,"x_min":21,"x_max":879,"o":"m 410 436 l 356 556 l 424 556 q 538 297 493 401 q 617 113 583 192 q 652 210 633 163 q 693 308 671 257 q 742 419 715 360 q 803 556 769 479 l 879 556 l 617 -33 q 530 164 569 67 q 443 361 490 261 l 276 -33 q 148 261 211 115 q 21 556 85 407 l 97 556 q 156 419 131 479 q 203 307 182 358 q 242 209 224 256 q 276 113 260 163 q 300 172 288 142 q 328 240 313 203 q 363 326 343 278 q 410 436 382 374 z "},"x":{"ha":557,"x_min":31,"x_max":532,"o":"m 231 288 q 133 422 183 354 q 35 556 83 489 l 129 556 q 204 449 168 497 q 281 344 240 401 q 356 449 319 401 q 431 554 392 497 l 517 554 q 469 485 492 518 q 422 419 446 451 q 374 354 399 388 q 325 283 350 321 q 429 142 374 217 q 532 0 485 67 l 436 0 q 353 109 394 57 q 272 218 313 161 q 194 110 232 161 q 117 0 157 58 l 31 0 q 131 144 79 72 q 231 288 182 215 z "},"z":{"ha":561,"x_min":36,"x_max":521,"o":"m 515 0 l 36 0 l 382 489 l 147 489 q 74 509 101 489 q 47 571 47 529 l 47 608 l 117 608 l 117 590 q 128 563 117 571 q 163 556 139 556 l 521 556 l 181 75 l 515 75 l 515 0 z "},"o":{"ha":692,"x_min":54,"x_max":638,"o":"m 54 278 q 77 391 54 338 q 140 484 100 444 q 233 547 179 524 q 347 569 286 569 q 462 547 408 569 q 554 484 515 524 q 615 391 593 444 q 638 278 638 338 q 615 165 638 218 q 553 74 593 113 q 461 12 514 35 q 346 -11 408 -11 q 232 10 285 -11 q 140 71 179 32 q 77 163 100 110 q 54 278 54 215 m 131 278 q 147 194 131 233 q 193 126 164 156 q 261 81 222 97 q 344 64 300 64 q 428 81 389 64 q 497 126 468 97 q 543 194 526 156 q 560 278 560 233 q 543 362 560 322 q 497 431 526 401 q 428 476 468 460 q 344 493 389 493 q 261 476 300 493 q 193 431 222 460 q 147 362 164 401 q 131 278 131 322 z "},"æ":{"ha":926,"x_min":50,"x_max":896,"o":"m 496 135 l 492 121 q 557 78 519 93 q 638 64 594 64 q 722 79 682 64 q 790 121 763 94 l 847 67 q 753 10 807 31 q 640 -11 699 -11 q 538 6 586 -11 q 451 56 489 24 q 365 6 417 22 q 253 -11 314 -11 q 162 3 200 -11 q 99 40 124 17 q 62 92 74 63 q 50 153 50 121 q 67 219 50 192 q 109 266 83 247 q 167 294 135 285 q 231 303 199 303 l 347 303 q 404 451 356 389 q 275 492 368 492 q 175 479 214 492 q 106 447 136 467 l 72 508 q 165 552 111 536 q 288 568 219 568 q 392 552 349 568 q 460 507 435 536 q 542 553 496 536 q 638 569 588 569 q 797 514 729 569 q 896 372 864 458 q 791 331 849 354 q 673 284 733 308 q 553 235 613 260 q 442 190 493 211 q 468 144 453 164 l 496 135 m 800 392 q 733 466 776 439 q 638 493 690 493 q 554 476 593 493 q 486 429 515 458 q 440 362 457 400 q 424 281 424 324 q 428 242 424 258 q 519 279 471 260 q 617 319 568 299 q 713 358 665 339 q 800 392 760 376 m 122 160 q 135 113 122 132 q 167 83 147 94 q 211 68 186 72 q 261 64 236 64 q 403 108 358 64 q 349 242 360 164 l 278 242 q 202 235 232 242 q 155 216 172 228 q 130 190 138 204 q 122 160 122 175 z "},"A":{"ha":897,"x_min":21,"x_max":878,"o":"m 782 0 q 717 157 754 64 q 639 354 679 250 l 258 354 q 181 157 218 250 q 115 0 143 64 l 21 0 q 76 133 42 50 q 151 314 111 215 q 235 519 192 413 q 318 724 278 625 q 392 904 358 822 q 449 1038 426 986 q 504 904 469 986 q 579 724 539 822 q 663 519 619 625 q 747 314 707 413 q 822 133 788 215 q 878 0 856 50 l 782 0 m 435 794 q 369 635 407 729 q 290 436 331 540 l 607 436 q 528 635 565 540 q 463 794 490 729 q 456 813 460 800 q 449 838 451 826 q 442 813 446 826 q 435 794 438 800 z "},"ï":{"ha":265,"x_min":-44,"x_max":315,"o":"m 171 0 l 94 0 l 94 556 l 171 556 l 171 0 m 204 718 q 221 758 204 742 q 260 775 238 775 q 298 758 281 775 q 315 718 315 742 q 298 677 315 693 q 260 661 281 661 q 221 677 238 661 q 204 718 204 693 m -44 718 q -28 758 -44 742 q 11 775 -11 775 q 49 758 32 775 q 67 718 67 742 q 49 677 67 693 q 11 661 32 661 q -28 677 -11 661 q -44 718 -44 693 z "},"ý":{"ha":622,"x_min":19,"x_max":601,"o":"m 222 -267 l 142 -267 q 174 -197 160 -229 q 203 -131 189 -164 q 233 -60 217 -97 q 269 22 249 -24 q 144 288 206 150 q 19 556 83 426 l 101 556 q 174 406 143 472 q 228 284 204 339 q 272 182 253 229 q 311 90 292 135 q 349 182 331 135 q 392 284 368 229 q 447 406 417 339 q 519 556 478 472 l 601 556 l 222 -267 m 292 671 l 418 857 l 500 857 q 426 763 464 810 q 351 671 389 717 l 292 671 z "},"ÿ":{"ha":622,"x_min":19,"x_max":601,"o":"m 222 -267 l 142 -267 q 174 -197 160 -229 q 203 -131 189 -164 q 233 -60 217 -97 q 269 22 249 -24 q 144 288 206 150 q 19 556 83 426 l 101 556 q 174 406 143 472 q 228 284 204 339 q 272 182 253 229 q 311 90 292 135 q 349 182 331 135 q 392 284 368 229 q 447 406 417 339 q 519 556 478 472 l 601 556 l 222 -267 m 389 718 q 406 758 389 742 q 444 775 422 775 q 483 758 465 775 q 500 718 500 742 q 483 677 500 693 q 444 661 465 661 q 406 677 422 661 q 389 718 389 693 m 140 718 q 157 758 140 742 q 196 775 174 775 q 234 758 217 775 q 251 718 251 742 q 234 677 251 693 q 196 661 217 661 q 157 677 174 661 q 140 718 140 693 z "},"B":{"ha":807,"x_min":142,"x_max":729,"o":"m 236 906 l 236 540 l 403 540 q 539 594 493 540 q 585 729 585 647 q 529 864 585 822 q 385 906 474 906 l 236 906 m 236 458 l 236 86 l 406 86 q 494 98 453 86 q 567 133 536 110 q 617 190 599 156 q 635 271 635 225 q 614 357 635 321 q 558 415 593 393 q 477 448 522 438 q 385 458 432 458 l 236 458 m 142 0 l 142 992 l 374 992 q 499 978 443 992 q 596 933 556 964 q 658 854 636 903 q 679 736 679 806 q 671 659 679 696 q 644 591 663 622 q 597 537 626 560 q 525 501 568 514 q 601 475 564 493 q 666 428 638 457 q 712 358 694 399 q 729 263 729 317 q 703 146 729 196 q 633 64 676 96 q 532 16 589 32 q 414 0 475 0 l 142 0 z "},"D":{"ha":992,"x_min":143,"x_max":921,"o":"m 143 992 l 374 992 q 628 946 524 992 q 797 828 732 900 q 892 666 863 756 q 921 489 921 576 q 881 286 921 376 q 772 132 840 196 q 614 34 704 68 q 422 0 524 0 l 143 0 l 143 992 m 413 90 q 574 118 499 90 q 706 198 650 146 q 794 325 763 250 q 826 494 826 400 q 797 655 826 581 q 711 783 767 729 q 578 869 656 838 q 403 900 500 900 l 239 900 l 239 90 l 413 90 z "},"E":{"ha":850,"x_min":143,"x_max":788,"o":"m 143 0 l 143 992 l 768 992 l 768 906 l 238 906 l 238 543 l 713 543 l 713 454 l 238 454 l 238 89 l 788 89 l 788 0 l 143 0 z "},"H":{"ha":1039,"x_min":142,"x_max":899,"o":"m 142 0 l 142 992 l 238 992 l 238 544 l 801 544 l 801 992 l 899 992 q 899 865 899 943 q 899 692 899 786 q 898 497 899 599 q 897 301 897 394 q 897 128 897 207 q 896 0 896 49 l 801 0 l 801 454 l 238 454 l 238 0 l 142 0 z "},"I":{"ha":379,"x_min":142,"x_max":238,"o":"m 142 992 l 238 992 l 238 0 l 142 0 l 142 992 z "},"J":{"ha":413,"x_min":-50,"x_max":274,"o":"m -50 -203 l -50 -114 q 42 -92 0 -111 q 113 -39 83 -74 q 160 47 143 -4 q 178 165 178 99 l 178 992 l 274 992 l 274 161 q 249 8 274 75 q 180 -106 224 -60 q 77 -176 136 -151 q -50 -203 18 -201 z "},"K":{"ha":865,"x_min":142,"x_max":865,"o":"m 746 0 q 546 256 642 132 q 346 514 450 381 q 296 465 321 489 q 244 418 271 442 q 245 209 244 310 q 246 0 246 108 l 142 0 l 142 992 l 246 992 l 246 575 q 244 553 246 564 q 242 529 243 542 q 255 546 249 539 q 268 563 261 553 q 486 776 379 667 q 704 992 593 886 l 826 992 q 624 785 725 889 q 419 579 522 682 q 643 290 536 431 q 865 0 750 149 l 746 0 z "},"M":{"ha":1247,"x_min":142,"x_max":1106,"o":"m 142 1036 q 207 941 168 997 q 292 819 246 885 q 386 686 338 754 q 480 555 435 618 q 563 439 525 492 q 624 353 600 386 q 669 418 636 371 q 745 528 701 465 q 840 663 789 590 q 941 806 892 736 q 1034 937 990 876 q 1106 1036 1078 997 l 1106 0 l 1006 0 l 1006 707 q 1007 733 1006 719 q 1008 757 1008 747 q 952 677 985 724 q 883 578 919 631 q 810 470 847 525 q 738 364 772 415 q 673 268 703 313 q 624 194 643 224 q 571 266 604 219 q 498 370 538 313 q 415 490 458 428 q 335 606 372 551 q 270 701 299 660 q 232 757 242 742 q 234 733 232 747 q 236 707 236 719 l 236 0 l 142 0 l 142 1036 z "},"N":{"ha":1128,"x_min":142,"x_max":986,"o":"m 986 992 l 986 -46 q 887 70 946 3 q 759 214 828 138 q 617 370 690 290 q 476 526 544 450 q 352 669 408 603 q 260 783 296 735 q 247 799 256 789 q 232 819 239 810 l 236 775 l 236 0 l 142 0 l 142 1038 q 240 919 182 986 q 367 778 299 853 q 508 624 436 703 q 648 470 581 544 q 774 330 715 396 q 869 215 832 264 q 881 198 872 208 q 896 178 889 188 l 892 224 l 892 992 l 986 992 z "},"P":{"ha":765,"x_min":143,"x_max":707,"o":"m 238 488 l 385 488 q 496 509 451 488 q 566 563 540 531 q 602 633 592 596 q 613 700 613 669 q 598 774 613 738 q 556 840 583 811 q 485 885 528 868 q 386 903 442 903 l 238 903 l 238 488 m 143 0 l 143 992 l 383 992 q 504 974 446 992 q 608 921 563 957 q 680 831 653 885 q 707 701 707 776 q 689 590 707 644 q 633 492 671 535 q 533 424 594 450 q 386 397 472 397 l 238 397 l 238 0 l 143 0 z "},"R":{"ha":838,"x_min":142,"x_max":807,"o":"m 142 0 l 142 992 l 382 992 q 503 974 444 992 q 606 921 561 957 q 678 831 651 885 q 706 701 706 776 q 668 543 706 618 q 544 428 631 468 q 578 372 557 407 q 624 297 599 338 q 676 211 649 256 q 728 126 703 167 q 774 53 753 86 q 807 0 794 19 l 692 0 q 663 46 681 17 q 622 111 644 75 q 575 188 600 147 q 526 267 550 228 q 481 340 503 306 q 444 400 460 375 q 415 397 431 397 q 385 397 400 397 l 236 397 l 236 0 l 142 0 m 236 488 l 383 488 q 494 510 450 488 q 565 565 539 532 q 601 634 590 597 q 611 701 611 671 q 597 775 611 739 q 554 840 582 811 q 483 885 526 868 q 385 903 440 903 l 236 903 l 236 488 z "},"U":{"ha":967,"x_min":131,"x_max":836,"o":"m 483 -11 q 344 13 408 -11 q 232 82 279 38 q 158 191 185 126 q 131 338 131 256 l 131 992 l 225 992 l 225 342 q 244 233 225 282 q 299 151 264 185 q 381 98 333 117 q 483 79 428 79 q 585 98 538 79 q 667 151 632 117 q 722 233 701 185 q 742 342 742 282 l 742 992 l 836 992 l 836 338 q 809 191 836 256 q 734 82 782 126 q 622 13 686 38 q 483 -11 557 -11 z "},"Y":{"ha":883,"x_min":25,"x_max":858,"o":"m 490 346 l 490 0 l 394 0 l 394 346 q 347 427 376 376 q 282 540 317 478 q 209 669 247 601 q 136 798 171 736 q 72 910 101 860 q 25 992 43 961 l 132 992 q 193 886 157 950 q 270 751 229 822 q 352 606 311 679 q 426 471 393 532 l 443 429 l 460 471 q 535 606 494 532 q 615 751 575 679 q 690 886 654 822 q 750 992 725 950 l 858 992 l 490 346 z "},"~":{"ha":656,"x_min":115,"x_max":543,"o":"m 317 682 q 278 713 294 706 q 243 721 263 721 q 219 718 232 721 q 194 708 207 715 q 173 686 182 700 q 161 651 164 672 l 115 654 q 128 703 117 682 q 158 738 140 724 q 196 760 175 753 q 238 767 217 767 q 294 754 269 767 q 342 718 319 742 q 380 687 364 694 q 415 679 396 679 q 438 682 425 679 q 464 692 451 685 q 485 714 476 700 q 497 749 494 728 l 543 746 q 530 697 542 718 q 501 662 518 676 q 463 640 483 647 q 421 633 442 633 q 364 647 389 633 q 317 682 339 660 z "},"ñ":{"ha":671,"x_min":96,"x_max":582,"o":"m 96 556 l 161 556 l 168 413 q 258 525 199 482 q 401 568 318 568 q 531 522 483 568 q 582 401 579 476 l 582 0 l 506 0 l 506 375 q 472 456 503 422 q 381 492 442 489 q 299 477 336 492 q 233 436 261 463 q 188 374 204 410 q 172 294 172 338 l 172 0 l 96 0 l 96 556 m 347 693 q 309 724 325 717 q 274 732 293 732 q 250 729 263 732 q 225 719 238 726 q 203 697 213 711 q 192 663 194 683 l 146 665 q 159 714 147 693 q 188 749 171 735 q 226 771 206 764 q 268 778 247 778 q 325 765 300 778 q 372 729 350 753 q 410 698 394 706 q 446 690 426 690 q 469 693 456 690 q 494 703 482 696 q 516 725 507 711 q 528 760 525 739 l 574 757 q 560 708 572 729 q 531 673 549 688 q 493 651 514 658 q 451 644 472 644 q 394 658 419 644 q 347 693 369 671 z "},"F":{"ha":768,"x_min":143,"x_max":711,"o":"m 143 0 l 143 992 l 711 992 l 711 904 l 238 904 l 238 529 l 656 529 l 656 440 l 238 440 l 238 0 l 143 0 z "},"L":{"ha":783,"x_min":142,"x_max":764,"o":"m 142 0 l 142 992 l 236 992 l 236 90 l 764 90 l 764 0 l 142 0 z "},"C":{"ha":896,"x_min":69,"x_max":858,"o":"m 858 67 q 740 14 814 39 q 569 -11 667 -11 q 362 29 454 -11 q 205 138 269 69 q 105 297 140 207 q 69 489 69 388 q 110 693 69 599 q 219 856 150 788 q 382 964 289 925 q 581 1003 475 1003 q 656 998 618 1003 q 729 983 694 993 q 793 961 764 974 q 843 933 822 949 q 832 915 836 922 q 824 901 828 908 q 814 883 819 893 q 800 858 808 874 q 697 900 756 886 q 583 914 638 914 q 419 881 496 914 q 287 790 343 847 q 198 656 231 732 q 165 496 165 581 q 194 341 165 415 q 278 210 224 267 q 407 120 332 154 q 574 86 482 86 q 651 92 614 86 q 721 109 689 99 q 777 131 753 119 q 815 153 801 142 l 858 67 z "},"Q":{"ha":1157,"x_min":68,"x_max":1114,"o":"m 68 494 q 108 691 68 599 q 216 853 147 783 q 377 963 285 922 q 574 1003 469 1003 q 771 963 678 1003 q 933 853 864 922 q 1042 691 1001 783 q 1082 494 1082 599 q 1022 258 1082 365 q 861 83 961 150 l 1114 90 l 1114 0 l 679 0 q 627 -8 653 -6 q 574 -11 601 -11 q 377 28 469 -11 q 216 137 285 68 q 108 298 147 206 q 68 494 68 390 m 163 494 q 195 333 163 408 q 283 201 228 257 q 414 112 339 144 q 574 79 489 79 q 734 112 658 79 q 866 201 810 144 q 955 333 922 257 q 988 494 988 408 q 955 656 988 581 q 866 789 922 732 q 734 878 810 846 q 574 911 658 911 q 414 878 489 911 q 283 789 339 846 q 195 656 228 732 q 163 494 163 581 z "},"T":{"ha":746,"x_min":63,"x_max":683,"o":"m 683 992 l 683 901 l 419 901 l 419 0 l 324 0 l 324 901 l 63 901 l 63 992 l 683 992 z "},"‹":{"ha":389,"x_min":61,"x_max":300,"o":"m 300 86 l 61 335 q 112 386 79 351 q 181 458 144 421 q 249 531 217 496 q 300 582 282 565 l 300 489 q 267 453 285 474 q 230 412 249 433 q 192 370 211 390 q 158 335 174 350 q 192 299 174 319 q 230 257 211 279 q 267 214 249 235 q 300 178 285 193 l 300 86 z "},">":{"ha":776,"x_min":115,"x_max":726,"o":"m 115 -21 l 115 89 l 540 333 l 115 578 l 115 686 q 421 510 269 599 q 726 333 572 421 l 115 -21 z "},"<":{"ha":776,"x_min":50,"x_max":661,"o":"m 661 89 l 661 -21 l 50 333 q 356 510 204 421 q 661 686 507 599 l 661 578 q 449 456 556 517 q 238 333 343 396 q 449 210 343 271 q 661 89 556 150 z "},"=":{"ha":906,"x_min":99,"x_max":807,"o":"m 807 256 l 807 176 l 99 176 l 99 256 l 807 256 m 807 528 l 807 447 l 99 447 l 99 528 l 807 528 z "},"@":{"ha":1300,"x_min":65,"x_max":1217,"o":"m 331 275 q 353 388 331 335 q 416 482 376 442 q 508 545 456 522 q 621 568 561 568 q 699 557 663 568 q 763 527 735 546 q 811 485 792 508 q 840 440 831 463 l 846 556 l 917 556 l 917 71 l 993 71 q 1046 83 1019 71 q 1094 124 1072 96 q 1128 197 1115 153 q 1142 306 1142 242 q 1107 485 1142 399 q 1009 635 1072 571 q 856 739 946 700 q 654 778 765 778 q 437 734 532 778 q 276 619 342 690 q 175 458 210 549 q 140 272 140 367 q 180 78 140 169 q 287 -81 219 -12 q 446 -187 354 -149 q 642 -226 538 -226 q 801 -201 725 -226 q 940 -132 876 -176 l 985 -185 q 823 -269 914 -240 q 639 -299 732 -299 q 417 -253 521 -299 q 234 -131 313 -208 q 110 51 156 -53 q 65 275 65 156 q 107 490 65 386 q 226 674 149 594 q 412 802 303 754 q 656 850 521 850 q 888 806 783 850 q 1065 686 992 761 q 1177 513 1138 611 q 1217 307 1217 414 q 1199 167 1217 225 q 1149 72 1181 110 q 1076 17 1118 35 q 989 0 1035 0 l 840 0 l 840 57 q 841 86 840 72 q 842 113 842 100 q 813 67 832 89 q 765 28 793 46 q 700 -1 736 10 q 621 -11 664 -11 q 505 12 558 -11 q 413 74 451 35 q 353 165 375 113 q 331 275 331 217 m 407 279 q 424 194 407 233 q 469 126 440 156 q 538 81 499 97 q 624 64 578 64 q 709 81 669 64 q 778 126 749 97 q 824 194 807 156 q 840 279 840 233 q 824 363 840 324 q 778 431 807 401 q 709 476 749 460 q 624 493 669 493 q 538 476 578 493 q 469 431 499 460 q 424 364 440 403 q 407 279 407 325 z "},"?":{"ha":663,"x_min":50,"x_max":597,"o":"m 121 796 l 50 821 q 82 890 61 854 q 135 956 103 926 q 214 1006 168 986 q 322 1025 260 1025 q 431 1003 381 1025 q 517 944 481 982 q 576 857 554 907 q 597 751 597 807 q 560 617 597 675 q 460 513 524 560 q 415 482 438 496 q 373 450 392 468 q 342 406 354 432 q 331 339 331 379 l 331 229 l 249 229 l 249 365 q 263 438 249 410 q 302 486 278 465 q 358 526 326 507 q 421 572 389 544 q 492 655 469 610 q 514 751 514 700 q 499 828 514 793 q 460 890 485 864 q 399 931 435 917 q 322 946 364 946 q 193 906 242 946 q 121 796 144 867 m 289 13 q 251 28 268 13 q 233 69 233 44 q 251 110 233 93 q 289 126 268 126 q 326 110 308 126 q 344 69 344 93 q 326 28 344 44 q 289 13 308 13 z "},"!":{"ha":351,"x_min":121,"x_max":232,"o":"m 135 1050 l 217 1050 l 217 232 l 135 232 l 135 1050 m 176 18 q 138 35 154 18 q 121 75 121 51 q 138 117 121 101 q 176 132 154 132 q 215 117 197 132 q 232 75 232 101 q 215 35 232 51 q 176 18 197 18 z "},":":{"ha":290,"x_min":89,"x_max":201,"o":"m 89 424 q 106 464 89 447 q 146 481 124 481 q 184 464 167 481 q 201 424 201 447 q 184 383 201 399 q 146 367 167 367 q 106 383 124 367 q 89 424 89 399 m 89 57 q 106 97 89 81 q 146 114 124 114 q 184 97 167 114 q 201 57 201 81 q 184 16 201 32 q 146 0 167 0 q 106 16 124 0 q 89 57 89 32 z "},";":{"ha":346,"x_min":24,"x_max":242,"o":"m 131 407 q 147 447 131 431 q 186 464 164 464 q 224 447 207 464 q 242 407 242 431 q 224 366 242 382 q 186 350 207 350 q 147 366 164 350 q 131 407 131 382 m 218 121 q 157 -24 186 47 q 97 -168 128 -94 l 24 -168 q 78 -24 51 -94 q 132 121 104 47 l 218 121 z "},"\"":{"ha":467,"x_min":100,"x_max":369,"o":"m 100 661 l 100 1008 l 183 1008 l 178 661 l 100 661 m 288 661 l 288 1008 l 369 1008 l 364 661 l 288 661 z "},"#":{"ha":799,"x_min":38,"x_max":718,"o":"m 403 0 l 436 282 l 261 282 q 244 141 253 211 q 228 0 235 71 l 146 0 q 163 141 154 71 q 178 282 171 211 l 38 282 q 42 322 40 301 q 46 361 44 342 l 189 361 q 199 449 194 406 q 210 538 203 493 l 69 538 l 76 617 l 218 617 l 254 900 l 335 900 q 318 759 326 829 q 300 617 310 689 l 476 617 l 511 900 l 593 900 q 575 759 583 829 q 558 617 567 689 l 718 617 l 710 538 l 549 538 l 528 361 l 688 361 l 678 282 l 518 282 l 485 0 l 403 0 m 292 538 q 281 449 286 493 q 269 361 276 406 l 446 361 l 467 538 l 292 538 z "},"%":{"ha":936,"x_min":60,"x_max":881,"o":"m 622 156 q 647 92 622 118 q 711 67 672 67 q 775 92 750 67 q 800 156 800 118 q 775 219 800 193 q 711 244 750 244 q 647 219 672 244 q 622 156 622 193 m 711 -12 q 645 1 676 -12 q 591 37 614 14 q 555 90 568 60 q 542 157 542 121 q 555 222 542 192 q 591 274 568 251 q 645 310 614 297 q 711 324 676 324 q 776 310 746 324 q 830 274 807 297 q 867 222 853 251 q 881 157 881 192 q 867 90 881 121 q 830 37 853 60 q 776 1 807 14 q 711 -12 746 -12 m 142 544 q 167 481 142 507 q 231 456 192 456 q 293 481 268 456 q 318 544 318 507 q 293 607 318 582 q 231 632 268 632 q 167 607 192 632 q 142 544 142 582 m 231 376 q 165 390 196 376 q 110 425 133 403 q 74 478 88 447 q 60 544 60 508 q 74 610 60 579 q 110 663 88 640 q 165 699 133 686 q 231 713 196 713 q 295 699 264 713 q 349 663 326 686 q 386 610 372 640 q 400 544 400 579 q 386 478 400 508 q 349 425 372 447 q 295 390 326 403 q 231 376 264 376 m 214 0 q 422 350 318 176 q 631 700 526 524 l 719 700 q 511 350 615 524 q 303 0 407 176 l 214 0 z "},"’":{"ha":257,"x_min":74,"x_max":188,"o":"m 114 796 l 74 826 q 117 896 104 854 q 121 986 131 938 l 176 996 q 171 885 188 938 q 114 796 154 833 z "},"(":{"ha":386,"x_min":63,"x_max":360,"o":"m 63 408 q 82 608 63 513 q 134 785 101 703 q 208 933 167 867 q 293 1044 249 999 l 360 1013 q 281 903 319 967 q 211 763 242 840 q 163 597 181 686 q 144 408 144 508 q 163 219 144 308 q 211 52 181 129 q 281 -88 242 -25 q 360 -197 319 -151 l 293 -229 q 208 -116 249 -182 q 134 31 167 -50 q 82 208 101 113 q 63 408 63 303 z "},")":{"ha":386,"x_min":28,"x_max":325,"o":"m 325 406 q 306 205 325 300 q 254 28 286 110 q 181 -119 222 -53 q 94 -232 139 -185 q 61 -216 78 -224 q 28 -201 44 -208 q 107 -92 68 -156 q 176 48 146 -29 q 224 214 206 125 q 243 403 243 303 q 224 592 243 503 q 176 759 206 682 q 107 899 146 836 q 28 1008 68 963 q 61 1025 44 1017 q 94 1043 78 1033 q 181 930 139 996 q 254 782 222 864 q 306 605 286 700 q 325 406 325 510 z "},"*":{"ha":543,"x_min":83,"x_max":458,"o":"m 328 799 q 392 763 360 781 q 457 725 425 744 q 441 699 449 713 q 425 672 433 686 l 299 747 l 296 603 l 240 603 l 240 747 q 178 712 208 729 q 115 675 147 694 l 83 729 l 211 800 l 85 875 q 113 924 96 899 l 240 849 l 240 1000 l 301 1000 q 301 925 301 963 q 300 849 300 888 l 431 922 q 444 899 438 911 q 458 874 451 886 l 328 799 z "},"+":{"ha":635,"x_min":65,"x_max":569,"o":"m 276 71 l 276 285 l 65 285 l 65 363 l 276 363 l 276 575 l 358 575 l 358 363 l 569 363 l 569 285 l 358 285 l 358 71 l 276 71 z "},"|":{"ha":342,"x_min":131,"x_max":211,"o":"m 131 -325 l 131 981 l 211 981 l 211 -325 l 131 -325 z "},"{":{"ha":426,"x_min":46,"x_max":381,"o":"m 46 374 l 46 458 q 102 479 81 460 q 136 526 124 499 q 153 587 149 554 q 157 647 157 619 l 157 879 q 169 977 157 943 q 201 1026 181 1011 q 249 1043 222 1042 q 306 1044 276 1044 l 381 1044 l 381 965 l 313 965 q 254 935 269 965 q 239 817 239 904 l 239 625 q 231 539 239 574 q 209 480 222 504 q 180 442 196 456 q 149 418 164 428 q 180 394 164 408 q 209 355 196 379 q 231 296 222 331 q 239 211 239 261 l 239 19 q 254 -99 239 -68 q 313 -129 269 -129 l 381 -129 l 381 -208 l 306 -208 q 248 -207 275 -208 q 201 -189 221 -206 q 169 -135 181 -172 q 157 -25 157 -97 l 157 185 q 153 246 157 214 q 136 306 149 278 q 102 353 124 335 q 46 374 81 372 z "},"}":{"ha":425,"x_min":46,"x_max":379,"o":"m 379 458 l 379 374 q 320 350 342 372 q 287 296 299 328 q 272 228 275 264 q 269 167 269 193 l 269 -43 q 257 -142 269 -108 q 224 -190 244 -175 q 176 -207 203 -206 q 119 -208 149 -208 l 46 -208 l 46 -129 l 114 -129 q 149 -122 135 -129 q 171 -99 163 -115 q 183 -53 179 -82 q 186 19 186 -25 l 186 231 q 196 307 186 275 q 219 360 206 339 q 249 396 233 382 q 278 418 265 410 q 247 442 263 428 q 217 480 231 456 q 194 539 203 504 q 186 625 186 574 l 186 817 q 183 889 186 860 q 171 935 179 918 q 149 958 163 951 q 114 965 135 965 l 46 965 l 46 1044 l 119 1044 q 176 1043 149 1044 q 224 1027 203 1042 q 257 978 244 1013 q 269 879 269 944 l 269 667 q 272 604 269 639 q 287 538 275 569 q 320 483 299 506 q 379 458 342 460 z "},"-":{"ha":436,"x_min":89,"x_max":347,"o":"m 89 247 l 89 326 l 347 326 l 347 247 l 89 247 z "},"/":{"ha":579,"x_min":54,"x_max":525,"o":"m 54 -26 q 249 502 153 240 q 443 1031 346 764 l 525 1031 q 331 502 426 764 q 136 -26 235 240 l 54 -26 z "},"\\":{"ha":589,"x_min":54,"x_max":535,"o":"m 144 1031 l 535 -26 l 444 -26 l 54 1031 l 144 1031 z "},"G":{"ha":949,"x_min":69,"x_max":858,"o":"m 858 454 l 858 60 q 729 8 801 26 q 578 -11 657 -11 q 367 27 461 -11 q 208 132 274 65 q 106 289 142 199 q 69 483 69 379 q 110 691 69 596 q 222 856 151 786 q 385 964 292 925 q 583 1003 479 1003 q 727 985 654 1003 q 857 932 800 967 l 810 854 q 702 898 764 882 q 582 914 640 914 q 422 881 497 914 q 288 790 346 847 q 197 656 231 733 q 164 490 164 578 q 194 332 164 407 q 278 201 224 257 q 408 112 332 144 q 578 79 485 79 q 674 90 624 79 q 771 121 725 100 l 771 371 l 557 371 l 557 454 l 858 454 z "},"V":{"ha":900,"x_min":22,"x_max":879,"o":"m 117 992 q 162 881 136 944 q 217 744 188 817 q 276 595 246 672 q 336 446 307 518 q 391 310 365 374 q 436 199 417 246 l 450 154 l 464 199 q 509 310 483 246 q 564 446 535 374 q 624 595 593 518 q 683 744 654 672 q 738 881 713 817 q 783 992 764 944 l 879 992 q 823 858 857 940 q 749 678 789 776 q 665 473 708 579 q 581 269 621 367 q 506 88 540 171 q 450 -46 471 6 q 394 88 429 6 q 319 269 360 171 q 236 473 279 367 q 153 678 193 579 q 78 858 113 776 q 22 992 43 940 l 117 992 z "},"S":{"ha":765,"x_min":50,"x_max":704,"o":"m 663 940 l 628 864 q 520 897 579 883 q 406 911 461 911 q 316 899 356 911 q 249 864 276 886 q 206 813 221 842 q 192 751 192 785 q 214 683 192 711 q 272 633 236 654 q 354 595 308 613 q 448 560 400 578 q 542 519 496 542 q 624 463 588 496 q 682 383 660 429 q 704 272 704 338 q 681 155 704 207 q 613 66 657 103 q 503 9 568 29 q 357 -11 439 -11 q 249 -1 299 -11 q 162 24 200 10 q 95 54 124 39 q 50 81 67 69 l 93 164 q 149 133 118 149 q 215 107 181 118 q 285 89 249 96 q 356 82 321 82 q 438 92 393 82 q 522 126 483 103 q 585 187 560 150 q 611 276 611 224 q 573 382 611 342 q 478 451 535 422 q 354 501 421 479 q 231 553 288 524 q 135 628 174 583 q 97 743 97 672 q 117 840 97 793 q 176 921 138 886 q 271 976 215 956 q 396 997 326 997 q 476 991 435 997 q 553 976 517 985 q 618 957 589 967 q 663 940 647 947 z "},"Z":{"ha":881,"x_min":17,"x_max":844,"o":"m 194 992 l 818 992 l 182 92 l 844 92 l 844 0 l 17 0 q 103 124 51 50 q 214 285 154 199 q 337 463 274 371 q 460 640 400 554 q 571 797 519 725 q 657 917 622 869 l 168 917 q 94 935 124 917 q 64 993 64 953 l 64 1042 l 151 1042 l 151 1024 q 161 998 151 1004 q 194 992 171 992 z "},"W":{"ha":1311,"x_min":26,"x_max":1286,"o":"m 1286 989 q 1212 803 1251 903 q 1132 599 1172 703 q 1053 396 1092 496 q 981 210 1014 296 q 922 57 947 124 q 883 -44 896 -10 l 667 515 q 660 529 664 521 q 656 544 657 538 q 653 536 654 542 q 650 526 651 531 q 647 515 649 521 q 565 304 606 407 q 530 213 549 260 q 493 121 511 167 q 458 32 475 75 q 429 -46 442 -11 q 228 472 325 215 q 26 989 131 729 l 133 989 q 190 842 160 921 q 251 685 221 764 q 310 530 282 606 q 363 391 339 454 q 402 282 386 328 q 424 217 418 236 l 435 175 q 440 195 435 179 q 447 215 446 211 q 456 240 449 219 q 475 292 464 261 q 501 363 486 324 q 531 442 515 401 q 610 653 567 536 q 554 810 579 739 q 533 869 543 840 q 514 924 522 899 q 499 966 506 949 q 492 989 493 983 l 583 989 q 704 671 649 821 q 753 540 728 607 q 800 413 778 474 q 841 301 822 353 q 871 217 860 250 q 876 196 874 206 q 882 175 879 186 l 893 217 q 914 284 897 238 q 954 394 931 331 q 1007 533 978 457 q 1067 688 1036 610 q 1128 844 1097 767 q 1186 989 1160 922 l 1286 989 z "},"X":{"ha":826,"x_min":25,"x_max":803,"o":"m 351 508 q 311 570 336 532 q 257 655 286 608 q 195 751 228 701 q 133 846 163 800 q 79 930 104 892 q 39 992 54 968 l 156 992 q 209 907 176 958 q 277 800 242 856 q 345 692 313 744 q 400 607 378 640 l 417 574 l 433 607 q 486 692 454 640 q 553 800 518 744 q 619 907 588 856 q 672 992 651 958 l 785 992 l 475 504 q 517 439 492 479 q 574 351 543 399 q 639 251 606 303 q 703 152 672 200 q 760 65 735 104 q 803 0 786 25 l 685 0 l 458 356 q 434 395 449 369 q 408 436 419 421 q 399 417 404 426 q 392 404 394 407 l 142 0 l 25 0 q 67 65 42 25 q 124 154 93 106 q 189 254 156 203 q 253 354 222 306 q 310 443 283 403 q 351 508 336 483 z "},"Æ":{"ha":950,"x_min":22,"x_max":892,"o":"m 431 0 l 431 354 l 260 354 q 182 157 219 250 q 117 0 144 64 l 22 0 q 76 129 43 50 q 148 302 110 208 q 227 496 186 396 q 306 690 268 596 q 377 862 344 783 q 431 992 410 940 l 872 992 l 872 906 l 521 906 l 521 543 l 817 543 l 817 454 l 521 454 l 521 89 l 892 89 l 892 0 l 431 0 m 431 781 q 366 623 403 715 q 289 431 329 531 l 431 431 l 431 781 z "},"Ñ":{"ha":1129,"x_min":142,"x_max":986,"o":"m 986 992 l 986 -46 q 887 70 946 3 q 759 214 828 138 q 617 370 690 290 q 476 526 544 450 q 352 669 408 603 q 260 783 296 735 q 247 799 256 789 q 232 819 239 810 l 236 775 l 236 0 l 142 0 l 142 1038 q 240 919 182 986 q 367 778 299 853 q 508 624 436 703 q 648 470 581 544 q 774 330 715 396 q 869 215 832 264 q 881 198 872 208 q 896 178 889 188 l 892 224 l 892 992 l 986 992 m 560 1097 q 522 1128 538 1121 q 486 1136 506 1136 q 463 1133 475 1136 q 438 1123 450 1131 q 416 1101 425 1115 q 404 1067 407 1088 l 358 1069 q 372 1118 360 1097 q 401 1153 383 1139 q 439 1175 418 1168 q 481 1182 460 1182 q 538 1169 513 1182 q 585 1133 563 1157 q 623 1102 607 1110 q 658 1094 639 1094 q 681 1097 668 1094 q 707 1108 694 1100 q 728 1129 719 1115 q 740 1164 738 1143 l 786 1161 q 773 1113 785 1133 q 744 1077 761 1092 q 706 1056 726 1063 q 664 1049 685 1049 q 607 1062 632 1049 q 560 1097 582 1075 z "},"Å":{"ha":897,"x_min":21,"x_max":878,"o":"m 782 0 q 717 157 754 64 q 639 354 679 250 l 258 354 q 181 157 218 250 q 115 0 143 64 l 21 0 q 76 133 42 50 q 151 314 111 215 q 235 519 192 413 q 318 724 278 625 q 392 904 358 822 q 449 1038 426 986 q 504 904 469 986 q 579 724 539 822 q 663 519 619 625 q 747 314 707 413 q 822 133 788 215 q 878 0 856 50 l 782 0 m 435 794 q 369 635 407 729 q 290 436 331 540 l 607 436 q 528 635 565 540 q 463 794 490 729 q 456 813 460 800 q 449 838 451 826 q 442 813 446 826 q 435 794 438 800 m 344 1171 q 375 1244 344 1214 q 450 1275 406 1275 q 525 1244 494 1275 q 556 1171 556 1214 q 525 1096 556 1126 q 450 1065 494 1065 q 375 1096 406 1065 q 344 1171 344 1126 m 393 1169 q 410 1129 393 1146 q 450 1113 426 1113 q 490 1129 474 1113 q 507 1169 507 1146 q 490 1210 507 1193 q 450 1226 474 1226 q 410 1210 426 1226 q 393 1169 393 1193 z "},"Á":{"ha":897,"x_min":21,"x_max":878,"o":"m 878 0 q 822 133 856 50 q 747 314 788 215 q 663 519 707 413 q 579 724 619 625 q 504 904 539 822 q 449 1038 469 986 q 392 904 426 986 q 318 724 358 822 q 235 519 278 625 q 151 314 192 413 q 76 133 111 215 q 21 0 42 50 l 115 0 q 181 157 143 64 q 258 354 218 250 l 639 354 q 717 157 679 250 q 782 0 754 64 l 878 0 m 435 794 q 442 813 438 800 q 449 838 446 826 q 456 813 451 826 q 463 794 460 800 q 528 635 490 729 q 607 436 565 540 l 290 436 q 369 635 331 540 q 435 794 407 729 m 407 1056 l 533 1242 l 615 1242 q 542 1148 579 1194 q 467 1056 504 1101 l 407 1056 z "},"É":{"ha":851,"x_min":143,"x_max":788,"o":"m 143 0 l 143 992 l 768 992 l 768 906 l 238 906 l 238 543 l 713 543 l 713 454 l 238 454 l 238 89 l 788 89 l 788 0 l 143 0 m 408 1056 l 535 1242 l 617 1242 q 543 1148 581 1194 q 468 1056 506 1101 l 408 1056 z "},"Í":{"ha":381,"x_min":138,"x_max":346,"o":"m 142 992 l 238 992 l 238 0 l 142 0 l 142 992 m 138 1056 l 264 1242 l 346 1242 q 272 1148 310 1194 q 197 1056 235 1101 l 138 1056 z "},"Ó":{"ha":1150,"x_min":68,"x_max":1082,"o":"m 68 494 q 108 691 68 599 q 216 853 147 783 q 377 963 285 922 q 574 1003 469 1003 q 771 963 678 1003 q 933 853 864 922 q 1042 691 1001 783 q 1082 494 1082 599 q 1042 298 1082 390 q 933 137 1001 206 q 771 28 864 68 q 574 -11 678 -11 q 377 28 469 -11 q 216 137 285 68 q 108 298 147 206 q 68 494 68 390 m 163 494 q 195 333 163 408 q 283 201 228 257 q 414 112 339 144 q 574 79 489 79 q 734 112 658 79 q 866 201 810 144 q 955 333 922 257 q 988 494 988 408 q 955 656 988 581 q 866 789 922 732 q 734 878 810 846 q 574 911 658 911 q 413 878 488 911 q 283 789 339 846 q 194 656 226 732 q 163 494 163 581 m 514 1056 l 640 1242 l 722 1242 q 649 1148 686 1194 q 574 1056 611 1101 l 514 1056 z "},"Ú":{"ha":967,"x_min":131,"x_max":836,"o":"m 483 -11 q 344 13 408 -11 q 232 82 279 38 q 158 191 185 126 q 131 338 131 256 l 131 992 l 225 992 l 225 342 q 244 233 225 282 q 299 151 264 185 q 381 98 333 117 q 483 79 428 79 q 585 98 538 79 q 667 151 632 117 q 722 233 701 185 q 742 342 742 282 l 742 992 l 836 992 l 836 338 q 809 191 836 256 q 734 82 782 126 q 622 13 686 38 q 483 -11 557 -11 m 433 1056 l 560 1242 l 642 1242 q 568 1148 606 1194 q 493 1056 531 1101 l 433 1056 z "},"Ä":{"ha":897,"x_min":21,"x_max":878,"o":"m 878 0 q 822 133 856 50 q 747 314 788 215 q 663 519 707 413 q 579 724 619 625 q 504 904 539 822 q 449 1038 469 986 q 392 904 426 986 q 318 724 358 822 q 235 519 278 625 q 151 314 192 413 q 76 133 111 215 q 21 0 42 50 l 115 0 q 181 157 143 64 q 258 354 218 250 l 639 354 q 717 157 679 250 q 782 0 754 64 l 878 0 m 435 794 q 442 813 438 800 q 449 838 446 826 q 456 813 451 826 q 463 794 460 800 q 528 635 490 729 q 607 436 565 540 l 290 436 q 369 635 331 540 q 435 794 407 729 m 518 1129 q 535 1169 518 1153 q 574 1186 551 1186 q 612 1169 594 1186 q 629 1129 629 1153 q 612 1088 629 1104 q 574 1072 594 1072 q 535 1088 551 1072 q 518 1129 518 1104 m 269 1129 q 286 1169 269 1153 q 325 1186 303 1186 q 363 1169 346 1186 q 381 1129 381 1153 q 363 1088 381 1104 q 325 1072 346 1072 q 286 1088 303 1072 q 269 1129 269 1104 z "},"Ë":{"ha":851,"x_min":143,"x_max":788,"o":"m 143 0 l 143 992 l 768 992 l 768 906 l 238 906 l 238 543 l 713 543 l 713 454 l 238 454 l 238 89 l 788 89 l 788 0 l 143 0 m 540 1129 q 557 1169 540 1153 q 596 1186 574 1186 q 634 1169 617 1186 q 651 1129 651 1153 q 634 1088 651 1104 q 596 1072 617 1072 q 557 1088 574 1072 q 540 1129 540 1104 m 292 1129 q 308 1169 292 1153 q 347 1186 325 1186 q 385 1169 368 1186 q 403 1129 403 1153 q 385 1088 403 1104 q 347 1072 368 1072 q 308 1088 325 1072 q 292 1129 292 1104 z "},"Ï":{"ha":381,"x_min":13,"x_max":372,"o":"m 142 992 l 238 992 l 238 0 l 142 0 l 142 992 m 261 1129 q 278 1169 261 1153 q 317 1186 294 1186 q 355 1169 338 1186 q 372 1129 372 1153 q 355 1088 372 1104 q 317 1072 338 1072 q 278 1088 294 1072 q 261 1129 261 1104 m 13 1129 q 29 1169 13 1153 q 68 1186 46 1186 q 106 1169 89 1186 q 124 1129 124 1153 q 106 1088 124 1104 q 68 1072 89 1072 q 29 1088 46 1072 q 13 1129 13 1104 z "},"Ö":{"ha":1150,"x_min":68,"x_max":1082,"o":"m 68 494 q 108 691 68 599 q 216 853 147 783 q 377 963 285 922 q 574 1003 469 1003 q 771 963 678 1003 q 933 853 864 922 q 1042 691 1001 783 q 1082 494 1082 599 q 1042 298 1082 390 q 933 137 1001 206 q 771 28 864 68 q 574 -11 678 -11 q 377 28 469 -11 q 216 137 285 68 q 108 298 147 206 q 68 494 68 390 m 163 494 q 195 333 163 408 q 283 201 228 257 q 414 112 339 144 q 574 79 489 79 q 734 112 658 79 q 866 201 810 144 q 955 333 922 257 q 988 494 988 408 q 955 656 988 581 q 866 789 922 732 q 734 878 810 846 q 574 911 658 911 q 413 878 488 911 q 283 789 339 846 q 194 656 226 732 q 163 494 163 581 m 640 1129 q 657 1169 640 1153 q 696 1186 674 1186 q 734 1169 717 1186 q 751 1129 751 1153 q 734 1088 751 1104 q 696 1072 717 1072 q 657 1088 674 1072 q 640 1129 640 1104 m 392 1129 q 408 1169 392 1153 q 447 1186 425 1186 q 485 1169 468 1186 q 503 1129 503 1153 q 485 1088 503 1104 q 447 1072 468 1072 q 408 1088 425 1072 q 392 1129 392 1104 z "},"Ü":{"ha":967,"x_min":131,"x_max":836,"o":"m 483 -11 q 344 13 408 -11 q 232 82 279 38 q 158 191 185 126 q 131 338 131 256 l 131 992 l 225 992 l 225 342 q 244 233 225 282 q 299 151 264 185 q 381 98 333 117 q 483 79 428 79 q 585 98 538 79 q 667 151 632 117 q 722 233 701 185 q 742 342 742 282 l 742 992 l 836 992 l 836 338 q 809 191 836 256 q 734 82 782 126 q 622 13 686 38 q 483 -11 557 -11 m 567 1129 q 583 1169 567 1153 q 622 1186 600 1186 q 660 1169 643 1186 q 678 1129 678 1153 q 660 1088 678 1104 q 622 1072 643 1072 q 583 1088 600 1072 q 567 1129 567 1104 m 318 1129 q 335 1169 318 1153 q 374 1186 351 1186 q 412 1169 394 1186 q 429 1129 429 1153 q 412 1088 429 1104 q 374 1072 394 1072 q 335 1088 351 1072 q 318 1129 318 1104 z "},"À":{"ha":897,"x_min":21,"x_max":878,"o":"m 878 0 q 822 133 856 50 q 747 314 788 215 q 663 519 707 413 q 579 724 619 625 q 504 904 539 822 q 449 1038 469 986 q 392 904 426 986 q 318 724 358 822 q 235 519 278 625 q 151 314 192 413 q 76 133 111 215 q 21 0 42 50 l 115 0 q 181 157 143 64 q 258 354 218 250 l 639 354 q 717 157 679 250 q 782 0 754 64 l 878 0 m 435 794 q 442 813 438 800 q 449 838 446 826 q 456 813 451 826 q 463 794 460 800 q 528 635 490 729 q 607 436 565 540 l 290 436 q 369 635 331 540 q 435 794 407 729 m 367 1242 q 430 1148 399 1194 q 493 1056 461 1101 l 432 1056 l 283 1242 l 367 1242 z "},"È":{"ha":851,"x_min":143,"x_max":788,"o":"m 143 0 l 143 992 l 768 992 l 768 906 l 238 906 l 238 543 l 713 543 l 713 454 l 238 454 l 238 89 l 788 89 l 788 0 l 143 0 m 418 1242 q 481 1148 450 1194 q 544 1056 513 1101 l 483 1056 l 335 1242 l 418 1242 z "},"Ì":{"ha":381,"x_min":32,"x_max":242,"o":"m 142 992 l 238 992 l 238 0 l 142 0 l 142 992 m 115 1242 q 178 1148 147 1194 q 242 1056 210 1101 l 181 1056 l 32 1242 l 115 1242 z "},"Ò":{"ha":1150,"x_min":68,"x_max":1082,"o":"m 68 494 q 108 691 68 599 q 216 853 147 783 q 377 963 285 922 q 574 1003 469 1003 q 771 963 678 1003 q 933 853 864 922 q 1042 691 1001 783 q 1082 494 1082 599 q 1042 298 1082 390 q 933 137 1001 206 q 771 28 864 68 q 574 -11 678 -11 q 377 28 469 -11 q 216 137 285 68 q 108 298 147 206 q 68 494 68 390 m 163 494 q 195 333 163 408 q 283 201 228 257 q 414 112 339 144 q 574 79 489 79 q 734 112 658 79 q 866 201 810 144 q 955 333 922 257 q 988 494 988 408 q 955 656 988 581 q 866 789 922 732 q 734 878 810 846 q 574 911 658 911 q 413 878 488 911 q 283 789 339 846 q 194 656 226 732 q 163 494 163 581 m 507 1242 q 570 1148 539 1194 q 633 1056 601 1101 l 572 1056 l 424 1242 l 507 1242 z "},"Ù":{"ha":967,"x_min":131,"x_max":836,"o":"m 483 -11 q 344 13 408 -11 q 232 82 279 38 q 158 191 185 126 q 131 338 131 256 l 131 992 l 225 992 l 225 342 q 244 233 225 282 q 299 151 264 185 q 381 98 333 117 q 483 79 428 79 q 585 98 538 79 q 667 151 632 117 q 722 233 701 185 q 742 342 742 282 l 742 992 l 836 992 l 836 338 q 809 191 836 256 q 734 82 782 126 q 622 13 686 38 q 483 -11 557 -11 m 422 1242 q 485 1148 454 1194 q 549 1056 517 1101 l 488 1056 l 339 1242 l 422 1242 z "},"Ý":{"ha":883,"x_min":25,"x_max":858,"o":"m 490 346 l 490 0 l 394 0 l 394 346 q 347 427 376 376 q 282 540 317 478 q 209 669 247 601 q 136 798 171 736 q 72 910 101 860 q 25 992 43 961 l 132 992 q 193 886 157 950 q 270 751 229 822 q 352 606 311 679 q 426 471 393 532 l 443 429 l 460 471 q 535 606 494 532 q 615 751 575 679 q 690 886 654 822 q 750 992 725 950 l 858 992 l 490 346 m 401 1056 l 528 1242 l 610 1242 q 536 1148 574 1194 q 461 1056 499 1101 l 401 1056 z "},"¡":{"ha":346,"x_min":118,"x_max":229,"o":"m 132 524 l 214 524 l 214 -294 l 132 -294 l 132 524 m 174 738 q 212 721 194 738 q 229 681 229 704 q 212 639 229 654 q 174 624 194 624 q 135 639 151 624 q 118 681 118 654 q 135 721 118 704 q 174 738 151 738 z "},"Ø":{"ha":1150,"x_min":68,"x_max":1082,"o":"m 68 494 q 108 691 68 599 q 216 853 147 783 q 377 963 285 922 q 574 1003 469 1003 q 731 977 657 1003 q 868 907 806 951 q 914 960 893 935 q 953 1007 935 986 l 999 965 l 917 868 q 1038 701 993 797 q 1082 494 1082 604 q 1042 298 1082 390 q 933 137 1001 206 q 771 28 864 68 q 574 -11 678 -11 q 406 17 485 -11 q 261 96 326 46 l 169 -12 l 124 29 l 215 138 q 107 299 146 207 q 68 494 68 390 m 321 167 q 438 102 374 125 q 574 79 501 79 q 734 112 658 79 q 866 201 810 144 q 955 333 922 257 q 988 494 988 408 q 953 661 988 583 q 857 797 918 739 l 321 167 m 163 494 q 192 338 163 411 q 275 208 222 265 l 808 836 q 699 892 758 872 q 574 911 640 911 q 413 878 488 911 q 283 789 339 846 q 194 656 226 732 q 163 494 163 581 z "},"¿":{"ha":663,"x_min":65,"x_max":613,"o":"m 542 -47 l 613 -72 q 581 -142 601 -106 q 527 -208 560 -178 q 449 -257 494 -237 q 340 -276 403 -276 q 232 -255 282 -276 q 145 -196 182 -233 q 87 -109 108 -158 q 65 -3 65 -60 q 102 131 65 74 q 203 236 139 189 q 248 267 225 253 q 290 299 271 281 q 320 343 308 317 q 332 410 332 369 l 332 519 l 414 519 l 414 383 q 399 311 414 339 q 360 263 385 283 q 305 222 336 242 q 242 176 274 203 q 171 94 193 139 q 149 -3 149 49 q 163 -80 149 -44 q 203 -142 178 -115 q 263 -183 228 -168 q 340 -197 299 -197 q 469 -158 421 -197 q 542 -47 518 -118 m 374 736 q 412 720 394 736 q 429 679 429 704 q 412 639 429 656 q 374 622 394 622 q 336 639 354 622 q 318 679 318 656 q 336 720 318 704 q 374 736 354 736 z "},"Ã":{"ha":897,"x_min":21,"x_max":878,"o":"m 878 0 q 822 133 856 50 q 747 314 788 215 q 663 519 707 413 q 579 724 619 625 q 504 904 539 822 q 449 1038 469 986 q 392 904 426 986 q 318 724 358 822 q 235 519 278 625 q 151 314 192 413 q 76 133 111 215 q 21 0 42 50 l 115 0 q 181 157 143 64 q 258 354 218 250 l 639 354 q 717 157 679 250 q 782 0 754 64 l 878 0 m 435 794 q 442 813 438 800 q 449 838 446 826 q 456 813 451 826 q 463 794 460 800 q 528 635 490 729 q 607 436 565 540 l 290 436 q 369 635 331 540 q 435 794 407 729 m 438 1101 q 399 1133 415 1125 q 364 1140 383 1140 q 340 1138 353 1140 q 315 1127 328 1135 q 294 1106 303 1119 q 282 1071 285 1092 l 236 1074 q 249 1122 238 1101 q 278 1158 261 1143 q 317 1179 296 1172 q 358 1186 338 1186 q 415 1174 390 1186 q 463 1138 440 1161 q 501 1106 485 1114 q 536 1099 517 1099 q 559 1101 546 1099 q 585 1112 572 1104 q 606 1133 597 1119 q 618 1168 615 1147 l 664 1165 q 651 1117 663 1138 q 622 1081 639 1096 q 583 1060 604 1067 q 542 1053 563 1053 q 485 1066 510 1053 q 438 1101 460 1079 z "},"Õ":{"ha":1150,"x_min":68,"x_max":1082,"o":"m 68 494 q 108 691 68 599 q 216 853 147 783 q 377 963 285 922 q 574 1003 469 1003 q 771 963 678 1003 q 933 853 864 922 q 1042 691 1001 783 q 1082 494 1082 599 q 1042 298 1082 390 q 933 137 1001 206 q 771 28 864 68 q 574 -11 678 -11 q 377 28 469 -11 q 216 137 285 68 q 108 298 147 206 q 68 494 68 390 m 163 494 q 195 333 163 408 q 283 201 228 257 q 414 112 339 144 q 574 79 489 79 q 734 112 658 79 q 866 201 810 144 q 955 333 922 257 q 988 494 988 408 q 955 656 988 581 q 866 789 922 732 q 734 878 810 846 q 574 911 658 911 q 413 878 488 911 q 283 789 339 846 q 194 656 226 732 q 163 494 163 581 m 553 1144 q 515 1176 531 1168 q 479 1183 499 1183 q 456 1181 468 1183 q 431 1170 443 1178 q 409 1149 418 1163 q 397 1114 400 1135 l 351 1117 q 365 1165 353 1144 q 394 1201 376 1186 q 432 1222 411 1215 q 474 1229 453 1229 q 531 1217 506 1229 q 578 1181 556 1204 q 616 1149 600 1157 q 651 1142 632 1142 q 674 1144 661 1142 q 700 1155 688 1147 q 722 1176 713 1163 q 733 1211 731 1190 l 779 1208 q 766 1160 778 1181 q 737 1124 754 1139 q 699 1103 719 1110 q 657 1096 678 1096 q 600 1109 625 1096 q 553 1144 575 1122 z "},"â":{"ha":735,"x_min":54,"x_max":640,"o":"m 54 275 q 77 388 54 335 q 140 482 100 442 q 232 545 179 522 q 344 568 285 568 q 422 557 386 568 q 487 527 458 546 q 535 485 515 508 q 564 440 554 463 l 569 556 l 640 556 l 640 0 l 564 0 l 564 57 q 565 86 564 72 q 565 113 565 100 q 536 67 556 89 q 488 28 517 46 q 424 -1 460 10 q 344 -11 388 -11 q 228 12 282 -11 q 137 74 175 35 q 76 165 99 113 q 54 275 54 217 m 131 279 q 147 194 131 233 q 193 126 164 156 q 262 81 222 97 q 347 64 301 64 q 433 81 393 64 q 501 126 472 97 q 547 194 531 156 q 564 279 564 233 q 547 363 564 324 q 501 431 531 401 q 433 476 472 460 q 347 493 393 493 q 262 476 301 493 q 193 431 222 460 q 147 364 164 403 q 131 279 131 325 m 372 922 q 456 796 414 860 q 540 669 497 732 l 479 669 q 454 706 468 686 q 426 746 440 725 q 397 787 411 767 q 372 822 383 807 q 347 787 361 807 q 318 746 333 767 q 289 706 303 725 q 264 669 275 686 l 204 669 l 372 922 z "},"ê":{"ha":633,"x_min":54,"x_max":603,"o":"m 554 67 q 460 10 514 31 q 347 -11 406 -11 q 233 12 286 -11 q 140 74 179 35 q 77 165 100 113 q 54 278 54 218 q 77 391 54 338 q 140 484 100 444 q 232 547 179 524 q 344 569 285 569 q 503 514 436 569 q 603 372 571 458 q 498 331 556 354 q 380 284 440 308 q 260 235 319 260 q 149 190 200 211 q 226 99 174 133 q 344 64 278 64 q 429 79 389 64 q 497 121 469 94 l 554 67 m 507 392 q 440 466 483 439 q 344 493 397 493 q 261 476 300 493 q 193 429 222 458 q 147 362 164 400 q 131 281 131 324 q 135 242 131 258 q 226 279 178 260 q 324 319 275 299 q 419 358 372 339 q 507 392 467 376 m 326 924 q 410 797 368 861 q 494 671 451 733 l 433 671 q 408 707 422 688 q 380 747 394 726 q 351 788 365 768 q 326 824 338 808 q 301 788 315 808 q 272 747 288 768 q 243 707 257 726 q 218 671 229 688 l 158 671 l 326 924 z "},"î":{"ha":265,"x_min":-33,"x_max":303,"o":"m 171 0 l 94 0 l 94 556 l 171 556 l 171 0 m 135 924 q 218 797 176 861 q 303 671 260 733 l 242 671 q 217 707 231 688 q 188 747 203 726 q 160 788 174 768 q 135 824 146 808 q 110 788 124 808 q 81 747 96 768 q 51 707 65 726 q 26 671 38 688 l -33 671 l 135 924 z "},"ô":{"ha":692,"x_min":54,"x_max":638,"o":"m 54 278 q 77 391 54 338 q 140 484 100 444 q 233 547 179 524 q 347 569 286 569 q 462 547 408 569 q 554 484 515 524 q 615 391 593 444 q 638 278 638 338 q 615 165 638 218 q 553 74 593 113 q 461 12 514 35 q 346 -11 408 -11 q 232 10 285 -11 q 140 71 179 32 q 77 163 100 110 q 54 278 54 215 m 131 278 q 147 194 131 233 q 193 126 164 156 q 261 81 222 97 q 344 64 300 64 q 428 81 389 64 q 497 126 468 97 q 543 194 526 156 q 560 278 560 233 q 543 362 560 322 q 497 431 526 401 q 428 476 468 460 q 344 493 389 493 q 261 476 300 493 q 193 431 222 460 q 147 362 164 401 q 131 278 131 322 m 346 924 q 429 797 388 861 q 514 671 471 733 l 453 671 q 428 707 442 688 q 399 747 414 726 q 371 788 385 768 q 346 824 357 808 q 321 788 335 808 q 292 747 307 768 q 263 707 276 726 q 238 671 249 688 l 178 671 l 346 924 z "},"û":{"ha":669,"x_min":89,"x_max":575,"o":"m 575 -7 l 511 -7 l 503 143 q 414 31 474 74 q 269 -12 354 -12 q 140 33 188 -12 q 89 154 92 79 l 89 556 l 165 556 l 165 181 q 199 100 168 133 q 290 64 229 67 q 372 78 333 64 q 438 119 410 93 q 482 181 465 144 q 499 260 499 217 l 499 556 l 575 556 l 575 -7 m 357 924 q 440 797 399 861 q 525 671 482 733 l 464 671 q 439 707 453 688 q 410 747 425 726 q 382 788 396 768 q 357 824 368 808 q 332 788 346 808 q 303 747 318 768 q 274 707 288 726 q 249 671 260 688 l 189 671 l 357 924 z "},"ã":{"ha":735,"x_min":54,"x_max":640,"o":"m 54 275 q 77 388 54 335 q 140 482 100 442 q 232 545 179 522 q 344 568 285 568 q 422 557 386 568 q 487 527 458 546 q 535 485 515 508 q 564 440 554 463 l 569 556 l 640 556 l 640 0 l 564 0 l 564 57 q 565 86 564 72 q 565 113 565 100 q 536 67 556 89 q 488 28 517 46 q 424 -1 460 10 q 344 -11 388 -11 q 228 12 282 -11 q 137 74 175 35 q 76 165 99 113 q 54 275 54 217 m 131 279 q 147 194 131 233 q 193 126 164 156 q 262 81 222 97 q 347 64 301 64 q 433 81 393 64 q 501 126 472 97 q 547 194 531 156 q 564 279 564 233 q 547 363 564 324 q 501 431 531 401 q 433 476 472 460 q 347 493 393 493 q 262 476 301 493 q 193 431 222 460 q 147 364 164 403 q 131 279 131 325 m 364 682 q 326 713 342 706 q 290 721 310 721 q 267 718 279 721 q 242 708 254 715 q 220 686 229 700 q 208 651 211 672 l 163 654 q 176 703 164 682 q 205 738 188 724 q 243 760 222 753 q 285 767 264 767 q 342 754 317 767 q 389 718 367 742 q 427 687 411 694 q 463 679 443 679 q 485 682 472 679 q 511 692 499 685 q 533 714 524 700 q 544 749 542 728 l 590 746 q 577 697 589 718 q 548 662 565 676 q 510 640 531 647 q 468 633 489 633 q 411 647 436 633 q 364 682 386 660 z "},"`":{"ha":281,"x_min":-53,"x_max":157,"o":"m 31 857 q 94 763 63 810 q 157 671 125 717 l 96 671 l -53 857 l 31 857 z "},"^":{"ha":535,"x_min":100,"x_max":436,"o":"m 268 924 q 351 797 310 861 q 436 671 393 733 l 375 671 q 350 707 364 688 q 322 747 336 726 q 293 788 307 768 q 268 824 279 808 q 243 788 257 808 q 214 747 229 768 q 185 707 199 726 q 160 671 171 688 l 100 671 l 268 924 z "},"õ":{"ha":692,"x_min":54,"x_max":638,"o":"m 54 278 q 77 391 54 338 q 140 484 100 444 q 233 547 179 524 q 347 569 286 569 q 462 547 408 569 q 554 484 515 524 q 615 391 593 444 q 638 278 638 338 q 615 165 638 218 q 553 74 593 113 q 461 12 514 35 q 346 -11 408 -11 q 232 10 285 -11 q 140 71 179 32 q 77 163 100 110 q 54 278 54 215 m 131 278 q 147 194 131 233 q 193 126 164 156 q 261 81 222 97 q 344 64 300 64 q 428 81 389 64 q 497 126 468 97 q 543 194 526 156 q 560 278 560 233 q 543 362 560 322 q 497 431 526 401 q 428 476 468 460 q 344 493 389 493 q 261 476 300 493 q 193 431 222 460 q 147 362 164 401 q 131 278 131 322 m 342 682 q 303 713 319 706 q 268 721 288 721 q 244 718 257 721 q 219 708 232 715 q 198 686 207 700 q 186 651 189 672 l 140 654 q 153 703 142 682 q 183 738 165 724 q 221 760 200 753 q 263 767 242 767 q 319 754 294 767 q 367 718 344 742 q 405 687 389 694 q 440 679 421 679 q 463 682 450 679 q 489 692 476 685 q 510 714 501 700 q 522 749 519 728 l 568 746 q 555 697 567 718 q 526 662 543 676 q 488 640 508 647 q 446 633 467 633 q 389 647 414 633 q 342 682 364 660 z "},"'":{"ha":282,"x_min":100,"x_max":185,"o":"m 100 661 l 100 1008 l 185 1008 l 179 661 l 100 661 z "},"_":{"ha":738,"x_min":89,"x_max":649,"o":"m 649 0 l 89 0 l 89 79 l 649 79 l 649 0 z "},"[":{"ha":431,"x_min":132,"x_max":386,"o":"m 132 -208 l 132 1044 l 386 1044 l 386 965 l 214 965 l 214 -129 l 386 -129 l 386 -208 l 132 -208 z "},"]":{"ha":431,"x_min":44,"x_max":299,"o":"m 299 1044 l 299 -208 l 44 -208 l 44 -129 l 217 -129 l 217 965 l 44 965 l 44 1044 l 299 1044 z "},"°":{"ha":411,"x_min":76,"x_max":335,"o":"m 207 708 q 260 730 239 708 q 282 783 282 751 q 260 837 282 815 q 207 858 239 858 q 153 837 175 858 q 132 783 132 815 q 153 730 132 751 q 207 708 175 708 m 76 783 q 114 874 76 838 q 207 911 151 911 q 257 901 233 911 q 298 874 281 892 q 325 833 315 857 q 335 783 335 810 q 325 733 335 756 q 298 692 315 710 q 257 665 281 675 q 207 656 233 656 q 114 692 151 656 q 76 783 76 729 z "},"ç":{"ha":575,"x_min":54,"x_max":532,"o":"m 483 110 l 531 53 q 447 6 493 22 q 349 -11 400 -11 q 354 -42 349 -31 q 368 -60 360 -53 q 387 -74 376 -68 q 406 -85 397 -79 q 449 -135 436 -107 q 461 -192 461 -162 q 424 -296 461 -256 q 325 -336 388 -336 q 245 -312 282 -336 q 192 -240 208 -289 q 240 -217 218 -226 q 268 -258 247 -242 q 319 -274 289 -274 q 378 -249 356 -274 q 400 -187 400 -224 q 384 -138 400 -156 q 348 -107 368 -121 q 312 -76 328 -93 q 296 -28 296 -60 l 296 -7 q 200 27 244 1 q 124 90 156 53 q 73 176 92 128 q 54 278 54 224 q 77 391 54 338 q 140 483 100 444 q 233 545 179 522 q 347 568 286 568 q 447 551 400 568 q 532 504 494 535 q 508 476 521 489 q 483 447 496 463 q 347 493 426 493 q 262 476 301 493 q 193 431 222 460 q 147 363 164 403 q 131 278 131 324 q 147 194 131 233 q 193 126 164 156 q 262 81 222 97 q 347 64 301 64 q 483 110 426 64 z "},"Ç":{"ha":896,"x_min":69,"x_max":858,"o":"m 858 67 q 748 15 817 39 q 588 -11 679 -8 q 593 -42 588 -31 q 607 -60 599 -53 q 626 -74 615 -68 q 644 -85 636 -79 q 688 -135 675 -107 q 700 -192 700 -162 q 663 -296 700 -256 q 564 -336 626 -336 q 484 -312 521 -336 q 431 -240 447 -289 q 479 -217 457 -226 q 507 -258 486 -242 q 558 -274 528 -274 q 617 -249 594 -274 q 639 -187 639 -224 q 623 -138 639 -156 q 587 -107 607 -121 q 551 -76 567 -93 q 535 -28 535 -60 l 535 -10 q 342 38 428 -4 q 195 149 256 81 q 102 304 135 217 q 69 489 69 392 q 110 693 69 599 q 219 856 150 788 q 382 964 289 925 q 581 1003 475 1003 q 656 998 618 1003 q 729 983 694 993 q 793 961 764 974 q 843 933 822 949 q 832 915 836 922 q 824 901 828 908 q 814 883 819 893 q 800 858 808 874 q 697 900 756 886 q 583 914 638 914 q 419 881 496 914 q 287 790 343 847 q 198 656 231 732 q 165 496 165 581 q 194 341 165 415 q 278 210 224 267 q 407 120 332 154 q 574 86 482 86 q 651 92 614 86 q 721 109 689 99 q 777 131 753 119 q 815 153 801 142 l 858 67 z "},"–":{"ha":606,"x_min":92,"x_max":513,"o":"m 92 240 l 92 319 l 513 319 l 513 240 l 92 240 z "},"—":{"ha":888,"x_min":92,"x_max":794,"o":"m 92 240 l 92 319 l 794 319 l 794 240 l 92 240 z "},"¸":{"ha":633,"x_min":158,"x_max":428,"o":"m 263 0 l 315 0 l 315 -10 q 321 -41 315 -29 q 335 -60 326 -53 q 353 -74 343 -68 q 372 -85 364 -79 q 415 -135 403 -107 q 428 -192 428 -162 q 391 -296 428 -256 q 292 -336 354 -336 q 212 -312 249 -336 q 158 -240 175 -289 q 207 -217 185 -226 q 235 -258 214 -242 q 286 -274 256 -274 q 344 -249 322 -274 q 367 -187 367 -224 q 351 -137 367 -156 q 315 -106 335 -119 q 278 -78 294 -93 q 263 -39 263 -64 l 263 0 z "},"´":{"ha":356,"x_min":140,"x_max":349,"o":"m 140 671 l 267 857 l 349 857 q 275 763 313 810 q 200 671 238 717 l 140 671 z "},"¨":{"ha":518,"x_min":86,"x_max":446,"o":"m 335 718 q 351 758 335 742 q 390 775 368 775 q 428 758 411 775 q 446 718 446 742 q 428 677 446 693 q 390 661 411 661 q 351 677 368 661 q 335 718 335 693 m 86 718 q 103 758 86 742 q 142 775 119 775 q 180 758 163 775 q 197 718 197 742 q 180 677 197 693 q 142 661 163 661 q 103 677 119 661 q 86 718 86 693 z "},"Ð":{"ha":1000,"x_min":61,"x_max":929,"o":"m 61 525 l 151 525 l 151 992 l 382 992 q 636 946 532 992 q 806 828 740 900 q 900 666 871 756 q 929 489 929 576 q 889 286 929 376 q 781 132 849 196 q 622 34 713 68 q 431 0 532 0 l 151 0 l 151 458 l 61 458 l 61 525 m 421 90 q 583 118 507 90 q 715 198 658 146 q 803 325 771 250 q 835 494 835 400 q 805 655 835 581 q 719 783 775 729 q 586 869 664 838 q 411 900 508 900 l 247 900 l 247 525 l 467 525 l 467 458 l 247 458 l 247 90 l 421 90 z "},"þ":{"ha":736,"x_min":94,"x_max":681,"o":"m 681 278 q 659 164 681 217 q 599 72 638 111 q 507 11 560 33 q 392 -11 454 -11 q 253 25 314 -11 q 169 114 193 61 q 170 87 169 100 q 171 58 171 74 l 171 -267 l 94 -267 l 94 1064 l 171 1064 l 171 439 q 256 529 197 490 q 394 568 314 568 q 509 547 457 568 q 599 487 561 525 q 659 395 638 449 q 681 278 681 342 m 599 278 q 583 363 599 324 q 540 431 568 403 q 472 476 511 460 q 388 493 433 493 q 302 476 342 493 q 233 431 263 460 q 188 364 204 403 q 171 279 171 325 q 188 194 171 233 q 233 126 204 156 q 302 81 263 97 q 388 64 342 64 q 472 81 433 64 q 540 126 511 97 q 583 194 568 156 q 599 278 599 233 z "},"ð":{"ha":697,"x_min":54,"x_max":639,"o":"m 54 278 q 77 391 54 338 q 140 484 100 444 q 233 547 179 524 q 347 569 286 569 q 435 556 393 569 q 511 518 476 542 q 444 675 489 589 q 324 853 399 761 l 231 754 l 188 794 q 286 901 235 849 q 219 971 254 938 q 149 1033 185 1004 l 193 1076 q 263 1017 229 1049 q 331 950 297 986 q 374 997 353 974 q 418 1046 396 1021 l 461 1007 l 368 904 q 472 761 422 838 q 558 603 521 685 q 617 441 594 522 q 639 283 639 360 q 638 273 639 278 q 638 265 638 268 q 612 157 635 207 q 550 69 589 107 q 458 10 511 32 q 346 -11 406 -11 q 232 10 285 -11 q 140 71 179 32 q 77 163 100 110 q 54 278 54 215 m 131 278 q 147 194 131 233 q 193 126 164 156 q 261 81 222 97 q 344 64 300 64 q 428 81 389 64 q 497 126 468 97 q 543 194 526 156 q 560 278 560 233 q 543 362 560 322 q 497 431 526 401 q 428 476 468 460 q 344 493 389 493 q 261 476 300 493 q 193 431 222 460 q 147 362 164 401 q 131 278 131 322 z "},"Þ":{"ha":750,"x_min":143,"x_max":707,"o":"m 143 0 l 143 981 l 238 981 l 238 788 l 383 788 q 504 770 446 788 q 608 717 563 753 q 680 626 653 681 q 707 497 707 572 q 689 385 707 440 q 633 288 671 331 q 533 219 594 246 q 386 193 472 193 l 238 193 l 238 0 l 143 0 m 238 283 l 385 283 q 496 305 451 283 q 566 359 540 326 q 602 428 592 392 q 613 496 613 465 q 598 570 613 533 q 556 635 583 607 q 485 681 528 664 q 386 699 442 699 l 238 699 l 238 283 z "},"Â":{"ha":897,"x_min":21,"x_max":878,"o":"m 878 0 q 822 133 856 50 q 747 314 788 215 q 663 519 707 413 q 579 724 619 625 q 504 904 539 822 q 449 1038 469 986 q 392 904 426 986 q 318 724 358 822 q 235 519 278 625 q 151 314 192 413 q 76 133 111 215 q 21 0 42 50 l 115 0 q 181 157 143 64 q 258 354 218 250 l 639 354 q 717 157 679 250 q 782 0 754 64 l 878 0 m 435 794 q 442 813 438 800 q 449 838 446 826 q 456 813 451 826 q 463 794 460 800 q 528 635 490 729 q 607 436 565 540 l 290 436 q 369 635 331 540 q 435 794 407 729 m 485 1308 q 568 1182 526 1246 q 653 1056 610 1118 l 592 1056 q 567 1092 581 1072 q 538 1132 553 1111 q 510 1173 524 1153 q 485 1208 496 1193 q 460 1173 474 1193 q 431 1132 446 1153 q 401 1092 415 1111 q 376 1056 388 1072 l 317 1056 l 485 1308 z "},"Ê":{"ha":851,"x_min":143,"x_max":788,"o":"m 143 0 l 143 992 l 768 992 l 768 906 l 238 906 l 238 543 l 713 543 l 713 454 l 238 454 l 238 89 l 788 89 l 788 0 l 143 0 m 467 1308 q 550 1182 508 1246 q 635 1056 592 1118 l 574 1056 q 549 1092 563 1072 q 520 1132 535 1111 q 492 1173 506 1153 q 467 1208 478 1193 q 442 1173 456 1193 q 413 1132 428 1153 q 383 1092 397 1111 q 358 1056 369 1072 l 299 1056 l 467 1308 z "},"Î":{"ha":381,"x_min":24,"x_max":360,"o":"m 142 992 l 238 992 l 238 0 l 142 0 l 142 992 m 192 1308 q 275 1182 233 1246 q 360 1056 317 1118 l 299 1056 q 274 1092 288 1072 q 245 1132 260 1111 q 217 1173 231 1153 q 192 1208 203 1193 q 167 1173 181 1193 q 138 1132 153 1153 q 108 1092 122 1111 q 83 1056 94 1072 l 24 1056 l 192 1308 z "},"Ô":{"ha":1150,"x_min":68,"x_max":1082,"o":"m 68 494 q 108 691 68 599 q 216 853 147 783 q 377 963 285 922 q 574 1003 469 1003 q 771 963 678 1003 q 933 853 864 922 q 1042 691 1001 783 q 1082 494 1082 599 q 1042 298 1082 390 q 933 137 1001 206 q 771 28 864 68 q 574 -11 678 -11 q 377 28 469 -11 q 216 137 285 68 q 108 298 147 206 q 68 494 68 390 m 163 494 q 195 333 163 408 q 283 201 228 257 q 414 112 339 144 q 574 79 489 79 q 734 112 658 79 q 866 201 810 144 q 955 333 922 257 q 988 494 988 408 q 955 656 988 581 q 866 789 922 732 q 734 878 810 846 q 574 911 658 911 q 413 878 488 911 q 283 789 339 846 q 194 656 226 732 q 163 494 163 581 m 571 1308 q 654 1182 613 1246 q 739 1056 696 1118 l 678 1056 q 653 1092 667 1072 q 624 1132 639 1111 q 596 1173 610 1153 q 571 1208 582 1193 q 546 1173 560 1193 q 517 1132 532 1153 q 488 1092 501 1111 q 463 1056 474 1072 l 403 1056 l 571 1308 z "},"Û":{"ha":967,"x_min":131,"x_max":836,"o":"m 483 -11 q 344 13 408 -11 q 232 82 279 38 q 158 191 185 126 q 131 338 131 256 l 131 992 l 225 992 l 225 342 q 244 233 225 282 q 299 151 264 185 q 381 98 333 117 q 483 79 428 79 q 585 98 538 79 q 667 151 632 117 q 722 233 701 185 q 742 342 742 282 l 742 992 l 836 992 l 836 338 q 809 191 836 256 q 734 82 782 126 q 622 13 686 38 q 483 -11 557 -11 m 493 1326 q 576 1200 535 1264 q 661 1074 618 1136 l 600 1074 q 575 1110 589 1090 q 547 1150 561 1129 q 518 1191 532 1171 q 493 1226 504 1211 q 468 1191 482 1211 q 439 1150 454 1171 q 410 1110 424 1129 q 385 1074 396 1090 l 325 1074 l 493 1326 z "},"±":{"ha":724,"x_min":110,"x_max":614,"o":"m 321 296 l 321 508 l 110 508 l 110 588 l 321 588 l 321 799 l 403 799 l 403 588 l 614 588 l 614 508 l 403 508 l 403 296 l 321 296 m 614 147 l 110 147 l 110 226 l 614 226 l 614 147 z "},"$":{"ha":767,"x_min":53,"x_max":707,"o":"m 665 940 l 631 864 q 524 897 582 883 q 411 911 465 910 l 411 574 q 515 531 463 554 q 611 475 568 508 q 681 394 654 442 q 707 275 707 346 q 626 78 707 153 q 411 -8 546 4 l 411 -94 l 353 -94 l 353 -11 q 247 0 294 -11 q 160 26 199 11 q 95 56 122 40 q 53 81 68 71 l 96 164 q 215 108 144 132 q 353 82 285 83 l 353 503 q 259 540 304 521 q 178 588 214 560 q 122 653 143 615 q 100 743 100 690 q 117 831 100 789 q 167 908 135 874 q 247 965 200 942 q 353 994 293 988 l 353 1083 l 411 1083 l 411 997 q 488 990 449 996 q 562 974 528 983 q 623 956 596 965 q 665 940 650 947 m 614 276 q 597 349 614 318 q 553 405 581 381 q 488 447 525 429 q 411 481 451 465 l 411 86 q 482 106 446 92 q 547 142 518 119 q 595 199 576 165 q 614 276 614 232 m 194 751 q 207 698 194 721 q 240 656 219 675 q 290 623 261 638 q 353 596 319 608 l 353 906 q 236 850 278 893 q 194 751 194 807 z "},"¢":{"ha":596,"x_min":56,"x_max":533,"o":"m 485 110 l 532 53 q 451 7 496 24 q 356 -11 406 -10 l 356 -94 l 297 -94 l 297 -7 q 201 27 246 1 q 125 90 157 53 q 74 176 93 128 q 56 278 56 224 q 74 380 56 332 q 125 466 93 428 q 201 530 157 504 q 297 564 246 556 l 297 646 l 356 646 l 356 568 q 452 550 407 567 q 533 504 497 533 q 510 476 522 489 q 485 447 497 463 q 356 493 431 490 l 356 64 q 485 110 431 65 m 132 278 q 178 143 132 200 q 297 69 224 86 l 297 488 q 178 414 224 471 q 132 278 132 357 z "},"•":{"ha":524,"x_min":115,"x_max":408,"o":"m 115 419 q 126 477 115 450 q 158 524 138 504 q 204 556 178 544 q 261 568 231 568 q 319 556 292 568 q 365 524 346 544 q 397 477 385 504 q 408 419 408 450 q 397 363 408 389 q 365 317 385 336 q 319 286 346 297 q 261 275 292 275 q 204 286 231 275 q 158 317 178 297 q 126 363 138 336 q 115 419 115 389 z "},"“":{"ha":401,"x_min":69,"x_max":328,"o":"m 183 826 l 143 796 q 86 885 103 833 q 81 996 69 938 l 136 986 q 140 896 126 938 q 183 826 154 854 m 328 826 q 289 796 310 811 q 232 885 249 833 q 226 996 215 938 l 282 986 q 285 896 272 938 q 328 826 299 854 z "},"”":{"ha":403,"x_min":74,"x_max":333,"o":"m 258 796 l 219 826 q 262 896 249 854 q 265 986 275 938 l 322 996 q 316 885 333 938 q 258 796 299 833 m 114 796 l 74 826 q 117 896 104 854 q 121 986 131 938 l 176 996 q 171 885 188 938 q 114 796 154 833 z "},"‘":{"ha":257,"x_min":69,"x_max":183,"o":"m 183 826 l 144 796 q 87 885 104 833 q 81 996 69 938 l 138 986 q 141 896 128 938 q 183 826 154 854 z "},"„":{"ha":417,"x_min":63,"x_max":321,"o":"m 247 -71 l 207 -40 q 251 29 238 -12 q 254 119 264 71 l 310 129 q 304 19 321 71 q 247 -71 288 -33 m 101 -71 q 63 -40 81 -56 q 105 29 92 -12 q 108 119 118 71 l 164 129 q 158 19 175 71 q 101 -71 142 -33 z "},"‚":{"ha":271,"x_min":63,"x_max":175,"o":"m 101 -71 q 63 -40 81 -56 q 105 29 92 -12 q 108 119 118 71 l 164 129 q 158 19 175 71 q 101 -71 142 -33 z "},"›":{"ha":389,"x_min":89,"x_max":328,"o":"m 89 178 q 122 214 103 193 q 159 257 140 235 q 197 299 178 279 q 231 335 215 319 q 197 370 215 350 q 159 412 178 390 q 122 453 140 433 q 89 489 103 474 l 89 582 q 140 531 107 565 q 208 458 172 496 q 277 386 244 421 q 328 335 310 351 l 89 86 l 89 178 z "},"«":{"ha":629,"x_min":61,"x_max":540,"o":"m 540 86 l 300 335 q 351 386 318 351 q 419 458 383 421 q 489 531 456 496 q 540 582 522 565 l 540 490 q 506 455 525 475 q 469 413 488 435 q 431 370 450 390 q 399 335 413 350 q 431 299 413 319 q 469 257 450 279 q 506 214 488 235 q 540 178 525 193 l 540 86 m 300 86 l 61 335 q 112 386 79 351 q 181 458 144 421 q 249 531 217 496 q 300 582 282 565 l 300 489 q 267 453 285 474 q 230 412 249 433 q 192 370 211 390 q 158 335 174 350 q 192 299 174 319 q 230 257 211 279 q 267 214 249 235 q 300 178 285 193 l 300 86 z "},"»":{"ha":629,"x_min":89,"x_max":568,"o":"m 89 178 q 123 214 104 193 q 160 257 142 235 q 197 299 179 279 q 231 335 215 319 q 197 370 215 350 q 160 413 179 390 q 123 455 142 435 q 89 490 104 475 l 89 582 q 140 531 107 565 q 210 458 174 496 q 278 386 246 421 q 329 335 311 351 l 89 86 l 89 178 m 329 178 q 362 214 343 193 q 399 257 381 235 q 437 299 418 279 q 471 335 456 319 q 437 370 456 350 q 399 412 418 390 q 362 453 381 433 q 329 489 343 474 l 329 582 q 380 531 347 565 q 449 458 413 496 q 517 386 485 421 q 568 335 550 351 l 329 86 l 329 178 z "},"¥":{"ha":919,"x_min":43,"x_max":876,"o":"m 508 346 l 508 196 l 692 196 l 692 139 l 508 139 l 508 0 l 413 0 l 413 139 l 229 139 l 229 196 l 413 196 l 413 346 l 400 365 l 229 365 l 229 422 l 367 422 q 314 515 343 464 q 253 620 285 565 q 192 731 222 675 q 133 835 161 786 q 81 926 104 885 q 43 992 58 967 l 150 992 q 211 886 175 950 q 288 751 247 822 q 370 606 329 679 q 444 471 411 532 l 461 429 l 478 471 q 553 606 513 532 q 633 751 593 679 q 708 886 672 822 q 768 992 743 950 l 876 992 l 551 422 l 692 422 l 692 365 l 519 365 l 508 346 z "},"©":{"ha":897,"x_min":90,"x_max":807,"o":"m 447 192 q 575 216 515 192 q 678 284 635 240 q 748 387 722 328 q 774 515 774 446 q 748 646 774 586 q 678 749 722 706 q 575 818 635 793 q 447 843 515 843 q 322 818 381 843 q 219 749 263 793 q 149 646 175 706 q 124 515 124 586 q 149 387 124 446 q 219 284 175 328 q 322 216 263 240 q 447 192 381 192 m 449 160 q 308 187 374 160 q 194 262 243 214 q 118 375 146 310 q 90 517 90 440 q 118 660 90 594 q 194 773 146 725 q 308 848 243 821 q 449 875 374 875 q 589 848 524 875 q 703 773 654 821 q 779 660 751 725 q 807 517 807 594 q 779 375 807 440 q 703 262 751 310 q 589 187 654 214 q 449 160 524 160 m 586 326 q 533 302 567 314 q 456 290 500 290 q 363 308 404 290 q 291 358 321 326 q 245 430 261 389 q 229 517 229 471 q 247 609 229 567 q 297 683 265 651 q 371 732 329 714 q 461 750 413 750 q 528 741 496 750 q 579 718 560 732 q 570 703 572 708 q 560 685 568 699 q 513 703 540 697 q 463 710 486 710 q 388 694 422 710 q 328 653 353 679 q 288 593 303 628 q 274 521 274 558 q 287 450 274 483 q 324 391 300 417 q 382 350 349 365 q 457 335 415 335 q 524 345 493 335 q 567 365 554 356 l 586 326 z "},"®":{"ha":897,"x_min":90,"x_max":807,"o":"m 449 160 q 308 187 374 160 q 194 262 243 214 q 118 375 146 310 q 90 517 90 440 q 118 660 90 594 q 194 773 146 725 q 308 848 243 821 q 449 875 374 875 q 589 848 524 875 q 703 773 654 821 q 779 660 751 725 q 807 517 807 594 q 779 375 807 440 q 703 262 751 310 q 589 187 654 214 q 449 160 524 160 m 447 192 q 575 216 515 192 q 678 284 635 240 q 748 387 722 328 q 774 515 774 446 q 748 646 774 586 q 678 749 722 706 q 575 818 635 793 q 447 843 515 843 q 322 818 381 843 q 219 749 263 793 q 149 646 175 706 q 124 515 124 586 q 149 387 124 446 q 219 284 175 328 q 322 216 263 240 q 447 192 381 192 m 328 292 l 328 761 l 442 761 q 499 753 471 761 q 547 727 526 744 q 581 684 568 710 q 594 624 594 658 q 576 548 594 583 q 518 493 558 513 q 544 450 526 478 q 580 392 561 422 q 616 333 599 361 q 642 292 633 306 l 588 292 q 565 328 581 303 q 533 381 550 353 q 500 436 517 408 q 472 481 483 464 q 458 479 465 479 q 443 479 450 479 l 372 479 l 372 292 l 328 292 m 372 522 l 442 522 q 494 533 474 522 q 528 558 515 543 q 545 591 540 574 q 550 624 550 608 q 523 689 550 660 q 443 718 496 718 l 372 718 l 372 522 z "},"÷":{"ha":700,"x_min":97,"x_max":601,"o":"m 601 290 l 97 290 l 97 369 l 601 369 l 601 290 m 297 522 q 315 563 297 546 q 354 579 332 579 q 392 563 375 579 q 410 522 410 546 q 392 481 410 497 q 354 465 375 465 q 315 481 332 465 q 297 522 297 497 m 297 139 q 315 179 297 163 q 354 196 332 196 q 392 179 375 196 q 410 139 410 163 q 392 98 410 114 q 354 82 375 82 q 315 98 332 82 q 297 139 297 114 z "},"½":{"ha":1158,"x_min":54,"x_max":1106,"o":"m 822 56 l 1106 56 l 1106 0 l 682 0 q 803 120 744 61 q 907 235 861 179 q 980 342 953 290 q 1007 439 1007 393 q 994 512 1007 482 q 960 560 981 542 q 917 588 940 579 q 872 596 893 596 q 803 581 831 596 q 761 545 776 567 q 740 499 746 524 q 733 456 733 475 q 744 395 733 422 q 774 349 754 368 l 739 315 q 693 378 710 338 q 676 456 676 418 q 689 531 676 496 q 726 594 701 567 q 788 636 751 621 q 872 651 825 651 q 951 635 915 651 q 1012 592 986 619 q 1051 529 1038 565 q 1065 451 1065 493 q 1044 348 1065 399 q 988 249 1022 297 q 909 151 953 200 q 822 56 865 103 m 274 -26 l 663 1029 l 744 1029 q 550 502 646 764 q 356 -26 454 240 l 274 -26 m 54 914 l 54 971 l 197 971 l 197 325 l 138 325 l 138 914 l 54 914 z "},"¼":{"ha":1104,"x_min":57,"x_max":1053,"o":"m 560 181 q 756 433 656 306 q 953 686 857 561 l 953 240 l 1053 240 l 1053 181 l 953 181 l 953 0 l 892 0 l 892 181 l 560 181 m 263 -26 l 651 1029 l 733 1029 q 539 502 635 764 q 344 -26 443 240 l 263 -26 m 57 914 l 57 971 l 200 971 l 200 325 l 140 325 l 140 914 l 57 914 m 892 521 l 676 240 l 892 240 l 892 521 z "},"ª":{"ha":597,"x_min":69,"x_max":493,"o":"m 69 624 q 86 705 69 667 q 131 772 103 743 q 198 818 160 801 q 279 835 236 835 q 335 826 310 835 q 382 805 361 818 q 417 776 403 792 q 438 743 431 760 l 442 825 l 493 825 l 493 425 l 438 425 l 438 467 q 438 488 438 478 q 439 506 439 497 q 383 445 424 474 q 279 417 342 417 q 195 433 233 417 q 129 478 157 450 q 85 544 101 506 q 69 624 69 582 m 125 626 q 169 515 125 560 q 281 471 214 471 q 343 483 314 471 q 393 515 372 494 q 426 565 414 536 q 438 626 438 593 q 426 687 438 658 q 393 736 414 715 q 343 769 372 757 q 281 781 314 781 q 169 737 214 781 q 125 626 125 693 z "},"£":{"ha":821,"x_min":58,"x_max":754,"o":"m 244 79 l 524 79 q 596 83 567 79 q 642 94 625 86 q 665 117 658 103 q 672 153 672 131 l 672 221 l 754 221 l 754 119 q 749 73 754 94 q 728 35 744 51 q 678 10 711 19 q 589 0 646 0 l 58 0 l 58 79 l 119 79 q 158 86 143 79 q 180 111 172 93 q 190 162 188 129 q 193 244 193 194 l 193 401 l 101 401 l 101 481 l 193 481 l 193 728 q 266 882 193 826 q 457 938 339 938 q 610 901 554 938 q 699 803 667 865 l 638 768 q 613 801 626 785 q 581 831 600 818 q 532 851 561 843 q 460 858 503 858 q 318 817 361 858 q 275 710 275 776 l 275 481 l 444 481 l 444 401 l 275 401 l 275 201 q 270 130 275 161 q 244 79 265 99 z "},"¹":{"ha":261,"x_min":67,"x_max":158,"o":"m 67 939 l 67 975 l 158 975 l 158 557 l 121 557 l 121 939 l 67 939 z "},"¾":{"ha":1369,"x_min":61,"x_max":1318,"o":"m 824 181 q 1020 433 919 306 q 1217 686 1121 561 l 1217 240 l 1318 240 l 1318 181 l 1217 181 l 1217 0 l 1156 0 l 1156 181 l 824 181 m 494 -26 q 690 502 593 240 q 883 1031 786 764 l 965 1031 q 771 502 867 764 q 576 -26 675 240 l 494 -26 m 160 651 q 253 790 204 722 q 347 928 301 858 l 90 928 l 90 989 l 450 989 q 360 858 406 922 q 269 726 314 793 q 344 700 310 719 q 405 652 379 681 q 445 586 431 624 q 460 506 460 549 q 441 417 460 458 q 391 345 422 376 q 318 296 360 314 q 229 278 276 278 q 136 298 179 278 q 61 353 93 318 l 107 397 q 160 354 129 369 q 228 339 190 339 q 293 352 263 339 q 347 388 324 365 q 383 442 369 411 q 397 506 397 472 q 383 572 397 540 q 347 625 369 603 q 293 660 324 647 q 228 674 263 674 q 160 651 188 674 m 1156 521 l 940 240 l 1156 240 l 1156 521 z "},"²":{"ha":478,"x_min":92,"x_max":392,"o":"m 193 560 l 392 560 l 392 521 l 96 521 q 180 605 139 564 q 253 684 221 646 q 303 758 285 722 q 322 828 322 794 q 313 879 322 858 q 290 913 304 900 q 260 931 276 925 q 229 936 243 936 q 181 926 200 936 q 151 901 163 915 q 136 869 140 886 q 132 839 132 853 q 160 764 132 794 l 135 740 q 103 783 115 756 q 92 839 92 811 q 127 935 92 896 q 229 975 163 975 q 327 935 290 975 q 364 836 364 894 q 349 765 364 800 q 309 694 333 729 q 254 626 285 660 q 193 560 224 593 z "},"¶":{"ha":750,"x_min":51,"x_max":589,"o":"m 361 0 l 281 0 l 281 592 q 190 610 232 592 q 118 658 149 628 q 69 731 88 689 q 51 821 51 772 q 69 910 51 868 q 118 983 88 953 q 190 1032 149 1014 q 281 1050 232 1050 l 589 1050 l 589 0 l 508 0 l 508 971 l 361 971 l 361 0 z "},"¬":{"ha":715,"x_min":113,"x_max":617,"o":"m 535 207 l 535 283 l 113 283 l 113 343 l 617 343 l 617 207 l 535 207 z "},"³":{"ha":407,"x_min":76,"x_max":331,"o":"m 139 761 q 199 849 167 806 q 258 936 231 892 l 94 936 l 94 976 l 325 976 l 210 808 q 296 761 261 799 q 331 668 331 724 q 319 611 331 638 q 287 565 307 585 q 240 533 267 544 q 183 522 214 522 q 124 535 151 522 q 76 571 96 549 l 106 599 q 182 561 135 561 q 224 570 204 561 q 259 594 244 579 q 282 628 274 608 q 290 668 290 647 q 258 744 290 713 q 182 775 226 775 q 139 761 160 775 z "},"¦":{"ha":344,"x_min":132,"x_max":213,"o":"m 213 -326 l 132 -326 l 132 164 l 213 164 l 213 -326 m 213 490 l 132 490 l 132 981 l 213 981 l 213 490 z "},"&":{"ha":904,"x_min":63,"x_max":857,"o":"m 853 0 l 761 0 q 734 31 760 0 q 668 114 708 63 q 551 24 625 58 q 385 -11 476 -11 q 255 10 314 -11 q 153 71 196 32 q 86 161 110 110 q 63 274 63 213 q 83 378 63 329 q 138 464 103 426 q 219 527 172 501 q 319 564 267 553 q 265 639 288 607 q 235 688 243 671 q 201 760 215 725 q 188 839 188 794 q 206 925 188 886 q 256 991 225 964 q 329 1033 288 1018 q 418 1047 371 1047 q 531 1030 479 1049 q 614 990 582 1011 q 608 980 614 989 q 594 960 601 971 q 580 942 586 950 q 574 932 574 933 q 515 959 546 947 q 449 974 485 971 q 382 967 414 975 q 325 940 350 958 q 285 895 300 922 q 269 832 269 868 q 275 790 269 810 q 287 753 281 769 q 299 727 293 738 q 306 715 304 717 l 656 257 l 775 569 l 857 569 l 710 188 l 853 0 m 372 493 q 289 476 331 492 q 214 431 247 460 q 160 363 181 401 q 140 276 140 324 q 161 185 140 225 q 216 119 182 146 q 295 78 250 92 q 389 64 340 64 q 459 72 424 64 q 525 95 494 81 q 581 130 556 110 q 621 174 606 150 q 497 331 563 247 q 372 493 431 415 z "},"ß":{"ha":765,"x_min":42,"x_max":711,"o":"m 282 19 l 315 90 q 411 67 358 67 q 497 84 457 67 q 566 131 536 101 q 613 201 596 161 q 631 285 631 240 q 613 368 631 329 q 566 436 596 407 q 497 482 536 465 q 413 499 457 499 l 411 499 l 411 578 q 508 612 469 578 q 546 704 546 646 q 508 800 546 758 q 394 842 469 842 q 256 774 300 842 q 213 592 213 706 l 213 0 l 132 0 l 132 486 l 42 486 l 42 565 l 132 565 l 132 594 q 151 731 132 671 q 203 833 169 792 q 283 897 236 875 q 385 921 329 919 q 494 903 449 921 q 569 856 540 885 q 613 789 599 826 q 626 711 626 751 q 600 610 626 654 q 524 546 574 565 q 592 514 558 538 q 653 456 626 490 q 695 377 679 421 q 711 283 711 333 q 688 169 711 222 q 623 75 664 115 q 527 11 582 35 q 411 -12 472 -12 q 282 19 342 -12 z "},"¤":{"ha":635,"x_min":111,"x_max":522,"o":"m 118 501 q 128 563 118 533 q 156 617 138 593 l 111 663 l 153 703 l 197 658 q 252 689 222 678 q 317 700 282 700 q 382 688 351 700 q 436 657 413 676 l 481 703 l 522 661 l 478 618 q 517 501 517 567 q 475 382 517 435 l 522 333 l 482 293 l 433 340 q 379 313 410 322 q 317 303 349 303 q 255 313 285 303 q 201 339 225 322 l 153 292 l 111 332 l 160 381 q 118 501 118 433 m 176 501 q 188 446 176 472 q 218 400 199 419 q 263 369 238 381 q 317 358 288 358 q 372 369 346 358 q 417 400 399 381 q 447 446 436 419 q 458 501 458 472 q 447 556 458 531 q 417 601 436 582 q 372 632 399 621 q 317 643 346 643 q 263 632 288 643 q 218 601 238 621 q 188 556 199 582 q 176 501 176 531 z "},"§":{"ha":519,"x_min":75,"x_max":446,"o":"m 218 211 q 168 292 188 260 q 136 347 149 325 q 116 381 124 368 q 103 406 108 394 q 81 472 86 436 q 81 541 75 507 q 105 605 88 575 q 151 656 122 635 q 272 678 206 689 q 238 735 253 706 q 204 794 222 764 q 172 867 181 836 q 165 919 163 897 q 178 958 167 942 q 207 986 190 974 q 256 1020 228 1006 q 310 1050 285 1035 l 350 982 q 320 965 335 974 q 290 947 306 957 q 256 898 256 928 q 292 806 256 868 l 293 806 l 417 596 q 440 530 435 564 q 439 463 446 496 q 413 400 432 429 q 365 350 394 371 q 246 325 311 314 l 315 207 q 349 135 340 165 q 356 81 358 104 q 341 42 353 58 q 313 14 329 26 q 265 -20 293 -6 q 211 -50 236 -35 q 191 -16 201 -33 q 171 19 181 1 l 231 54 q 257 76 249 64 q 264 107 265 89 q 251 150 263 125 q 218 211 240 175 m 161 479 q 197 419 167 442 q 265 397 228 396 q 339 433 310 400 q 365 510 368 467 q 329 584 363 556 q 253 613 296 613 q 206 598 226 610 q 172 567 185 586 q 156 526 160 549 q 161 479 153 503 z "},"·":{"ha":289,"x_min":89,"x_max":200,"o":"m 89 394 q 106 435 89 418 q 144 451 122 451 q 183 435 165 451 q 200 394 200 418 q 183 353 200 369 q 144 338 165 338 q 106 353 122 338 q 89 394 89 369 z "},"º":{"ha":560,"x_min":69,"x_max":490,"o":"m 69 625 q 86 707 69 668 q 131 774 103 746 q 198 819 160 803 q 281 836 236 836 q 363 819 325 836 q 430 774 401 803 q 474 707 458 746 q 490 625 490 668 q 474 544 490 582 q 430 478 458 506 q 363 433 401 450 q 281 417 325 417 q 198 433 236 417 q 131 476 160 449 q 86 542 103 504 q 69 625 69 581 m 125 625 q 137 565 125 593 q 169 515 149 536 q 219 483 190 494 q 279 471 247 471 q 340 483 311 471 q 389 515 368 494 q 422 565 410 536 q 435 625 435 593 q 422 685 435 657 q 389 735 410 714 q 340 768 368 756 q 279 781 311 781 q 219 768 247 781 q 169 735 190 756 q 137 685 149 714 q 125 625 125 657 z "},"¯":{"ha":560,"x_min":119,"x_max":442,"o":"m 119 676 l 119 731 l 442 731 l 442 676 l 119 676 z "},"µ":{"ha":743,"x_min":124,"x_max":610,"o":"m 610 -7 l 546 -7 l 538 143 q 449 31 508 74 q 304 -12 389 -12 q 200 14 244 -12 l 200 -279 l 125 -279 l 125 135 q 124 154 124 140 l 124 556 l 200 556 l 200 181 q 233 100 203 133 q 325 64 264 67 q 406 78 368 64 q 472 119 444 93 q 517 181 500 144 q 533 260 533 217 l 533 556 l 610 556 l 610 -7 z "},"×":{"ha":607,"x_min":89,"x_max":521,"o":"m 450 0 l 303 146 q 158 1 232 72 l 90 68 l 236 215 l 89 361 l 158 431 l 306 283 q 378 357 342 321 q 451 429 415 393 q 485 396 468 414 q 518 361 501 378 q 446 289 482 325 q 374 217 410 253 q 447 143 411 181 q 521 69 483 106 l 450 0 z "},"O":{"ha":1150,"x_min":68,"x_max":1082,"o":"m 68 494 q 108 691 68 599 q 216 853 147 783 q 377 963 285 922 q 574 1003 469 1003 q 771 963 678 1003 q 933 853 864 922 q 1042 691 1001 783 q 1082 494 1082 599 q 1042 298 1082 390 q 933 137 1001 206 q 771 28 864 68 q 574 -11 678 -11 q 377 28 469 -11 q 216 137 285 68 q 108 298 147 206 q 68 494 68 390 m 163 494 q 195 333 163 408 q 283 201 228 257 q 414 112 339 144 q 574 79 489 79 q 734 112 658 79 q 866 201 810 144 q 955 333 922 257 q 988 494 988 408 q 955 656 988 581 q 866 789 922 732 q 734 878 810 846 q 574 911 658 911 q 413 878 488 911 q 283 789 339 846 q 194 656 226 732 q 163 494 163 581 z "},"g":{"ha":738,"x_min":56,"x_max":642,"o":"m 56 276 q 78 392 56 339 q 139 484 100 444 q 230 546 178 524 q 340 568 282 568 q 424 556 386 568 q 490 524 461 543 q 538 483 518 506 q 565 440 557 461 q 567 497 565 468 q 571 556 569 526 l 642 556 l 642 10 q 624 -101 642 -50 q 569 -188 606 -151 q 478 -246 533 -225 q 347 -267 422 -267 q 209 -237 268 -267 q 89 -151 150 -208 l 139 -99 q 242 -172 193 -151 q 344 -193 292 -193 q 444 -178 403 -193 q 511 -138 485 -164 q 550 -76 538 -112 q 564 6 563 -39 q 564 25 564 17 q 565 57 564 33 q 566 70 565 61 q 567 90 567 79 q 567 109 567 100 q 568 121 568 118 q 484 28 542 68 q 342 -11 426 -11 q 228 11 281 -11 q 138 72 176 33 q 77 163 99 111 q 56 276 56 215 m 132 279 q 149 194 132 233 q 194 126 165 156 q 263 81 224 97 q 349 64 303 64 q 434 81 394 64 q 503 126 474 97 q 549 194 532 156 q 565 279 565 233 q 549 363 565 324 q 503 431 532 401 q 434 476 474 460 q 349 493 394 493 q 263 476 303 493 q 194 431 224 460 q 149 364 165 403 q 132 279 132 325 z "},"d":{"ha":738,"x_min":56,"x_max":642,"o":"m 56 278 q 78 394 56 340 q 138 485 100 447 q 228 546 176 524 q 342 568 281 568 q 421 557 385 568 q 485 528 457 546 q 534 486 514 510 q 565 439 554 463 l 565 1064 l 642 1064 l 642 0 l 565 0 l 565 57 q 567 87 565 72 q 568 115 568 101 q 482 26 540 64 q 340 -11 424 -11 q 224 12 276 -11 q 135 74 172 35 q 76 165 97 113 q 56 278 56 218 m 132 279 q 149 194 132 233 q 194 126 165 156 q 263 81 224 97 q 349 64 303 64 q 434 81 394 64 q 503 126 474 97 q 549 194 532 156 q 565 279 565 233 q 549 363 565 324 q 503 431 532 401 q 434 476 474 460 q 349 493 394 493 q 263 476 303 493 q 194 431 224 460 q 149 364 165 403 q 132 279 132 325 z "},"a":{"ha":736,"x_min":54,"x_max":640,"o":"m 54 275 q 77 388 54 335 q 140 482 100 442 q 232 545 179 522 q 344 568 285 568 q 422 557 386 568 q 487 527 458 546 q 535 485 515 508 q 564 440 554 463 l 569 556 l 640 556 l 640 0 l 564 0 l 564 57 q 565 86 564 72 q 565 113 565 100 q 536 67 556 89 q 488 28 517 46 q 424 -1 460 10 q 344 -11 388 -11 q 228 12 282 -11 q 137 74 175 35 q 76 165 99 113 q 54 275 54 217 m 131 279 q 147 194 131 233 q 193 126 164 156 q 262 81 222 97 q 347 64 301 64 q 433 81 393 64 q 501 126 472 97 q 547 194 531 156 q 564 279 564 233 q 547 363 564 324 q 501 431 531 401 q 433 476 472 460 q 347 493 393 493 q 262 476 301 493 q 193 431 222 460 q 147 364 164 403 q 131 279 131 325 z "},"n":{"ha":671,"x_min":96,"x_max":582,"o":"m 96 556 l 161 556 l 168 413 q 258 525 199 482 q 401 568 318 568 q 531 522 483 568 q 582 401 579 476 l 582 0 l 506 0 l 506 375 q 472 456 503 422 q 381 492 442 489 q 299 477 336 492 q 233 436 261 463 q 188 374 204 410 q 172 294 172 338 l 172 0 l 96 0 l 96 556 z "},"˛":{"ha":917,"x_min":158,"x_max":428,"o":"m 325 -39 q 309 -78 325 -64 q 273 -106 293 -93 q 237 -137 253 -119 q 221 -187 221 -156 q 242 -249 221 -224 q 301 -274 264 -274 q 351 -258 331 -274 q 379 -217 372 -242 q 428 -240 401 -226 q 376 -312 413 -289 q 294 -336 339 -336 q 195 -296 232 -336 q 158 -192 158 -256 q 171 -135 158 -162 q 214 -85 183 -107 q 233 -74 222 -79 q 252 -60 243 -68 q 267 -41 261 -53 q 272 -10 272 -29 l 272 0 l 325 0 l 325 -39 z "},"ˇ":{"ha":618,"x_min":157,"x_max":493,"o":"m 157 924 l 217 924 l 325 771 l 432 924 l 493 924 q 408 797 450 861 q 325 671 367 733 l 157 924 z "},"˝":{"ha":669,"x_min":113,"x_max":626,"o":"m 417 671 q 480 763 449 717 q 543 857 511 810 l 626 857 q 553 763 590 810 q 478 671 515 717 l 417 671 m 113 671 l 239 857 l 321 857 q 247 763 285 810 q 172 671 210 717 l 113 671 z "},"˙":{"ha":304,"x_min":94,"x_max":204,"o":"m 94 757 q 112 797 94 781 q 150 813 129 813 q 188 797 171 813 q 204 757 204 781 q 188 717 204 732 q 150 701 171 701 q 112 717 129 701 q 94 757 94 732 z "},"˘":{"ha":888,"x_min":139,"x_max":589,"o":"m 365 694 q 278 711 319 694 q 207 757 238 728 q 158 826 176 786 q 139 913 140 867 l 186 913 q 201 846 188 876 q 239 792 215 815 q 295 755 263 768 q 365 742 328 742 q 490 792 443 742 q 540 913 538 842 l 589 913 q 571 826 589 867 q 522 757 553 786 q 451 711 492 728 q 365 694 411 694 z "},"Ą":{"ha":896,"x_min":19,"x_max":938,"o":"m 835 0 l 835 -39 q 819 -78 835 -64 q 783 -106 803 -93 q 747 -137 763 -119 q 731 -187 731 -156 q 752 -249 731 -224 q 811 -274 774 -274 q 861 -258 840 -274 q 889 -217 882 -242 q 938 -240 911 -226 q 885 -312 922 -289 q 804 -336 849 -336 q 705 -296 742 -336 q 668 -192 668 -256 q 681 -135 668 -162 q 724 -85 693 -107 q 742 -74 732 -79 q 762 -60 753 -68 q 776 -41 771 -53 q 782 -10 782 -29 l 782 0 l 781 0 q 715 157 753 64 q 638 354 678 250 l 257 354 q 179 157 217 250 q 114 0 142 64 l 19 0 q 75 133 40 50 q 150 314 110 215 q 233 519 190 413 q 317 724 276 625 q 391 904 357 822 q 447 1038 425 986 q 503 904 468 986 q 578 724 538 822 q 662 519 618 625 q 746 314 706 413 q 820 133 786 215 q 876 0 854 50 l 835 0 m 433 794 q 367 635 406 729 q 289 436 329 540 l 606 436 q 526 635 564 540 q 461 794 489 729 q 454 813 458 800 q 447 838 450 826 q 440 813 444 826 q 433 794 436 800 z "},"Ł":{"ha":794,"x_min":54,"x_max":775,"o":"m 153 0 l 153 389 l 54 357 l 54 436 l 153 468 l 153 992 l 247 992 l 247 500 l 553 603 l 553 524 l 247 421 l 247 90 l 775 90 l 775 0 l 153 0 z "},"Ľ":{"ha":783,"x_min":142,"x_max":764,"o":"m 142 0 l 142 992 l 236 992 l 236 90 l 764 90 l 764 0 l 142 0 m 458 796 l 418 826 q 462 896 449 854 q 465 986 475 938 l 521 996 q 515 885 532 938 q 458 796 499 833 z "},"Ś":{"ha":765,"x_min":50,"x_max":704,"o":"m 663 940 l 628 864 q 520 897 579 883 q 406 911 461 911 q 316 899 356 911 q 249 864 276 886 q 206 813 221 842 q 192 751 192 785 q 214 683 192 711 q 272 633 236 654 q 354 595 308 613 q 448 560 400 578 q 542 519 496 542 q 624 463 588 496 q 682 383 660 429 q 704 272 704 338 q 681 155 704 207 q 613 66 657 103 q 503 9 568 29 q 357 -11 439 -11 q 249 -1 299 -11 q 162 24 200 10 q 95 54 124 39 q 50 81 67 69 l 93 164 q 149 133 118 149 q 215 107 181 118 q 285 89 249 96 q 356 82 321 82 q 438 92 393 82 q 522 126 483 103 q 585 187 560 150 q 611 276 611 224 q 573 382 611 342 q 478 451 535 422 q 354 501 421 479 q 231 553 288 524 q 135 628 174 583 q 97 743 97 672 q 117 840 97 793 q 176 921 138 886 q 271 976 215 956 q 396 997 326 997 q 476 991 435 997 q 553 976 517 985 q 618 957 589 967 q 663 940 647 947 m 311 1056 l 438 1242 l 519 1242 q 446 1148 483 1194 q 371 1056 408 1101 l 311 1056 z "},"Š":{"ha":765,"x_min":50,"x_max":704,"o":"m 663 940 l 628 864 q 520 897 579 883 q 406 911 461 911 q 316 899 356 911 q 249 864 276 886 q 206 813 221 842 q 192 751 192 785 q 214 683 192 711 q 272 633 236 654 q 354 595 308 613 q 448 560 400 578 q 542 519 496 542 q 624 463 588 496 q 682 383 660 429 q 704 272 704 338 q 681 155 704 207 q 613 66 657 103 q 503 9 568 29 q 357 -11 439 -11 q 249 -1 299 -11 q 162 24 200 10 q 95 54 124 39 q 50 81 67 69 l 93 164 q 149 133 118 149 q 215 107 181 118 q 285 89 249 96 q 356 82 321 82 q 438 92 393 82 q 522 126 483 103 q 585 187 560 150 q 611 276 611 224 q 573 382 611 342 q 478 451 535 422 q 354 501 421 479 q 231 553 288 524 q 135 628 174 583 q 97 743 97 672 q 117 840 97 793 q 176 921 138 886 q 271 976 215 956 q 396 997 326 997 q 476 991 435 997 q 553 976 517 985 q 618 957 589 967 q 663 940 647 947 m 217 1276 l 276 1276 l 385 1124 l 492 1276 l 553 1276 q 468 1150 510 1214 q 385 1024 426 1086 l 217 1276 z "},"Ş":{"ha":765,"x_min":50,"x_max":704,"o":"m 663 940 l 628 864 q 520 897 579 883 q 406 911 461 911 q 316 899 356 911 q 249 864 276 886 q 206 813 221 842 q 192 751 192 785 q 214 683 192 711 q 272 633 236 654 q 354 595 308 613 q 448 560 400 578 q 542 519 496 542 q 624 463 588 496 q 682 383 660 429 q 704 272 704 338 q 622 73 704 149 q 390 -10 540 -3 q 396 -41 390 -29 q 410 -60 401 -53 q 428 -74 418 -68 q 447 -85 439 -79 q 490 -135 478 -107 q 503 -192 503 -162 q 466 -296 503 -256 q 367 -336 429 -336 q 287 -312 324 -336 q 233 -240 250 -289 q 282 -217 260 -226 q 310 -258 289 -242 q 361 -274 331 -274 q 419 -249 397 -274 q 442 -187 442 -224 q 426 -137 442 -156 q 390 -106 410 -119 q 353 -78 369 -93 q 338 -39 338 -64 l 338 -11 q 236 1 282 -10 q 154 27 190 13 q 92 56 118 42 q 50 81 67 71 l 93 164 q 149 133 118 149 q 215 107 181 118 q 285 89 249 96 q 356 82 321 82 q 438 92 393 82 q 522 126 483 103 q 585 187 560 150 q 611 276 611 224 q 573 382 611 342 q 478 451 535 422 q 354 501 421 479 q 231 553 288 524 q 135 628 174 583 q 97 743 97 672 q 117 840 97 793 q 176 921 138 886 q 271 976 215 956 q 396 997 326 997 q 476 991 435 997 q 553 976 517 985 q 618 957 589 967 q 663 940 647 947 z "},"Ť":{"ha":746,"x_min":63,"x_max":683,"o":"m 683 992 l 683 901 l 419 901 l 419 0 l 324 0 l 324 901 l 63 901 l 63 992 l 683 992 m 204 1276 l 264 1276 l 372 1124 l 479 1276 l 540 1276 q 456 1150 497 1214 q 372 1024 414 1086 l 204 1276 z "},"Ź":{"ha":881,"x_min":17,"x_max":844,"o":"m 194 992 l 818 992 l 182 92 l 844 92 l 844 0 l 17 0 q 103 124 51 50 q 214 285 154 199 q 337 463 274 371 q 460 640 400 554 q 571 797 519 725 q 657 917 622 869 l 168 917 q 94 935 124 917 q 64 993 64 953 l 64 1042 l 151 1042 l 151 1024 q 161 998 151 1004 q 194 992 171 992 m 406 1056 l 532 1242 l 614 1242 q 540 1148 578 1194 q 465 1056 503 1101 l 406 1056 z "},"Ž":{"ha":881,"x_min":17,"x_max":844,"o":"m 194 992 l 818 992 l 182 92 l 844 92 l 844 0 l 17 0 q 103 124 51 50 q 214 285 154 199 q 337 463 274 371 q 460 640 400 554 q 571 797 519 725 q 657 917 622 869 l 168 917 q 94 935 124 917 q 64 993 64 953 l 64 1042 l 151 1042 l 151 1024 q 161 998 151 1004 q 194 992 171 992 m 275 1276 l 335 1276 l 443 1124 l 550 1276 l 611 1276 q 526 1150 568 1214 q 443 1024 485 1086 l 275 1276 z "},"Ż":{"ha":881,"x_min":17,"x_max":844,"o":"m 194 992 l 818 992 l 182 92 l 844 92 l 844 0 l 17 0 q 103 124 51 50 q 214 285 154 199 q 337 463 274 371 q 460 640 400 554 q 571 797 519 725 q 657 917 622 869 l 168 917 q 94 935 124 917 q 64 993 64 953 l 64 1042 l 151 1042 l 151 1024 q 161 998 151 1004 q 194 992 171 992 m 401 1103 q 419 1142 401 1126 q 457 1158 436 1158 q 494 1142 478 1158 q 511 1103 511 1126 q 494 1063 511 1078 q 457 1047 478 1047 q 419 1063 436 1047 q 401 1103 401 1078 z "},"ą":{"ha":736,"x_min":54,"x_max":721,"o":"m 54 275 q 77 388 54 335 q 140 482 100 442 q 232 545 179 522 q 344 568 285 568 q 422 557 386 568 q 487 527 458 546 q 535 485 515 508 q 564 440 554 463 l 569 556 l 640 556 l 640 0 l 564 0 l 564 57 q 565 86 564 72 q 565 113 565 100 q 536 67 556 89 q 488 28 517 46 q 424 -1 460 10 q 344 -11 388 -11 q 228 12 282 -11 q 137 74 175 35 q 76 165 99 113 q 54 275 54 217 m 131 279 q 147 194 131 233 q 193 126 164 156 q 262 81 222 97 q 347 64 301 64 q 433 81 393 64 q 501 126 472 97 q 547 194 531 156 q 564 279 564 233 q 547 363 564 324 q 501 431 531 401 q 433 476 472 460 q 347 493 393 493 q 262 476 301 493 q 193 431 222 460 q 147 364 164 403 q 131 279 131 325 m 618 0 l 565 0 l 565 -10 q 560 -41 565 -29 q 545 -60 554 -53 q 526 -74 536 -68 q 507 -85 515 -79 q 464 -135 476 -107 q 451 -192 451 -162 q 488 -296 451 -256 q 588 -336 525 -336 q 669 -312 632 -336 q 721 -240 706 -289 q 672 -217 694 -226 q 644 -258 665 -242 q 594 -274 624 -274 q 535 -249 557 -274 q 514 -187 514 -224 q 530 -137 514 -156 q 566 -106 546 -119 q 602 -78 586 -93 q 618 -39 618 -64 l 618 0 z "},"ł":{"ha":307,"x_min":35,"x_max":285,"o":"m 183 0 l 107 0 l 107 381 l 35 357 l 35 436 l 107 460 l 107 1064 l 183 1064 l 183 486 l 285 521 l 285 442 l 183 407 l 183 0 z "},"ľ":{"ha":271,"x_min":97,"x_max":357,"o":"m 174 0 l 97 0 l 97 1064 l 174 1064 l 174 0 m 283 796 l 243 826 q 287 896 274 854 q 290 986 300 938 l 346 996 q 340 885 357 938 q 283 796 324 833 z "},"ś":{"ha":461,"x_min":50,"x_max":408,"o":"m 388 503 l 346 449 q 302 477 335 464 q 236 490 269 490 q 206 486 222 490 q 177 473 190 482 q 155 449 164 464 q 146 414 146 435 q 165 363 146 382 q 214 331 185 344 q 277 304 243 317 q 340 274 311 292 q 389 227 369 256 q 408 154 408 199 q 361 37 408 85 q 226 -11 314 -11 q 130 6 179 -11 q 50 58 81 22 q 64 74 56 64 q 79 92 72 83 q 91 106 86 100 q 97 113 96 113 q 115 97 101 106 q 147 81 129 89 q 186 68 165 74 q 226 63 207 63 q 262 67 243 63 q 297 83 281 72 q 322 111 313 94 q 332 151 332 128 q 313 202 332 183 q 264 235 293 221 q 200 260 235 249 q 136 290 165 272 q 88 338 107 308 q 68 413 68 367 q 83 483 68 454 q 122 530 99 511 q 176 557 146 549 q 233 565 206 565 q 313 550 269 565 q 388 503 356 535 m 193 671 l 319 857 l 401 857 q 328 763 365 810 q 253 671 290 717 l 193 671 z "},"š":{"ha":461,"x_min":50,"x_max":408,"o":"m 388 503 l 346 449 q 302 477 335 464 q 236 490 269 490 q 206 486 222 490 q 177 473 190 482 q 155 449 164 464 q 146 414 146 435 q 165 363 146 382 q 214 331 185 344 q 277 304 243 317 q 340 274 311 292 q 389 227 369 256 q 408 154 408 199 q 361 37 408 85 q 226 -11 314 -11 q 130 6 179 -11 q 50 58 81 22 q 64 74 56 64 q 79 92 72 83 q 91 106 86 100 q 97 113 96 113 q 115 97 101 106 q 147 81 129 89 q 186 68 165 74 q 226 63 207 63 q 262 67 243 63 q 297 83 281 72 q 322 111 313 94 q 332 151 332 128 q 313 202 332 183 q 264 235 293 221 q 200 260 235 249 q 136 290 165 272 q 88 338 107 308 q 68 413 68 367 q 83 483 68 454 q 122 530 99 511 q 176 557 146 549 q 233 565 206 565 q 313 550 269 565 q 388 503 356 535 m 58 924 l 118 924 l 226 771 l 333 924 l 394 924 q 310 797 351 861 q 226 671 268 733 l 58 924 z "},"ş":{"ha":461,"x_min":50,"x_max":408,"o":"m 388 503 l 346 449 q 302 477 335 464 q 236 490 269 490 q 206 486 222 490 q 177 473 190 482 q 155 449 164 464 q 146 414 146 435 q 165 363 146 382 q 214 331 185 344 q 277 304 243 317 q 340 274 311 292 q 389 227 369 256 q 408 154 408 199 q 368 44 408 90 q 254 -10 328 -1 q 260 -41 254 -29 q 274 -60 265 -53 q 292 -74 282 -68 q 311 -85 303 -79 q 354 -135 342 -107 q 367 -192 367 -162 q 330 -296 367 -256 q 231 -336 293 -336 q 151 -312 188 -336 q 97 -240 114 -289 q 146 -217 124 -226 q 174 -258 153 -242 q 225 -274 194 -274 q 283 -249 261 -274 q 306 -187 306 -224 q 290 -137 306 -156 q 253 -106 274 -119 q 217 -78 233 -93 q 201 -39 201 -64 l 201 -10 q 117 10 158 -6 q 50 58 76 26 q 64 74 56 64 q 79 92 72 83 q 91 106 86 100 q 97 113 96 113 q 115 97 101 106 q 147 81 129 89 q 186 68 165 74 q 226 63 207 63 q 262 67 243 63 q 297 83 281 72 q 322 111 313 94 q 332 151 332 128 q 313 202 332 183 q 264 235 293 221 q 200 260 235 249 q 136 290 165 272 q 88 338 107 308 q 68 413 68 367 q 83 483 68 454 q 122 530 99 511 q 176 557 146 549 q 233 565 206 565 q 313 550 269 565 q 388 503 356 535 z "},"ť":{"ha":397,"x_min":26,"x_max":426,"o":"m 138 799 l 214 799 l 214 550 l 379 550 l 379 481 l 214 481 l 214 0 l 138 0 l 138 481 l 26 481 l 26 550 l 138 550 l 138 799 m 353 796 l 313 826 q 356 896 343 854 q 360 986 369 938 l 415 996 q 410 885 426 938 q 353 796 393 833 z "},"ź":{"ha":561,"x_min":36,"x_max":521,"o":"m 515 0 l 36 0 l 382 489 l 147 489 q 74 509 101 489 q 47 571 47 529 l 47 608 l 117 608 l 117 590 q 128 563 117 571 q 163 556 139 556 l 521 556 l 181 75 l 515 75 l 515 0 m 238 671 l 364 857 l 446 857 q 372 763 410 810 q 297 671 335 717 l 238 671 z "},"ž":{"ha":561,"x_min":36,"x_max":521,"o":"m 515 0 l 36 0 l 382 489 l 147 489 q 74 509 101 489 q 47 571 47 529 l 47 608 l 117 608 l 117 590 q 128 563 117 571 q 163 556 139 556 l 521 556 l 181 75 l 515 75 l 515 0 m 125 924 l 185 924 l 293 771 l 400 924 l 461 924 q 376 797 418 861 q 293 671 335 733 l 125 924 z "},"ż":{"ha":561,"x_min":36,"x_max":521,"o":"m 515 0 l 36 0 l 382 489 l 147 489 q 74 509 101 489 q 47 571 47 529 l 47 608 l 117 608 l 117 590 q 128 563 117 571 q 163 556 139 556 l 521 556 l 181 75 l 515 75 l 515 0 m 221 757 q 238 797 221 781 q 276 813 256 813 q 314 797 297 813 q 331 757 331 781 q 314 717 331 732 q 276 701 297 701 q 238 717 256 701 q 221 757 221 732 z "},"Ŕ":{"ha":838,"x_min":142,"x_max":807,"o":"m 142 0 l 142 992 l 382 992 q 503 974 444 992 q 606 921 561 957 q 678 831 651 885 q 706 701 706 776 q 668 543 706 618 q 544 428 631 468 q 578 372 557 407 q 624 297 599 338 q 676 211 649 256 q 728 126 703 167 q 774 53 753 86 q 807 0 794 19 l 692 0 q 663 46 681 17 q 622 111 644 75 q 575 188 600 147 q 526 267 550 228 q 481 340 503 306 q 444 400 460 375 q 415 397 431 397 q 385 397 400 397 l 236 397 l 236 0 l 142 0 m 236 488 l 383 488 q 494 510 450 488 q 565 565 539 532 q 601 634 590 597 q 611 701 611 671 q 597 775 611 739 q 554 840 582 811 q 483 885 526 868 q 385 903 440 903 l 236 903 l 236 488 m 353 1056 l 479 1242 l 561 1242 q 488 1148 525 1194 q 413 1056 450 1101 l 353 1056 z "},"Ă":{"ha":897,"x_min":21,"x_max":878,"o":"m 878 0 q 822 133 856 50 q 747 314 788 215 q 663 519 707 413 q 579 724 619 625 q 504 904 539 822 q 449 1038 469 986 q 392 904 426 986 q 318 724 358 822 q 235 519 278 625 q 151 314 192 413 q 76 133 111 215 q 21 0 42 50 l 115 0 q 181 157 143 64 q 258 354 218 250 l 639 354 q 717 157 679 250 q 782 0 754 64 l 878 0 m 435 794 q 442 813 438 800 q 449 838 446 826 q 456 813 451 826 q 463 794 460 800 q 528 635 490 729 q 607 436 565 540 l 290 436 q 369 635 331 540 q 435 794 407 729 m 450 1058 q 363 1075 404 1058 q 292 1121 322 1092 q 243 1190 261 1150 q 224 1276 225 1231 l 271 1276 q 286 1210 272 1240 q 324 1156 300 1179 q 380 1119 347 1132 q 450 1106 413 1106 q 575 1156 528 1106 q 625 1276 622 1206 l 674 1276 q 656 1190 674 1231 q 607 1121 638 1150 q 536 1075 576 1092 q 450 1058 496 1058 z "},"Ĺ":{"ha":783,"x_min":142,"x_max":764,"o":"m 142 0 l 142 992 l 236 992 l 236 90 l 764 90 l 764 0 l 142 0 m 372 1056 l 499 1242 l 581 1242 q 507 1148 544 1194 q 432 1056 469 1101 l 372 1056 z "},"Ć":{"ha":896,"x_min":69,"x_max":858,"o":"m 858 67 q 740 14 814 39 q 569 -11 667 -11 q 362 29 454 -11 q 205 138 269 69 q 105 297 140 207 q 69 489 69 388 q 110 693 69 599 q 219 856 150 788 q 382 964 289 925 q 581 1003 475 1003 q 656 998 618 1003 q 729 983 694 993 q 793 961 764 974 q 843 933 822 949 q 832 915 836 922 q 824 901 828 908 q 814 883 819 893 q 800 858 808 874 q 697 900 756 886 q 583 914 638 914 q 419 881 496 914 q 287 790 343 847 q 198 656 231 732 q 165 496 165 581 q 194 341 165 415 q 278 210 224 267 q 407 120 332 154 q 574 86 482 86 q 651 92 614 86 q 721 109 689 99 q 777 131 753 119 q 815 153 801 142 l 858 67 m 490 1056 l 617 1242 l 699 1242 q 625 1148 663 1194 q 550 1056 588 1101 l 490 1056 z "},"Č":{"ha":896,"x_min":69,"x_max":858,"o":"m 858 67 q 740 14 814 39 q 569 -11 667 -11 q 362 29 454 -11 q 205 138 269 69 q 105 297 140 207 q 69 489 69 388 q 110 693 69 599 q 219 856 150 788 q 382 964 289 925 q 581 1003 475 1003 q 656 998 618 1003 q 729 983 694 993 q 793 961 764 974 q 843 933 822 949 q 832 915 836 922 q 824 901 828 908 q 814 883 819 893 q 800 858 808 874 q 697 900 756 886 q 583 914 638 914 q 419 881 496 914 q 287 790 343 847 q 198 656 231 732 q 165 496 165 581 q 194 341 165 415 q 278 210 224 267 q 407 120 332 154 q 574 86 482 86 q 651 92 614 86 q 721 109 689 99 q 777 131 753 119 q 815 153 801 142 l 858 67 m 403 1276 l 463 1276 l 571 1124 l 678 1276 l 739 1276 q 654 1150 696 1214 q 571 1024 613 1086 l 403 1276 z "},"Ę":{"ha":850,"x_min":143,"x_max":889,"o":"m 788 0 l 143 0 l 143 992 l 768 992 l 768 906 l 238 906 l 238 543 l 713 543 l 713 454 l 238 454 l 238 89 l 788 89 l 788 0 m 786 0 l 733 0 l 733 -10 q 728 -41 733 -29 q 713 -60 722 -53 q 694 -74 704 -68 q 675 -85 683 -79 q 632 -135 644 -107 q 619 -192 619 -162 q 656 -296 619 -256 q 756 -336 693 -336 q 837 -312 800 -336 q 889 -240 874 -289 q 840 -217 863 -226 q 813 -258 833 -242 q 763 -274 792 -274 q 703 -249 725 -274 q 682 -187 682 -224 q 698 -137 682 -156 q 734 -106 714 -119 q 770 -78 754 -93 q 786 -39 786 -64 l 786 0 z "},"Ě":{"ha":850,"x_min":143,"x_max":788,"o":"m 143 0 l 143 992 l 768 992 l 768 906 l 238 906 l 238 543 l 713 543 l 713 454 l 238 454 l 238 89 l 788 89 l 788 0 l 143 0 m 321 1276 l 381 1276 l 489 1124 l 596 1276 l 657 1276 q 572 1150 614 1214 q 489 1024 531 1086 l 321 1276 z "},"Ď":{"ha":992,"x_min":143,"x_max":921,"o":"m 143 992 l 374 992 q 628 946 524 992 q 797 828 732 900 q 892 666 863 756 q 921 489 921 576 q 881 286 921 376 q 772 132 840 196 q 614 34 704 68 q 422 0 524 0 l 143 0 l 143 992 m 413 90 q 574 118 499 90 q 706 198 650 146 q 794 325 763 250 q 826 494 826 400 q 797 655 826 581 q 711 783 767 729 q 578 869 656 838 q 403 900 500 900 l 239 900 l 239 90 l 413 90 m 297 1276 l 357 1276 l 465 1124 l 572 1276 l 633 1276 q 549 1150 590 1214 q 465 1024 507 1086 l 297 1276 z "},"Đ":{"ha":999,"x_min":60,"x_max":928,"o":"m 60 564 l 150 564 l 150 992 l 381 992 q 635 946 531 992 q 804 828 739 900 q 899 666 869 756 q 928 489 928 576 q 888 286 928 376 q 779 132 847 196 q 621 34 711 68 q 429 0 531 0 l 150 0 l 150 497 l 60 497 l 60 564 m 419 90 q 581 118 506 90 q 713 198 657 146 q 801 325 769 250 q 833 494 833 400 q 803 655 833 581 q 718 783 774 729 q 585 869 663 838 q 410 900 507 900 l 246 900 l 246 564 l 465 564 l 465 497 l 246 497 l 246 90 l 419 90 z "},"Ń":{"ha":1128,"x_min":142,"x_max":986,"o":"m 986 992 l 986 -46 q 887 70 946 3 q 759 214 828 138 q 617 370 690 290 q 476 526 544 450 q 352 669 408 603 q 260 783 296 735 q 247 799 256 789 q 232 819 239 810 l 236 775 l 236 0 l 142 0 l 142 1038 q 240 919 182 986 q 367 778 299 853 q 508 624 436 703 q 648 470 581 544 q 774 330 715 396 q 869 215 832 264 q 881 198 872 208 q 896 178 889 188 l 892 224 l 892 992 l 986 992 m 515 1056 l 642 1242 l 724 1242 q 650 1148 688 1194 q 575 1056 613 1101 l 515 1056 z "},"Ň":{"ha":1128,"x_min":142,"x_max":986,"o":"m 986 992 l 986 -46 q 887 70 946 3 q 759 214 828 138 q 617 370 690 290 q 476 526 544 450 q 352 669 408 603 q 260 783 296 735 q 247 799 256 789 q 232 819 239 810 l 236 775 l 236 0 l 142 0 l 142 1038 q 240 919 182 986 q 367 778 299 853 q 508 624 436 703 q 648 470 581 544 q 774 330 715 396 q 869 215 832 264 q 881 198 872 208 q 896 178 889 188 l 892 224 l 892 992 l 986 992 m 393 1276 l 453 1276 l 561 1124 l 668 1276 l 729 1276 q 644 1150 686 1214 q 561 1024 603 1086 l 393 1276 z "},"Ő":{"ha":1150,"x_min":68,"x_max":1082,"o":"m 68 494 q 108 691 68 599 q 216 853 147 783 q 377 963 285 922 q 574 1003 469 1003 q 771 963 678 1003 q 933 853 864 922 q 1042 691 1001 783 q 1082 494 1082 599 q 1042 298 1082 390 q 933 137 1001 206 q 771 28 864 68 q 574 -11 678 -11 q 377 28 469 -11 q 216 137 285 68 q 108 298 147 206 q 68 494 68 390 m 163 494 q 195 333 163 408 q 283 201 228 257 q 414 112 339 144 q 574 79 489 79 q 734 112 658 79 q 866 201 810 144 q 955 333 922 257 q 988 494 988 408 q 955 656 988 581 q 866 789 922 732 q 734 878 810 846 q 574 911 658 911 q 413 878 488 911 q 283 789 339 846 q 194 656 226 732 q 163 494 163 581 m 688 1053 q 751 1145 719 1099 q 814 1239 782 1192 l 897 1239 q 824 1145 861 1192 q 749 1053 786 1099 l 688 1053 m 383 1053 l 510 1239 l 592 1239 q 518 1145 556 1192 q 443 1053 481 1099 l 383 1053 z "},"Ř":{"ha":838,"x_min":142,"x_max":807,"o":"m 142 0 l 142 992 l 382 992 q 503 974 444 992 q 606 921 561 957 q 678 831 651 885 q 706 701 706 776 q 668 543 706 618 q 544 428 631 468 q 578 372 557 407 q 624 297 599 338 q 676 211 649 256 q 728 126 703 167 q 774 53 753 86 q 807 0 794 19 l 692 0 q 663 46 681 17 q 622 111 644 75 q 575 188 600 147 q 526 267 550 228 q 481 340 503 306 q 444 400 460 375 q 415 397 431 397 q 385 397 400 397 l 236 397 l 236 0 l 142 0 m 236 488 l 383 488 q 494 510 450 488 q 565 565 539 532 q 601 634 590 597 q 611 701 611 671 q 597 775 611 739 q 554 840 582 811 q 483 885 526 868 q 385 903 440 903 l 236 903 l 236 488 m 233 1276 l 293 1276 l 401 1124 l 508 1276 l 569 1276 q 485 1150 526 1214 q 401 1024 443 1086 l 233 1276 z "},"Ů":{"ha":967,"x_min":131,"x_max":836,"o":"m 435 1157 q 451 1117 435 1133 q 492 1100 468 1100 q 532 1117 515 1100 q 549 1157 549 1133 q 532 1197 549 1181 q 492 1214 515 1214 q 451 1197 468 1214 q 435 1157 435 1181 m 386 1158 q 417 1232 386 1201 q 492 1263 447 1263 q 566 1232 536 1263 q 596 1158 596 1201 q 566 1083 596 1114 q 492 1053 536 1053 q 417 1083 447 1053 q 386 1158 386 1114 m 483 -11 q 344 13 408 -11 q 232 82 279 38 q 158 191 185 126 q 131 338 131 256 l 131 992 l 225 992 l 225 342 q 244 233 225 282 q 299 151 264 185 q 381 98 333 117 q 483 79 428 79 q 585 98 538 79 q 667 151 632 117 q 722 233 701 185 q 742 342 742 282 l 742 992 l 836 992 l 836 338 q 809 191 836 256 q 734 82 782 126 q 622 13 686 38 q 483 -11 557 -11 z "},"Ű":{"ha":967,"x_min":131,"x_max":836,"o":"m 483 -11 q 344 13 408 -11 q 232 82 279 38 q 158 191 185 126 q 131 338 131 256 l 131 992 l 225 992 l 225 342 q 244 233 225 282 q 299 151 264 185 q 381 98 333 117 q 483 79 428 79 q 585 98 538 79 q 667 151 632 117 q 722 233 701 185 q 742 342 742 282 l 742 992 l 836 992 l 836 338 q 809 191 836 256 q 734 82 782 126 q 622 13 686 38 q 483 -11 557 -11 m 582 1053 q 645 1145 614 1099 q 708 1239 676 1192 l 792 1239 q 718 1145 756 1192 q 643 1053 681 1099 l 582 1053 m 278 1053 l 404 1239 l 486 1239 q 413 1145 450 1192 q 338 1053 375 1099 l 278 1053 z "},"Ţ":{"ha":746,"x_min":63,"x_max":683,"o":"m 683 992 l 683 901 l 419 901 l 419 0 l 324 0 l 324 901 l 63 901 l 63 992 l 683 992 m 421 -29 l 301 -318 l 226 -318 q 281 -174 254 -244 q 335 -29 307 -103 l 421 -29 z "},"ŕ":{"ha":408,"x_min":96,"x_max":399,"o":"m 383 472 q 303 459 342 472 q 236 422 265 446 q 190 365 207 399 q 172 289 172 331 l 172 0 l 96 0 l 96 556 l 161 556 l 168 413 q 211 477 185 449 q 269 526 238 506 q 334 557 300 546 q 399 568 368 568 l 383 472 m 175 671 l 301 857 l 383 857 q 310 763 347 810 q 235 671 272 717 l 175 671 z "},"ă":{"ha":736,"x_min":54,"x_max":640,"o":"m 54 275 q 77 388 54 335 q 140 482 100 442 q 232 545 179 522 q 344 568 285 568 q 422 557 386 568 q 487 527 458 546 q 535 485 515 508 q 564 440 554 463 l 569 556 l 640 556 l 640 0 l 564 0 l 564 57 q 565 86 564 72 q 565 113 565 100 q 536 67 556 89 q 488 28 517 46 q 424 -1 460 10 q 344 -11 388 -11 q 228 12 282 -11 q 137 74 175 35 q 76 165 99 113 q 54 275 54 217 m 131 279 q 147 194 131 233 q 193 126 164 156 q 262 81 222 97 q 347 64 301 64 q 433 81 393 64 q 501 126 472 97 q 547 194 531 156 q 564 279 564 233 q 547 363 564 324 q 501 431 531 401 q 433 476 472 460 q 347 493 393 493 q 262 476 301 493 q 193 431 222 460 q 147 364 164 403 q 131 279 131 325 m 378 694 q 291 711 332 694 q 219 757 250 728 q 171 826 189 786 q 151 913 153 867 l 199 913 q 214 846 200 876 q 251 792 228 815 q 308 755 275 768 q 378 742 340 742 q 503 792 456 742 q 553 913 550 842 l 601 913 q 583 826 601 867 q 535 757 565 786 q 464 711 504 728 q 378 694 424 694 z "},"ĺ":{"ha":271,"x_min":82,"x_max":290,"o":"m 174 0 l 97 0 l 97 1064 l 174 1064 l 174 0 m 82 1089 l 208 1275 l 290 1275 q 217 1181 254 1228 q 142 1089 179 1135 l 82 1089 z "},"ć":{"ha":575,"x_min":54,"x_max":532,"o":"m 483 110 l 531 53 q 447 6 493 22 q 347 -11 400 -11 q 233 12 286 -11 q 140 74 179 35 q 77 165 100 113 q 54 278 54 218 q 77 391 54 338 q 140 483 100 444 q 233 545 179 522 q 347 568 286 568 q 447 551 400 568 q 532 504 494 535 q 508 476 521 489 q 483 447 496 463 q 347 493 426 493 q 262 476 301 493 q 193 431 222 460 q 147 363 164 403 q 131 278 131 324 q 147 194 131 233 q 193 126 164 156 q 262 81 222 97 q 347 64 301 64 q 483 110 426 64 m 272 671 l 399 857 l 481 857 q 407 763 444 810 q 332 671 369 717 l 272 671 z "},"č":{"ha":575,"x_min":54,"x_max":532,"o":"m 483 110 l 531 53 q 447 6 493 22 q 347 -11 400 -11 q 233 12 286 -11 q 140 74 179 35 q 77 165 100 113 q 54 278 54 218 q 77 391 54 338 q 140 483 100 444 q 233 545 179 522 q 347 568 286 568 q 447 551 400 568 q 532 504 494 535 q 508 476 521 489 q 483 447 496 463 q 347 493 426 493 q 262 476 301 493 q 193 431 222 460 q 147 363 164 403 q 131 278 131 324 q 147 194 131 233 q 193 126 164 156 q 262 81 222 97 q 347 64 301 64 q 483 110 426 64 m 171 924 l 231 924 l 339 771 l 446 924 l 507 924 q 422 797 464 861 q 339 671 381 733 l 171 924 z "},"ę":{"ha":633,"x_min":54,"x_max":603,"o":"m 374 0 l 321 0 l 321 -10 q 215 19 264 -6 q 131 82 167 43 q 75 171 96 121 q 54 278 54 221 q 77 391 54 338 q 140 484 100 444 q 232 547 179 524 q 344 569 285 569 q 503 514 436 569 q 603 372 571 458 q 498 331 556 354 q 380 284 440 308 q 260 235 319 260 q 149 190 200 211 q 226 99 174 133 q 344 64 278 64 q 429 79 389 64 q 497 121 469 94 l 554 67 q 472 15 518 35 q 374 -10 425 -6 l 374 0 m 507 392 q 440 466 483 439 q 344 493 397 493 q 261 476 300 493 q 193 429 222 458 q 147 362 164 400 q 131 281 131 324 q 135 242 131 258 q 226 279 178 260 q 324 319 275 299 q 419 358 372 339 q 507 392 467 376 m 347 -11 q 334 -11 340 -11 q 321 -10 328 -11 q 315 -41 321 -29 q 301 -60 310 -53 q 281 -74 292 -68 q 263 -85 271 -79 q 219 -135 232 -107 q 207 -192 207 -162 q 244 -296 207 -256 q 343 -336 281 -336 q 424 -312 388 -336 q 476 -240 461 -289 q 428 -217 450 -226 q 400 -258 421 -242 q 350 -274 379 -274 q 291 -249 313 -274 q 269 -187 269 -224 q 285 -137 269 -156 q 322 -106 301 -119 q 358 -78 342 -93 q 374 -39 374 -64 l 374 -10 q 360 -11 367 -11 q 347 -11 354 -11 z "},"ě":{"ha":633,"x_min":54,"x_max":603,"o":"m 554 67 q 460 10 514 31 q 347 -11 406 -11 q 233 12 286 -11 q 140 74 179 35 q 77 165 100 113 q 54 278 54 218 q 77 391 54 338 q 140 484 100 444 q 232 547 179 524 q 344 569 285 569 q 503 514 436 569 q 603 372 571 458 q 498 331 556 354 q 380 284 440 308 q 260 235 319 260 q 149 190 200 211 q 226 99 174 133 q 344 64 278 64 q 429 79 389 64 q 497 121 469 94 l 554 67 m 507 392 q 440 466 483 439 q 344 493 397 493 q 261 476 300 493 q 193 429 222 458 q 147 362 164 400 q 131 281 131 324 q 135 242 131 258 q 226 279 178 260 q 324 319 275 299 q 419 358 372 339 q 507 392 467 376 m 160 924 l 219 924 l 328 771 l 435 924 l 496 924 q 411 797 453 861 q 328 671 369 733 l 160 924 z "},"ď":{"ha":736,"x_min":56,"x_max":825,"o":"m 56 278 q 78 394 56 340 q 138 485 100 447 q 228 546 176 524 q 342 568 281 568 q 421 557 385 568 q 485 528 457 546 q 534 486 514 510 q 565 439 554 463 l 565 1064 l 642 1064 l 642 0 l 565 0 l 565 57 q 567 87 565 72 q 568 115 568 101 q 482 26 540 64 q 340 -11 424 -11 q 224 12 276 -11 q 135 74 172 35 q 76 165 97 113 q 56 278 56 218 m 132 279 q 149 194 132 233 q 194 126 165 156 q 263 81 224 97 q 349 64 303 64 q 434 81 394 64 q 503 126 474 97 q 549 194 532 156 q 565 279 565 233 q 549 363 565 324 q 503 431 532 401 q 434 476 474 460 q 349 493 394 493 q 263 476 303 493 q 194 431 224 460 q 149 364 165 403 q 132 279 132 325 m 751 796 l 711 826 q 755 896 742 854 q 758 986 768 938 l 814 996 q 808 885 825 938 q 751 796 792 833 z "},"đ":{"ha":736,"x_min":56,"x_max":728,"o":"m 56 278 q 78 394 56 340 q 138 485 100 447 q 228 546 176 524 q 342 568 281 568 q 421 557 385 568 q 485 528 457 546 q 534 486 514 510 q 565 439 554 463 l 565 847 l 642 847 l 642 0 l 565 0 l 565 57 q 567 87 565 72 q 568 115 568 101 q 482 26 540 64 q 340 -11 424 -11 q 224 12 276 -11 q 135 74 172 35 q 76 165 97 113 q 56 278 56 218 m 132 279 q 149 194 132 233 q 194 126 165 156 q 263 81 224 97 q 349 64 303 64 q 434 81 394 64 q 503 126 474 97 q 549 194 532 156 q 565 279 565 233 q 549 363 565 324 q 503 431 532 401 q 434 476 474 460 q 349 493 394 493 q 263 476 303 493 q 194 431 224 460 q 149 364 165 403 q 132 279 132 325 m 322 847 l 565 847 l 565 914 l 322 914 l 322 847 m 565 1064 l 642 1064 l 642 914 l 565 914 l 565 1064 m 728 847 l 728 914 l 642 914 l 642 847 l 728 847 z "},"ń":{"ha":671,"x_min":96,"x_max":582,"o":"m 96 556 l 161 556 l 168 413 q 258 525 199 482 q 401 568 318 568 q 531 522 483 568 q 582 401 579 476 l 582 0 l 506 0 l 506 375 q 472 456 503 422 q 381 492 442 489 q 299 477 336 492 q 233 436 261 463 q 188 374 204 410 q 172 294 172 338 l 172 0 l 96 0 l 96 556 m 299 671 l 425 857 l 507 857 q 433 763 471 810 q 358 671 396 717 l 299 671 z "},"ň":{"ha":671,"x_min":96,"x_max":582,"o":"m 96 556 l 161 556 l 168 413 q 258 525 199 482 q 401 568 318 568 q 531 522 483 568 q 582 401 579 476 l 582 0 l 506 0 l 506 375 q 472 456 503 422 q 381 492 442 489 q 299 477 336 492 q 233 436 261 463 q 188 374 204 410 q 172 294 172 338 l 172 0 l 96 0 l 96 556 m 176 924 l 236 924 l 344 771 l 451 924 l 513 924 q 428 797 469 861 q 344 671 386 733 l 176 924 z "},"ő":{"ha":692,"x_min":54,"x_max":653,"o":"m 54 278 q 77 391 54 338 q 140 484 100 444 q 233 547 179 524 q 347 569 286 569 q 462 547 408 569 q 554 484 515 524 q 615 391 593 444 q 638 278 638 338 q 615 165 638 218 q 553 74 593 113 q 461 12 514 35 q 346 -11 408 -11 q 232 10 285 -11 q 140 71 179 32 q 77 163 100 110 q 54 278 54 215 m 131 278 q 147 194 131 233 q 193 126 164 156 q 261 81 222 97 q 344 64 300 64 q 428 81 389 64 q 497 126 468 97 q 543 194 526 156 q 560 278 560 233 q 543 362 560 322 q 497 431 526 401 q 428 476 468 460 q 344 493 389 493 q 261 476 300 493 q 193 431 222 460 q 147 362 164 401 q 131 278 131 322 m 443 671 q 506 763 475 717 q 569 857 538 810 l 653 857 q 579 763 617 810 q 504 671 542 717 l 443 671 m 139 671 l 265 857 l 347 857 q 274 763 311 810 q 199 671 236 717 l 139 671 z "},"ř":{"ha":408,"x_min":68,"x_max":404,"o":"m 383 472 q 303 459 342 472 q 236 422 265 446 q 190 365 207 399 q 172 289 172 331 l 172 0 l 96 0 l 96 556 l 161 556 l 168 413 q 211 477 185 449 q 269 526 238 506 q 334 557 300 546 q 399 568 368 568 l 383 472 m 68 924 l 128 924 l 236 771 l 343 924 l 404 924 q 319 797 361 861 q 236 671 278 733 l 68 924 z "},"ů":{"ha":669,"x_min":89,"x_max":575,"o":"m 279 710 q 296 669 279 686 q 336 653 313 653 q 376 669 360 653 q 393 710 393 686 q 376 750 393 733 q 336 767 360 767 q 296 750 313 767 q 279 710 279 733 m 231 711 q 261 785 231 754 q 336 815 292 815 q 411 785 381 815 q 442 711 442 754 q 411 636 442 667 q 336 606 381 606 q 261 636 292 606 q 231 711 231 667 m 575 -7 l 511 -7 l 503 143 q 414 31 474 74 q 269 -12 354 -12 q 140 33 188 -12 q 89 154 92 79 l 89 556 l 165 556 l 165 181 q 199 100 168 133 q 290 64 229 67 q 372 78 333 64 q 438 119 410 93 q 482 181 465 144 q 499 260 499 217 l 499 556 l 575 556 l 575 -7 z "},"ű":{"ha":669,"x_min":89,"x_max":639,"o":"m 575 -7 l 511 -7 l 503 143 q 414 31 474 74 q 269 -12 354 -12 q 140 33 188 -12 q 89 154 92 79 l 89 556 l 165 556 l 165 181 q 199 100 168 133 q 290 64 229 67 q 372 78 333 64 q 438 119 410 93 q 482 181 465 144 q 499 260 499 217 l 499 556 l 575 556 l 575 -7 m 429 671 q 492 763 461 717 q 556 857 524 810 l 639 857 q 565 763 603 810 q 490 671 528 717 l 429 671 m 125 671 l 251 857 l 333 857 q 260 763 297 810 q 185 671 222 717 l 125 671 z "},"ţ":{"ha":397,"x_min":26,"x_max":379,"o":"m 138 799 l 214 799 l 214 550 l 379 550 l 379 481 l 214 481 l 214 0 l 138 0 l 138 481 l 26 481 l 26 550 l 138 550 l 138 799 m 233 -29 l 114 -318 l 39 -318 q 93 -174 67 -244 q 147 -29 119 -103 l 233 -29 z "},"Ħ":{"ha":1063,"x_min":43,"x_max":1015,"o":"m 153 0 l 153 704 l 43 704 l 43 758 l 153 758 l 153 992 l 249 992 l 249 758 l 813 758 l 813 992 l 910 992 l 910 758 l 1015 758 l 1015 704 l 910 704 q 909 506 910 610 q 908 307 908 403 q 907 131 907 211 q 907 0 907 50 l 813 0 l 813 454 l 249 454 l 249 0 l 153 0 m 813 544 l 813 704 l 249 704 l 249 544 l 813 544 z "},"Ĥ":{"ha":1039,"x_min":142,"x_max":899,"o":"m 142 0 l 142 992 l 238 992 l 238 544 l 801 544 l 801 992 l 899 992 q 899 865 899 943 q 899 692 899 786 q 898 497 899 599 q 897 301 897 394 q 897 128 897 207 q 896 0 896 49 l 801 0 l 801 454 l 238 454 l 238 0 l 142 0 m 521 1308 q 604 1182 563 1246 q 689 1056 646 1118 l 628 1056 q 603 1092 617 1072 q 574 1132 589 1111 q 546 1173 560 1153 q 521 1208 532 1193 q 496 1173 510 1193 q 467 1132 482 1153 q 438 1092 451 1111 q 413 1056 424 1072 l 353 1056 l 521 1308 z "},"İ":{"ha":379,"x_min":133,"x_max":243,"o":"m 142 992 l 238 992 l 238 0 l 142 0 l 142 992 m 133 1115 q 151 1155 133 1139 q 189 1171 168 1171 q 226 1155 210 1171 q 243 1115 243 1139 q 226 1075 243 1090 q 189 1060 210 1060 q 151 1075 168 1060 q 133 1115 133 1090 z "},"Ğ":{"ha":949,"x_min":69,"x_max":858,"o":"m 858 454 l 858 60 q 729 8 801 26 q 578 -11 657 -11 q 367 27 461 -11 q 208 132 274 65 q 106 289 142 199 q 69 483 69 379 q 110 691 69 596 q 222 856 151 786 q 385 964 292 925 q 583 1003 479 1003 q 727 985 654 1003 q 857 932 800 967 l 810 854 q 702 898 764 882 q 582 914 640 914 q 422 881 497 914 q 288 790 346 847 q 197 656 231 733 q 164 490 164 578 q 194 332 164 407 q 278 201 224 257 q 408 112 332 144 q 578 79 485 79 q 674 90 624 79 q 771 121 725 100 l 771 371 l 557 371 l 557 454 l 858 454 m 560 1054 q 473 1071 514 1054 q 401 1117 432 1088 q 353 1186 371 1146 q 333 1272 335 1226 l 381 1272 q 396 1206 382 1236 q 433 1151 410 1175 q 490 1115 457 1128 q 560 1101 522 1101 q 685 1151 638 1101 q 735 1272 732 1201 l 783 1272 q 765 1186 783 1226 q 717 1117 747 1146 q 646 1071 686 1088 q 560 1054 606 1054 z "},"Ĵ":{"ha":413,"x_min":-50,"x_max":393,"o":"m -50 -203 l -50 -114 q 42 -92 0 -111 q 113 -39 83 -74 q 160 47 143 -4 q 178 165 178 99 l 178 992 l 274 992 l 274 161 q 249 8 274 75 q 180 -106 224 -60 q 77 -176 136 -151 q -50 -203 18 -201 m 225 1308 q 308 1182 267 1246 q 393 1056 350 1118 l 332 1056 q 307 1092 321 1072 q 278 1132 293 1111 q 250 1173 264 1153 q 225 1208 236 1193 q 200 1173 214 1193 q 171 1132 186 1153 q 142 1092 156 1111 q 117 1056 128 1072 l 57 1056 l 225 1308 z "},"ħ":{"ha":669,"x_min":13,"x_max":581,"o":"m 94 1064 l 171 1064 l 171 829 l 385 829 l 385 775 l 171 775 l 171 421 q 256 526 199 485 q 397 568 314 567 q 529 522 481 568 q 581 401 578 476 l 581 0 l 504 0 l 504 375 q 471 456 501 422 q 379 492 440 489 q 297 477 335 492 q 231 436 260 463 q 187 374 203 410 q 171 294 171 338 l 171 0 l 94 0 l 94 775 l 13 775 l 13 829 l 94 829 l 94 1064 z "},"ĥ":{"ha":669,"x_min":94,"x_max":581,"o":"m 94 1064 l 171 1064 l 171 421 q 256 526 199 485 q 397 568 314 567 q 529 522 481 568 q 581 401 578 476 l 581 0 l 504 0 l 504 375 q 471 456 501 422 q 379 492 440 489 q 297 477 335 492 q 231 436 260 463 q 187 374 203 410 q 171 294 171 338 l 171 0 l 94 0 l 94 1064 m 392 1308 q 475 1182 433 1246 q 560 1056 517 1118 l 499 1056 q 474 1092 488 1072 q 445 1132 460 1111 q 417 1173 431 1153 q 392 1208 403 1193 q 367 1173 381 1193 q 338 1132 353 1153 q 308 1092 322 1111 q 283 1056 294 1072 l 224 1056 l 392 1308 z "},"ı":{"ha":265,"x_min":94,"x_max":171,"o":"m 171 0 l 94 0 l 94 556 l 171 556 l 171 0 z "},"ğ":{"ha":738,"x_min":56,"x_max":642,"o":"m 56 276 q 78 392 56 339 q 139 484 100 444 q 230 546 178 524 q 340 568 282 568 q 424 556 386 568 q 490 524 461 543 q 538 483 518 506 q 565 440 557 461 q 567 497 565 468 q 571 556 569 526 l 642 556 l 642 10 q 624 -101 642 -50 q 569 -188 606 -151 q 478 -246 533 -225 q 347 -267 422 -267 q 209 -237 268 -267 q 89 -151 150 -208 l 139 -99 q 242 -172 193 -151 q 344 -193 292 -193 q 444 -178 403 -193 q 511 -138 485 -164 q 550 -76 538 -112 q 564 6 563 -39 q 564 25 564 17 q 565 57 564 33 q 566 70 565 61 q 567 90 567 79 q 567 109 567 100 q 568 121 568 118 q 484 28 542 68 q 342 -11 426 -11 q 228 11 281 -11 q 138 72 176 33 q 77 163 99 111 q 56 276 56 215 m 132 279 q 149 194 132 233 q 194 126 165 156 q 263 81 224 97 q 349 64 303 64 q 434 81 394 64 q 503 126 474 97 q 549 194 532 156 q 565 279 565 233 q 549 363 565 324 q 503 431 532 401 q 434 476 474 460 q 349 493 394 493 q 263 476 303 493 q 194 431 224 460 q 149 364 165 403 q 132 279 132 325 m 379 694 q 292 711 333 694 q 221 757 251 728 q 172 826 190 786 q 153 913 154 867 l 200 913 q 215 846 201 876 q 253 792 229 815 q 309 755 276 768 q 379 742 342 742 q 504 792 457 742 q 554 913 551 842 l 603 913 q 585 826 603 867 q 536 757 567 786 q 465 711 506 728 q 379 694 425 694 z "},"ĵ":{"ha":265,"x_min":-36,"x_max":300,"o":"m 68 -267 q 40 -240 53 -253 q 14 -211 28 -226 q 73 -124 51 -175 q 94 -4 94 -74 l 94 556 l 171 556 l 171 -4 q 143 -158 171 -92 q 68 -267 115 -224 m 132 922 q 215 796 174 860 q 300 669 257 732 l 239 669 q 214 706 228 686 q 185 746 200 725 q 157 787 171 767 q 132 822 143 807 q 107 787 121 807 q 78 746 93 767 q 49 706 63 725 q 24 669 35 686 l -36 669 l 132 922 z "},"Ċ":{"ha":896,"x_min":69,"x_max":858,"o":"m 858 67 q 740 14 814 39 q 569 -11 667 -11 q 362 29 454 -11 q 205 138 269 69 q 105 297 140 207 q 69 489 69 388 q 110 693 69 599 q 219 856 150 788 q 382 964 289 925 q 581 1003 475 1003 q 656 998 618 1003 q 729 983 694 993 q 793 961 764 974 q 843 933 822 949 q 832 915 836 922 q 824 901 828 908 q 814 883 819 893 q 800 858 808 874 q 697 900 756 886 q 583 914 638 914 q 419 881 496 914 q 287 790 343 847 q 198 656 231 732 q 165 496 165 581 q 194 341 165 415 q 278 210 224 267 q 407 120 332 154 q 574 86 482 86 q 651 92 614 86 q 721 109 689 99 q 777 131 753 119 q 815 153 801 142 l 858 67 m 499 1110 q 516 1149 499 1133 q 554 1165 533 1165 q 592 1149 575 1165 q 608 1110 608 1133 q 592 1069 608 1085 q 554 1054 575 1054 q 516 1069 533 1054 q 499 1110 499 1085 z "},"Ĉ":{"ha":896,"x_min":69,"x_max":858,"o":"m 858 67 q 740 14 814 39 q 569 -11 667 -11 q 362 29 454 -11 q 205 138 269 69 q 105 297 140 207 q 69 489 69 388 q 110 693 69 599 q 219 856 150 788 q 382 964 289 925 q 581 1003 475 1003 q 656 998 618 1003 q 729 983 694 993 q 793 961 764 974 q 843 933 822 949 q 832 915 836 922 q 824 901 828 908 q 814 883 819 893 q 800 858 808 874 q 697 900 756 886 q 583 914 638 914 q 419 881 496 914 q 287 790 343 847 q 198 656 231 732 q 165 496 165 581 q 194 341 165 415 q 278 210 224 267 q 407 120 332 154 q 574 86 482 86 q 651 92 614 86 q 721 109 689 99 q 777 131 753 119 q 815 153 801 142 l 858 67 m 563 1308 q 646 1182 604 1246 q 731 1056 688 1118 l 669 1056 q 644 1092 658 1072 q 616 1132 631 1111 q 588 1173 601 1153 q 563 1208 574 1193 q 538 1173 551 1193 q 508 1132 524 1153 q 479 1092 493 1111 q 454 1056 465 1072 l 394 1056 l 563 1308 z "},"Ġ":{"ha":949,"x_min":69,"x_max":858,"o":"m 858 454 l 858 60 q 729 8 801 26 q 578 -11 657 -11 q 367 27 461 -11 q 208 132 274 65 q 106 289 142 199 q 69 483 69 379 q 110 691 69 596 q 222 856 151 786 q 385 964 292 925 q 583 1003 479 1003 q 727 985 654 1003 q 857 932 800 967 l 810 854 q 702 898 764 882 q 582 914 640 914 q 422 881 497 914 q 288 790 346 847 q 197 656 231 733 q 164 490 164 578 q 194 332 164 407 q 278 201 224 257 q 408 112 332 144 q 578 79 485 79 q 674 90 624 79 q 771 121 725 100 l 771 371 l 557 371 l 557 454 l 858 454 m 489 1110 q 506 1149 489 1133 q 544 1165 524 1165 q 582 1149 565 1165 q 599 1110 599 1133 q 582 1069 599 1085 q 544 1054 565 1054 q 506 1069 524 1054 q 489 1110 489 1085 z "},"Ĝ":{"ha":949,"x_min":69,"x_max":858,"o":"m 858 454 l 858 60 q 729 8 801 26 q 578 -11 657 -11 q 367 27 461 -11 q 208 132 274 65 q 106 289 142 199 q 69 483 69 379 q 110 691 69 596 q 222 856 151 786 q 385 964 292 925 q 583 1003 479 1003 q 727 985 654 1003 q 857 932 800 967 l 810 854 q 702 898 764 882 q 582 914 640 914 q 422 881 497 914 q 288 790 346 847 q 197 656 231 733 q 164 490 164 578 q 194 332 164 407 q 278 201 224 257 q 408 112 332 144 q 578 79 485 79 q 674 90 624 79 q 771 121 725 100 l 771 371 l 557 371 l 557 454 l 858 454 m 568 1308 q 651 1182 610 1246 q 736 1056 693 1118 l 675 1056 q 650 1092 664 1072 q 622 1132 636 1111 q 593 1173 607 1153 q 568 1208 579 1193 q 543 1173 557 1193 q 514 1132 529 1153 q 485 1092 499 1111 q 460 1056 471 1072 l 400 1056 l 568 1308 z "},"Ŭ":{"ha":967,"x_min":131,"x_max":836,"o":"m 483 -11 q 344 13 408 -11 q 232 82 279 38 q 158 191 185 126 q 131 338 131 256 l 131 992 l 225 992 l 225 342 q 244 233 225 282 q 299 151 264 185 q 381 98 333 117 q 483 79 428 79 q 585 98 538 79 q 667 151 632 117 q 722 233 701 185 q 742 342 742 282 l 742 992 l 836 992 l 836 338 q 809 191 836 256 q 734 82 782 126 q 622 13 686 38 q 483 -11 557 -11 m 490 1054 q 403 1071 444 1054 q 332 1117 363 1088 q 283 1186 301 1146 q 264 1272 265 1226 l 311 1272 q 326 1206 313 1236 q 364 1151 340 1175 q 420 1115 388 1128 q 490 1101 453 1101 q 615 1151 568 1101 q 665 1272 663 1201 l 714 1272 q 696 1186 714 1226 q 647 1117 678 1146 q 576 1071 617 1088 q 490 1054 536 1054 z "},"Ŝ":{"ha":765,"x_min":50,"x_max":704,"o":"m 663 940 l 628 864 q 520 897 579 883 q 406 911 461 911 q 316 899 356 911 q 249 864 276 886 q 206 813 221 842 q 192 751 192 785 q 214 683 192 711 q 272 633 236 654 q 354 595 308 613 q 448 560 400 578 q 542 519 496 542 q 624 463 588 496 q 682 383 660 429 q 704 272 704 338 q 681 155 704 207 q 613 66 657 103 q 503 9 568 29 q 357 -11 439 -11 q 249 -1 299 -11 q 162 24 200 10 q 95 54 124 39 q 50 81 67 69 l 93 164 q 149 133 118 149 q 215 107 181 118 q 285 89 249 96 q 356 82 321 82 q 438 92 393 82 q 522 126 483 103 q 585 187 560 150 q 611 276 611 224 q 573 382 611 342 q 478 451 535 422 q 354 501 421 479 q 231 553 288 524 q 135 628 174 583 q 97 743 97 672 q 117 840 97 793 q 176 921 138 886 q 271 976 215 956 q 396 997 326 997 q 476 991 435 997 q 553 976 517 985 q 618 957 589 967 q 663 940 647 947 m 393 1308 q 476 1182 435 1246 q 561 1056 518 1118 l 500 1056 q 475 1092 489 1072 q 447 1132 461 1111 q 418 1173 432 1153 q 393 1208 404 1193 q 368 1173 382 1193 q 339 1132 354 1153 q 310 1092 324 1111 q 285 1056 296 1072 l 225 1056 l 393 1308 z "},"ċ":{"ha":575,"x_min":54,"x_max":532,"o":"m 483 110 l 531 53 q 447 6 493 22 q 347 -11 400 -11 q 233 12 286 -11 q 140 74 179 35 q 77 165 100 113 q 54 278 54 218 q 77 391 54 338 q 140 483 100 444 q 233 545 179 522 q 347 568 286 568 q 447 551 400 568 q 532 504 494 535 q 508 476 521 489 q 483 447 496 463 q 347 493 426 493 q 262 476 301 493 q 193 431 222 460 q 147 363 164 403 q 131 278 131 324 q 147 194 131 233 q 193 126 164 156 q 262 81 222 97 q 347 64 301 64 q 483 110 426 64 m 293 757 q 310 797 293 781 q 349 813 328 813 q 386 797 369 813 q 403 757 403 781 q 386 717 403 732 q 349 701 369 701 q 310 717 328 701 q 293 757 293 732 z "},"ĉ":{"ha":575,"x_min":54,"x_max":532,"o":"m 483 110 l 531 53 q 447 6 493 22 q 347 -11 400 -11 q 233 12 286 -11 q 140 74 179 35 q 77 165 100 113 q 54 278 54 218 q 77 391 54 338 q 140 483 100 444 q 233 545 179 522 q 347 568 286 568 q 447 551 400 568 q 532 504 494 535 q 508 476 521 489 q 483 447 496 463 q 347 493 426 493 q 262 476 301 493 q 193 431 222 460 q 147 363 164 403 q 131 278 131 324 q 147 194 131 233 q 193 126 164 156 q 262 81 222 97 q 347 64 301 64 q 483 110 426 64 m 338 922 q 421 796 379 860 q 506 669 463 732 l 444 669 q 419 706 433 686 q 391 746 406 725 q 363 787 376 767 q 338 822 349 807 q 313 787 326 807 q 283 746 299 767 q 254 706 268 725 q 229 669 240 686 l 169 669 l 338 922 z "},"ġ":{"ha":738,"x_min":56,"x_max":642,"o":"m 56 276 q 78 392 56 339 q 139 484 100 444 q 230 546 178 524 q 340 568 282 568 q 424 556 386 568 q 490 524 461 543 q 538 483 518 506 q 565 440 557 461 q 567 497 565 468 q 571 556 569 526 l 642 556 l 642 10 q 624 -101 642 -50 q 569 -188 606 -151 q 478 -246 533 -225 q 347 -267 422 -267 q 209 -237 268 -267 q 89 -151 150 -208 l 139 -99 q 242 -172 193 -151 q 344 -193 292 -193 q 444 -178 403 -193 q 511 -138 485 -164 q 550 -76 538 -112 q 564 6 563 -39 q 564 25 564 17 q 565 57 564 33 q 566 70 565 61 q 567 90 567 79 q 567 109 567 100 q 568 121 568 118 q 484 28 542 68 q 342 -11 426 -11 q 228 11 281 -11 q 138 72 176 33 q 77 163 99 111 q 56 276 56 215 m 132 279 q 149 194 132 233 q 194 126 165 156 q 263 81 224 97 q 349 64 303 64 q 434 81 394 64 q 503 126 474 97 q 549 194 532 156 q 565 279 565 233 q 549 363 565 324 q 503 431 532 401 q 434 476 474 460 q 349 493 394 493 q 263 476 303 493 q 194 431 224 460 q 149 364 165 403 q 132 279 132 325 m 322 757 q 340 797 322 781 q 378 813 357 813 q 415 797 399 813 q 432 757 432 781 q 415 717 432 732 q 378 701 399 701 q 340 717 357 701 q 322 757 322 732 z "},"ĝ":{"ha":738,"x_min":56,"x_max":642,"o":"m 56 276 q 78 392 56 339 q 139 484 100 444 q 230 546 178 524 q 340 568 282 568 q 424 556 386 568 q 490 524 461 543 q 538 483 518 506 q 565 440 557 461 q 567 497 565 468 q 571 556 569 526 l 642 556 l 642 10 q 624 -101 642 -50 q 569 -188 606 -151 q 478 -246 533 -225 q 347 -267 422 -267 q 209 -237 268 -267 q 89 -151 150 -208 l 139 -99 q 242 -172 193 -151 q 344 -193 292 -193 q 444 -178 403 -193 q 511 -138 485 -164 q 550 -76 538 -112 q 564 6 563 -39 q 564 25 564 17 q 565 57 564 33 q 566 70 565 61 q 567 90 567 79 q 567 109 567 100 q 568 121 568 118 q 484 28 542 68 q 342 -11 426 -11 q 228 11 281 -11 q 138 72 176 33 q 77 163 99 111 q 56 276 56 215 m 132 279 q 149 194 132 233 q 194 126 165 156 q 263 81 224 97 q 349 64 303 64 q 434 81 394 64 q 503 126 474 97 q 549 194 532 156 q 565 279 565 233 q 549 363 565 324 q 503 431 532 401 q 434 476 474 460 q 349 493 394 493 q 263 476 303 493 q 194 431 224 460 q 149 364 165 403 q 132 279 132 325 m 358 924 q 442 797 400 861 q 526 671 483 733 l 465 671 q 440 707 454 688 q 412 747 426 726 q 383 788 397 768 q 358 824 369 808 q 333 788 347 808 q 304 747 319 768 q 275 707 289 726 q 250 671 261 688 l 190 671 l 358 924 z "},"ŭ":{"ha":669,"x_min":89,"x_max":575,"o":"m 575 -7 l 511 -7 l 503 143 q 414 31 474 74 q 269 -12 354 -12 q 140 33 188 -12 q 89 154 92 79 l 89 556 l 165 556 l 165 181 q 199 100 168 133 q 290 64 229 67 q 372 78 333 64 q 438 119 410 93 q 482 181 465 144 q 499 260 499 217 l 499 556 l 575 556 l 575 -7 m 333 694 q 247 711 288 694 q 175 757 206 728 q 126 826 144 786 q 107 913 108 867 l 154 913 q 169 846 156 876 q 207 792 183 815 q 263 755 231 768 q 333 742 296 742 q 458 792 411 742 q 508 913 506 842 l 557 913 q 539 826 557 867 q 490 757 521 786 q 419 711 460 728 q 333 694 379 694 z "},"ŝ":{"ha":461,"x_min":50,"x_max":408,"o":"m 388 503 l 346 449 q 302 477 335 464 q 236 490 269 490 q 206 486 222 490 q 177 473 190 482 q 155 449 164 464 q 146 414 146 435 q 165 363 146 382 q 214 331 185 344 q 277 304 243 317 q 340 274 311 292 q 389 227 369 256 q 408 154 408 199 q 361 37 408 85 q 226 -11 314 -11 q 130 6 179 -11 q 50 58 81 22 q 64 74 56 64 q 79 92 72 83 q 91 106 86 100 q 97 113 96 113 q 115 97 101 106 q 147 81 129 89 q 186 68 165 74 q 226 63 207 63 q 262 67 243 63 q 297 83 281 72 q 322 111 313 94 q 332 151 332 128 q 313 202 332 183 q 264 235 293 221 q 200 260 235 249 q 136 290 165 272 q 88 338 107 308 q 68 413 68 367 q 83 483 68 454 q 122 530 99 511 q 176 557 146 549 q 233 565 206 565 q 313 550 269 565 q 388 503 356 535 m 226 924 q 310 797 268 861 q 394 671 351 733 l 333 671 q 308 707 322 688 q 280 747 294 726 q 251 788 265 768 q 226 824 238 808 q 201 788 215 808 q 172 747 188 768 q 143 707 157 726 q 118 671 129 688 l 58 671 l 226 924 z "},"œ":{"ha":961,"x_min":54,"x_max":931,"o":"m 882 67 q 788 10 842 31 q 675 -11 733 -11 q 588 1 629 -11 q 511 38 546 14 q 433 1 475 14 q 346 -11 392 -11 q 232 10 285 -11 q 140 71 179 32 q 77 163 100 110 q 54 278 54 215 q 77 391 54 338 q 140 484 100 444 q 233 547 179 524 q 347 569 286 569 q 434 556 393 569 q 511 519 475 543 q 587 556 546 543 q 672 569 628 569 q 831 514 764 569 q 931 372 899 458 q 826 331 883 354 q 708 284 768 308 q 588 235 647 260 q 476 190 528 211 q 553 99 501 133 q 672 64 606 64 q 757 79 717 64 q 825 121 797 94 l 882 67 m 344 493 q 261 476 300 493 q 193 431 222 460 q 147 362 164 401 q 131 278 131 322 q 147 194 131 233 q 193 126 164 156 q 261 81 222 97 q 344 64 300 64 q 450 90 401 64 q 400 176 418 128 q 382 278 382 225 q 400 378 382 331 q 450 465 418 426 q 399 485 426 478 q 344 493 372 493 m 835 392 q 768 466 811 439 q 672 493 725 493 q 589 476 628 493 q 521 429 550 458 q 475 362 492 400 q 458 281 458 324 q 463 242 458 258 q 554 279 506 260 q 651 319 603 299 q 747 358 700 339 q 835 392 794 376 z "},"Œ":{"ha":1319,"x_min":68,"x_max":1257,"o":"m 574 -11 q 377 28 469 -11 q 216 137 285 68 q 108 298 147 206 q 68 494 68 390 q 108 691 68 599 q 216 853 147 783 q 377 963 285 922 q 574 1003 469 1003 q 679 992 626 1003 l 1238 992 l 1238 906 l 750 906 l 750 543 l 1182 543 l 1182 454 l 750 454 l 750 89 l 1257 89 l 1257 0 l 681 0 q 574 -11 625 -11 m 574 911 q 413 878 488 911 q 283 789 339 846 q 194 656 226 732 q 163 494 163 581 q 195 333 163 408 q 283 201 228 257 q 414 112 339 144 q 574 79 489 79 q 615 81 594 79 q 654 86 635 82 l 654 903 q 574 911 614 911 z "},"Ÿ":{"ha":883,"x_min":25,"x_max":858,"o":"m 490 346 l 490 0 l 394 0 l 394 346 q 347 427 376 376 q 282 540 317 478 q 209 669 247 601 q 136 798 171 736 q 72 910 101 860 q 25 992 43 961 l 132 992 q 193 886 157 950 q 270 751 229 822 q 352 606 311 679 q 426 471 393 532 l 443 429 l 460 471 q 535 606 494 532 q 615 751 575 679 q 690 886 654 822 q 750 992 725 950 l 858 992 l 490 346 m 263 1129 q 279 1169 263 1153 q 318 1186 296 1186 q 356 1169 339 1186 q 374 1129 374 1153 q 356 1088 374 1104 q 318 1072 339 1072 q 279 1088 296 1072 q 263 1129 263 1104 m 511 1129 q 528 1169 511 1153 q 567 1186 544 1186 q 605 1169 588 1186 q 622 1129 622 1153 q 605 1088 622 1104 q 567 1072 588 1072 q 528 1088 544 1072 q 511 1129 511 1104 z "},"Ẽ":{"ha":850,"x_min":143,"x_max":788,"o":"m 143 0 l 143 992 l 768 992 l 768 906 l 238 906 l 238 543 l 713 543 l 713 454 l 238 454 l 238 89 l 788 89 l 788 0 l 143 0 m 465 1119 q 427 1151 443 1143 q 392 1158 411 1158 q 368 1156 381 1158 q 343 1145 356 1153 q 322 1124 331 1138 q 310 1089 313 1110 l 264 1092 q 277 1140 265 1119 q 306 1176 289 1161 q 344 1197 324 1190 q 386 1204 365 1204 q 443 1192 418 1204 q 490 1156 468 1179 q 528 1124 513 1132 q 564 1117 544 1117 q 587 1119 574 1117 q 613 1130 600 1122 q 634 1151 625 1138 q 646 1186 643 1165 l 692 1183 q 678 1135 690 1156 q 649 1099 667 1114 q 611 1078 632 1085 q 569 1071 590 1071 q 513 1084 538 1071 q 465 1119 488 1097 z "},"Ŗ":{"ha":838,"x_min":142,"x_max":807,"o":"m 142 0 l 142 992 l 382 992 q 503 974 444 992 q 606 921 561 957 q 678 831 651 885 q 706 701 706 776 q 668 543 706 618 q 544 428 631 468 q 578 372 557 407 q 624 297 599 338 q 676 211 649 256 q 728 126 703 167 q 774 53 753 86 q 807 0 794 19 l 692 0 q 663 46 681 17 q 622 111 644 75 q 575 188 600 147 q 526 267 550 228 q 481 340 503 306 q 444 400 460 375 q 415 397 431 397 q 385 397 400 397 l 236 397 l 236 0 l 142 0 m 236 488 l 383 488 q 494 510 450 488 q 565 565 539 532 q 601 634 590 597 q 611 701 611 671 q 597 775 611 739 q 554 840 582 811 q 483 885 526 868 q 385 903 440 903 l 236 903 l 236 488 m 471 -29 l 351 -318 l 276 -318 q 331 -174 304 -244 q 385 -29 357 -103 l 471 -29 z "},"Ĩ":{"ha":379,"x_min":-24,"x_max":404,"o":"m 142 992 l 238 992 l 238 0 l 142 0 l 142 992 m 178 1101 q 140 1133 156 1125 q 104 1140 124 1140 q 81 1138 93 1140 q 56 1127 68 1135 q 34 1106 43 1119 q 22 1071 25 1092 l -24 1074 q -10 1122 -22 1101 q 19 1158 1 1143 q 57 1179 36 1172 q 99 1186 78 1186 q 156 1174 131 1186 q 203 1138 181 1161 q 241 1106 225 1114 q 276 1099 257 1099 q 299 1101 286 1099 q 325 1112 313 1104 q 347 1133 338 1119 q 358 1168 356 1147 l 404 1165 q 391 1117 403 1138 q 362 1081 379 1096 q 324 1060 344 1067 q 282 1053 303 1053 q 225 1066 250 1053 q 178 1101 200 1079 z "},"Ļ":{"ha":783,"x_min":142,"x_max":764,"o":"m 142 0 l 142 992 l 236 992 l 236 90 l 764 90 l 764 0 l 142 0 m 538 -29 l 418 -318 l 343 -318 q 397 -174 371 -244 q 451 -29 424 -103 l 538 -29 z "},"Ē":{"ha":850,"x_min":143,"x_max":788,"o":"m 143 0 l 143 992 l 768 992 l 768 906 l 238 906 l 238 543 l 713 543 l 713 454 l 238 454 l 238 89 l 788 89 l 788 0 l 143 0 m 300 1060 l 300 1114 l 622 1114 l 622 1060 l 300 1060 z "},"Ģ":{"ha":949,"x_min":69,"x_max":858,"o":"m 858 454 l 858 60 q 729 8 801 26 q 578 -11 657 -11 q 367 27 461 -11 q 208 132 274 65 q 106 289 142 199 q 69 483 69 379 q 110 691 69 596 q 222 856 151 786 q 385 964 292 925 q 583 1003 479 1003 q 727 985 654 1003 q 857 932 800 967 l 810 854 q 702 898 764 882 q 582 914 640 914 q 422 881 497 914 q 288 790 346 847 q 197 656 231 733 q 164 490 164 578 q 194 332 164 407 q 278 201 224 257 q 408 112 332 144 q 578 79 485 79 q 674 90 624 79 q 771 121 725 100 l 771 371 l 557 371 l 557 454 l 858 454 m 590 -29 l 471 -318 l 396 -318 q 450 -174 424 -244 q 504 -29 476 -103 l 590 -29 z "},"Ŧ":{"ha":746,"x_min":63,"x_max":683,"o":"m 211 643 l 211 697 l 324 697 l 324 901 l 63 901 l 63 992 l 683 992 l 683 901 l 419 901 l 419 697 l 533 697 l 533 643 l 419 643 l 419 0 l 324 0 l 324 643 l 211 643 z "},"ŗ":{"ha":408,"x_min":68,"x_max":399,"o":"m 383 472 q 303 459 342 472 q 236 422 265 446 q 190 365 207 399 q 172 289 172 331 l 172 0 l 96 0 l 96 556 l 161 556 l 168 413 q 211 477 185 449 q 269 526 238 506 q 334 557 300 546 q 399 568 368 568 l 383 472 m 263 -29 l 143 -318 l 68 -318 q 122 -174 96 -244 q 176 -29 149 -103 l 263 -29 z "},"ē":{"ha":633,"x_min":54,"x_max":603,"o":"m 554 67 q 460 10 514 31 q 347 -11 406 -11 q 233 12 286 -11 q 140 74 179 35 q 77 165 100 113 q 54 278 54 218 q 77 391 54 338 q 140 484 100 444 q 232 547 179 524 q 344 569 285 569 q 503 514 436 569 q 603 372 571 458 q 498 331 556 354 q 380 284 440 308 q 260 235 319 260 q 149 190 200 211 q 226 99 174 133 q 344 64 278 64 q 429 79 389 64 q 497 121 469 94 l 554 67 m 507 392 q 440 466 483 439 q 344 493 397 493 q 261 476 300 493 q 193 429 222 458 q 147 362 164 400 q 131 281 131 324 q 135 242 131 258 q 226 279 178 260 q 324 319 275 299 q 419 358 372 339 q 507 392 467 376 m 183 676 l 183 731 l 506 731 l 506 676 l 183 676 z "},"ģ":{"ha":738,"x_min":56,"x_max":642,"o":"m 56 276 q 78 392 56 339 q 139 484 100 444 q 230 546 178 524 q 340 568 282 568 q 424 556 386 568 q 490 524 461 543 q 538 483 518 506 q 565 440 557 461 q 567 497 565 468 q 571 556 569 526 l 642 556 l 642 10 q 624 -101 642 -50 q 569 -188 606 -151 q 478 -246 533 -225 q 347 -267 422 -267 q 209 -237 268 -267 q 89 -151 150 -208 l 139 -99 q 242 -172 193 -151 q 344 -193 292 -193 q 444 -178 403 -193 q 511 -138 485 -164 q 550 -76 538 -112 q 564 6 563 -39 q 564 25 564 17 q 565 57 564 33 q 566 70 565 61 q 567 90 567 79 q 567 109 567 100 q 568 121 568 118 q 484 28 542 68 q 342 -11 426 -11 q 228 11 281 -11 q 138 72 176 33 q 77 163 99 111 q 56 276 56 215 m 132 279 q 149 194 132 233 q 194 126 165 156 q 263 81 224 97 q 349 64 303 64 q 434 81 394 64 q 503 126 474 97 q 549 194 532 156 q 565 279 565 233 q 549 363 565 324 q 503 431 532 401 q 434 476 474 460 q 349 493 394 493 q 263 476 303 493 q 194 431 224 460 q 149 364 165 403 q 132 279 132 325 m 322 704 l 442 993 l 517 993 q 463 849 489 919 q 408 704 436 778 l 322 704 z "},"ŧ":{"ha":397,"x_min":26,"x_max":379,"o":"m 40 676 l 40 731 l 138 731 l 138 799 l 214 799 l 214 731 l 363 731 l 363 676 l 214 676 l 214 550 l 379 550 l 379 481 l 214 481 l 214 0 l 138 0 l 138 481 l 26 481 l 26 550 l 138 550 l 138 676 l 40 676 z "},"Ā":{"ha":897,"x_min":21,"x_max":878,"o":"m 878 0 q 822 133 856 50 q 747 314 788 215 q 663 519 707 413 q 579 724 619 625 q 504 904 539 822 q 449 1038 469 986 q 392 904 426 986 q 318 724 358 822 q 235 519 278 625 q 151 314 192 413 q 76 133 111 215 q 21 0 42 50 l 115 0 q 181 157 143 64 q 258 354 218 250 l 639 354 q 717 157 679 250 q 782 0 754 64 l 878 0 m 435 794 q 442 813 438 800 q 449 838 446 826 q 456 813 451 826 q 463 794 460 800 q 528 635 490 729 q 607 436 565 540 l 290 436 q 369 635 331 540 q 435 794 407 729 m 288 1071 l 288 1125 l 610 1125 l 610 1071 l 288 1071 z "},"Į":{"ha":379,"x_min":31,"x_max":300,"o":"m 238 0 l 142 0 l 142 992 l 238 992 l 238 0 m 197 0 l 144 0 l 144 -10 q 139 -41 144 -29 q 124 -60 133 -53 q 105 -74 115 -68 q 86 -85 94 -79 q 43 -135 56 -107 q 31 -192 31 -162 q 67 -296 31 -256 q 167 -336 104 -336 q 248 -312 211 -336 q 300 -240 285 -289 q 251 -217 274 -226 q 224 -258 244 -242 q 174 -274 203 -274 q 115 -249 136 -274 q 93 -187 93 -224 q 109 -137 93 -156 q 145 -106 125 -119 q 181 -78 165 -93 q 197 -39 197 -64 l 197 0 z "},"ĩ":{"ha":265,"x_min":-82,"x_max":346,"o":"m 171 0 l 94 0 l 94 556 l 171 556 l 171 0 m 119 693 q 81 724 97 717 q 46 732 65 732 q 22 729 35 732 q -3 719 10 726 q -24 697 -15 711 q -36 663 -33 683 l -82 665 q -69 714 -81 693 q -40 749 -57 735 q -1 771 -22 764 q 40 778 19 778 q 97 765 72 778 q 144 729 122 753 q 183 698 167 706 q 218 690 199 690 q 241 693 228 690 q 267 703 254 696 q 288 725 279 711 q 300 760 297 739 l 346 757 q 333 708 344 729 q 303 673 321 688 q 265 651 286 658 q 224 644 244 644 q 167 658 192 644 q 119 693 142 671 z "},"ļ":{"ha":271,"x_min":-3,"x_max":192,"o":"m 174 0 l 97 0 l 97 1064 l 174 1064 l 174 0 m 192 -29 l 72 -318 l -3 -318 q 51 -174 25 -244 q 106 -29 78 -103 l 192 -29 z "},"Ė":{"ha":850,"x_min":143,"x_max":788,"o":"m 143 0 l 143 992 l 768 992 l 768 906 l 238 906 l 238 543 l 713 543 l 713 454 l 238 454 l 238 89 l 788 89 l 788 0 l 143 0 m 413 1110 q 430 1149 413 1133 q 468 1165 447 1165 q 506 1149 489 1165 q 522 1110 522 1133 q 506 1069 522 1085 q 468 1054 489 1054 q 430 1069 447 1054 q 413 1110 413 1085 z "},"Ī":{"ha":379,"x_min":32,"x_max":354,"o":"m 142 992 l 238 992 l 238 0 l 142 0 l 142 992 m 32 1071 l 32 1125 l 354 1125 l 354 1071 l 32 1071 z "},"Ņ":{"ha":1128,"x_min":142,"x_max":986,"o":"m 986 992 l 986 -46 q 887 70 946 3 q 759 214 828 138 q 617 370 690 290 q 476 526 544 450 q 352 669 408 603 q 260 783 296 735 q 247 799 256 789 q 232 819 239 810 l 236 775 l 236 0 l 142 0 l 142 1038 q 240 919 182 986 q 367 778 299 853 q 508 624 436 703 q 648 470 581 544 q 774 330 715 396 q 869 215 832 264 q 881 198 872 208 q 896 178 889 188 l 892 224 l 892 992 l 986 992 m 603 -29 l 483 -318 l 408 -318 q 463 -174 436 -244 q 517 -29 489 -103 l 603 -29 z "},"Ķ":{"ha":865,"x_min":142,"x_max":865,"o":"m 746 0 q 546 256 642 132 q 346 514 450 381 q 296 465 321 489 q 244 418 271 442 q 245 209 244 310 q 246 0 246 108 l 142 0 l 142 992 l 246 992 l 246 575 q 244 553 246 564 q 242 529 243 542 q 255 546 249 539 q 268 563 261 553 q 486 776 379 667 q 704 992 593 886 l 826 992 q 624 785 725 889 q 419 579 522 682 q 643 290 536 431 q 865 0 750 149 l 746 0 m 531 -29 l 411 -318 l 336 -318 q 390 -174 364 -244 q 444 -29 417 -103 l 531 -29 z "},"ņ":{"ha":671,"x_min":96,"x_max":582,"o":"m 96 556 l 161 556 l 168 413 q 258 525 199 482 q 401 568 318 568 q 531 522 483 568 q 582 401 579 476 l 582 0 l 506 0 l 506 375 q 472 456 503 422 q 381 492 442 489 q 299 477 336 492 q 233 436 261 463 q 188 374 204 410 q 172 294 172 338 l 172 0 l 96 0 l 96 556 m 393 -29 l 274 -318 l 199 -318 q 253 -174 226 -244 q 307 -29 279 -103 l 393 -29 z "},"ķ":{"ha":574,"x_min":94,"x_max":557,"o":"m 471 569 l 517 522 q 416 427 464 474 q 315 332 368 381 l 557 0 l 468 0 l 261 281 l 171 197 l 171 0 l 94 0 l 94 1064 l 171 1064 l 171 289 q 321 428 249 361 q 471 569 393 496 m 392 -29 l 272 -318 l 197 -318 q 251 -174 225 -244 q 306 -29 278 -103 l 392 -29 z "},"Ō":{"ha":1150,"x_min":68,"x_max":1082,"o":"m 68 494 q 108 691 68 599 q 216 853 147 783 q 377 963 285 922 q 574 1003 469 1003 q 771 963 678 1003 q 933 853 864 922 q 1042 691 1001 783 q 1082 494 1082 599 q 1042 298 1082 390 q 933 137 1001 206 q 771 28 864 68 q 574 -11 678 -11 q 377 28 469 -11 q 216 137 285 68 q 108 298 147 206 q 68 494 68 390 m 163 494 q 195 333 163 408 q 283 201 228 257 q 414 112 339 144 q 574 79 489 79 q 734 112 658 79 q 866 201 810 144 q 955 333 922 257 q 988 494 988 408 q 955 656 988 581 q 866 789 922 732 q 734 878 810 846 q 574 911 658 911 q 413 878 488 911 q 283 789 339 846 q 194 656 226 732 q 163 494 163 581 m 417 1071 l 417 1125 l 739 1125 l 739 1071 l 417 1071 z "},"Ū":{"ha":967,"x_min":131,"x_max":836,"o":"m 483 -11 q 344 13 408 -11 q 232 82 279 38 q 158 191 185 126 q 131 338 131 256 l 131 992 l 225 992 l 225 342 q 244 233 225 282 q 299 151 264 185 q 381 98 333 117 q 483 79 428 79 q 585 98 538 79 q 667 151 632 117 q 722 233 701 185 q 742 342 742 282 l 742 992 l 836 992 l 836 338 q 809 191 836 256 q 734 82 782 126 q 622 13 686 38 q 483 -11 557 -11 m 333 1071 l 333 1125 l 656 1125 l 656 1071 l 333 1071 z "},"ō":{"ha":692,"x_min":54,"x_max":638,"o":"m 54 278 q 77 391 54 338 q 140 484 100 444 q 233 547 179 524 q 347 569 286 569 q 462 547 408 569 q 554 484 515 524 q 615 391 593 444 q 638 278 638 338 q 615 165 638 218 q 553 74 593 113 q 461 12 514 35 q 346 -11 408 -11 q 232 10 285 -11 q 140 71 179 32 q 77 163 100 110 q 54 278 54 215 m 131 278 q 147 194 131 233 q 193 126 164 156 q 261 81 222 97 q 344 64 300 64 q 428 81 389 64 q 497 126 468 97 q 543 194 526 156 q 560 278 560 233 q 543 362 560 322 q 497 431 526 401 q 428 476 468 460 q 344 493 389 493 q 261 476 300 493 q 193 431 222 460 q 147 362 164 401 q 131 278 131 322 m 190 676 l 190 731 l 513 731 l 513 676 l 190 676 z "},"ū":{"ha":669,"x_min":89,"x_max":575,"o":"m 575 -7 l 511 -7 l 503 143 q 414 31 474 74 q 269 -12 354 -12 q 140 33 188 -12 q 89 154 92 79 l 89 556 l 165 556 l 165 181 q 199 100 168 133 q 290 64 229 67 q 372 78 333 64 q 438 119 410 93 q 482 181 465 144 q 499 260 499 217 l 499 556 l 575 556 l 575 -7 m 171 676 l 171 731 l 493 731 l 493 676 l 171 676 z "},"ā":{"ha":736,"x_min":54,"x_max":640,"o":"m 54 275 q 77 388 54 335 q 140 482 100 442 q 232 545 179 522 q 344 568 285 568 q 422 557 386 568 q 487 527 458 546 q 535 485 515 508 q 564 440 554 463 l 569 556 l 640 556 l 640 0 l 564 0 l 564 57 q 565 86 564 72 q 565 113 565 100 q 536 67 556 89 q 488 28 517 46 q 424 -1 460 10 q 344 -11 388 -11 q 228 12 282 -11 q 137 74 175 35 q 76 165 99 113 q 54 275 54 217 m 131 279 q 147 194 131 233 q 193 126 164 156 q 262 81 222 97 q 347 64 301 64 q 433 81 393 64 q 501 126 472 97 q 547 194 531 156 q 564 279 564 233 q 547 363 564 324 q 501 431 531 401 q 433 476 472 460 q 347 493 393 493 q 262 476 301 493 q 193 431 222 460 q 147 364 164 403 q 131 279 131 325 m 215 676 l 215 731 l 538 731 l 538 676 l 215 676 z "},"Ų":{"ha":965,"x_min":131,"x_max":836,"o":"m 539 0 l 486 0 l 486 -10 l 486 -11 l 483 -11 q 344 13 408 -11 q 232 82 279 38 q 158 191 185 126 q 131 338 131 256 l 131 992 l 225 992 l 225 342 q 244 233 225 282 q 299 151 264 185 q 381 98 333 117 q 483 79 428 79 q 585 98 538 79 q 667 151 632 117 q 722 233 701 185 q 742 342 742 282 l 742 992 l 836 992 l 836 338 q 813 204 836 264 q 751 100 790 144 q 657 28 711 56 q 539 -7 603 1 l 539 0 m 486 -11 q 480 -42 486 -31 q 465 -60 474 -53 q 447 -74 457 -68 q 428 -85 436 -79 q 385 -135 397 -107 q 372 -192 372 -162 q 409 -296 372 -256 q 508 -336 446 -336 q 590 -312 553 -336 q 642 -240 626 -289 q 593 -217 615 -226 q 565 -258 586 -242 q 515 -274 544 -274 q 456 -249 478 -274 q 435 -187 435 -224 q 451 -137 435 -156 q 487 -106 467 -119 q 523 -78 507 -93 q 539 -39 539 -64 l 539 -7 q 513 -10 525 -8 q 486 -11 500 -11 z "},"ī":{"ha":265,"x_min":-28,"x_max":294,"o":"m 171 0 l 94 0 l 94 556 l 171 556 l 171 0 m -28 676 l -28 731 l 294 731 l 294 676 l -28 676 z "},"ų":{"ha":671,"x_min":89,"x_max":664,"o":"m 561 0 l 510 0 l 503 143 q 414 31 474 74 q 269 -12 354 -12 q 140 33 188 -12 q 89 154 92 79 l 89 556 l 165 556 l 165 181 q 199 100 168 133 q 290 64 229 67 q 372 78 333 64 q 438 119 410 93 q 482 181 465 144 q 499 260 499 217 l 499 556 l 575 556 l 575 -7 l 561 -7 l 561 0 m 510 0 l 508 0 l 508 -10 q 503 -41 508 -29 q 488 -60 497 -53 q 469 -74 479 -68 q 450 -85 458 -79 q 407 -135 419 -107 q 394 -192 394 -162 q 431 -296 394 -256 q 531 -336 468 -336 q 612 -312 575 -336 q 664 -240 649 -289 q 615 -217 638 -226 q 588 -258 608 -242 q 538 -274 567 -274 q 478 -249 500 -274 q 457 -187 457 -224 q 473 -137 457 -156 q 509 -106 489 -119 q 545 -78 529 -93 q 561 -39 561 -64 l 561 -7 l 511 -7 l 510 0 z "},"Ũ":{"ha":967,"x_min":131,"x_max":836,"o":"m 483 -11 q 344 13 408 -11 q 232 82 279 38 q 158 191 185 126 q 131 338 131 256 l 131 992 l 225 992 l 225 342 q 244 233 225 282 q 299 151 264 185 q 381 98 333 117 q 483 79 428 79 q 585 98 538 79 q 667 151 632 117 q 722 233 701 185 q 742 342 742 282 l 742 992 l 836 992 l 836 338 q 809 191 836 256 q 734 82 782 126 q 622 13 686 38 q 483 -11 557 -11 m 483 1101 q 445 1133 461 1125 q 410 1140 429 1140 q 386 1138 399 1140 q 361 1127 374 1135 q 340 1106 349 1119 q 328 1071 331 1092 l 282 1074 q 295 1122 283 1101 q 324 1158 307 1143 q 363 1179 342 1172 q 404 1186 383 1186 q 461 1174 436 1186 q 508 1138 486 1161 q 547 1106 531 1114 q 582 1099 563 1099 q 605 1101 592 1099 q 631 1112 618 1104 q 652 1133 643 1119 q 664 1168 661 1147 l 710 1165 q 697 1117 708 1138 q 667 1081 685 1096 q 629 1060 650 1067 q 588 1053 608 1053 q 531 1066 556 1053 q 483 1101 506 1079 z "},"ũ":{"ha":669,"x_min":89,"x_max":575,"o":"m 575 -7 l 511 -7 l 503 143 q 414 31 474 74 q 269 -12 354 -12 q 140 33 188 -12 q 89 154 92 79 l 89 556 l 165 556 l 165 181 q 199 100 168 133 q 290 64 229 67 q 372 78 333 64 q 438 119 410 93 q 482 181 465 144 q 499 260 499 217 l 499 556 l 575 556 l 575 -7 m 331 693 q 292 724 308 717 q 257 732 276 732 q 233 729 246 732 q 208 719 221 726 q 187 697 196 711 q 175 663 178 683 l 129 665 q 142 714 131 693 q 172 749 154 735 q 210 771 189 764 q 251 778 231 778 q 308 765 283 778 q 356 729 333 753 q 394 698 378 706 q 429 690 410 690 q 452 693 439 690 q 478 703 465 696 q 499 725 490 711 q 511 760 508 739 l 557 757 q 544 708 556 729 q 515 673 532 688 q 476 651 497 658 q 435 644 456 644 q 378 658 403 644 q 331 693 353 671 z "},"ė":{"ha":633,"x_min":54,"x_max":603,"o":"m 554 67 q 460 10 514 31 q 347 -11 406 -11 q 233 12 286 -11 q 140 74 179 35 q 77 165 100 113 q 54 278 54 218 q 77 391 54 338 q 140 484 100 444 q 232 547 179 524 q 344 569 285 569 q 503 514 436 569 q 603 372 571 458 q 498 331 556 354 q 380 284 440 308 q 260 235 319 260 q 149 190 200 211 q 226 99 174 133 q 344 64 278 64 q 429 79 389 64 q 497 121 469 94 l 554 67 m 507 392 q 440 466 483 439 q 344 493 397 493 q 261 476 300 493 q 193 429 222 458 q 147 362 164 400 q 131 281 131 324 q 135 242 131 258 q 226 279 178 260 q 324 319 275 299 q 419 358 372 339 q 507 392 467 376 m 283 757 q 301 797 283 781 q 339 813 318 813 q 376 797 360 813 q 393 757 393 781 q 376 717 393 732 q 339 701 360 701 q 301 717 318 701 q 283 757 283 732 z "},"į":{"ha":265,"x_min":-19,"x_max":250,"o":"m 78 757 q 95 797 78 781 q 133 813 113 813 q 171 797 154 813 q 188 757 188 781 q 171 717 188 732 q 133 701 154 701 q 95 717 113 701 q 78 757 78 732 m 171 0 l 94 0 l 94 556 l 171 556 l 171 0 m 147 0 l 94 0 l 94 -10 q 89 -41 94 -29 q 74 -60 83 -53 q 55 -74 65 -68 q 36 -85 44 -79 q -7 -135 6 -107 q -19 -192 -19 -162 q 17 -296 -19 -256 q 117 -336 54 -336 q 198 -312 161 -336 q 250 -240 235 -289 q 201 -217 224 -226 q 174 -258 194 -242 q 124 -274 153 -274 q 65 -249 86 -274 q 43 -187 43 -224 q 59 -137 43 -156 q 95 -106 75 -119 q 131 -78 115 -93 q 147 -39 147 -64 l 147 0 z "},"…":{"ha":749,"x_min":89,"x_max":658,"o":"m 89 57 q 106 97 89 81 q 144 114 122 114 q 183 97 165 114 q 200 57 200 81 q 183 16 200 32 q 144 0 165 0 q 106 16 122 0 q 89 57 89 32 m 317 57 q 334 97 317 81 q 374 114 351 114 q 412 97 394 114 q 429 57 429 81 q 412 16 429 32 q 374 0 394 0 q 334 16 351 0 q 317 57 317 32 m 546 57 q 563 97 546 81 q 603 114 581 114 q 640 97 622 114 q 658 57 658 81 q 640 16 658 32 q 603 0 622 0 q 563 16 581 0 q 546 57 546 32 z "},"‰":{"ha":1364,"x_min":60,"x_max":1311,"o":"m 622 156 q 647 92 622 118 q 711 67 672 67 q 775 92 750 67 q 800 156 800 118 q 775 219 800 193 q 711 244 750 244 q 647 219 672 244 q 622 156 622 193 m 711 -12 q 645 1 676 -12 q 591 37 614 14 q 555 90 568 60 q 542 157 542 121 q 555 222 542 192 q 591 274 568 251 q 645 310 614 297 q 711 324 676 324 q 776 310 746 324 q 830 274 807 297 q 867 222 853 251 q 881 157 881 192 q 867 90 881 121 q 830 37 853 60 q 776 1 807 14 q 711 -12 746 -12 m 142 544 q 167 481 142 507 q 231 456 192 456 q 293 481 268 456 q 318 544 318 507 q 293 607 318 582 q 231 632 268 632 q 167 607 192 632 q 142 544 142 582 m 231 376 q 165 390 196 376 q 110 425 133 403 q 74 478 88 447 q 60 544 60 508 q 74 610 60 579 q 110 663 88 640 q 165 699 133 686 q 231 713 196 713 q 295 699 264 713 q 349 663 326 686 q 386 610 372 640 q 400 544 400 579 q 386 478 400 508 q 349 425 372 447 q 295 390 326 403 q 231 376 264 376 m 214 0 q 422 350 318 176 q 631 700 526 524 l 719 700 q 511 350 615 524 q 303 0 407 176 l 214 0 m 1053 156 q 1078 92 1053 118 q 1142 67 1103 67 q 1206 92 1181 67 q 1231 156 1231 118 q 1206 219 1231 193 q 1142 244 1181 244 q 1078 219 1103 244 q 1053 156 1053 193 m 1142 -12 q 1076 1 1107 -12 q 1022 37 1044 14 q 985 90 999 60 q 972 157 972 121 q 985 222 972 192 q 1022 274 999 251 q 1076 310 1044 297 q 1142 324 1107 324 q 1207 310 1176 324 q 1260 274 1238 297 q 1297 222 1283 251 q 1311 157 1311 192 q 1297 90 1311 121 q 1260 37 1283 60 q 1207 1 1238 14 q 1142 -12 1176 -12 z "},"ˆ":{"ha":625,"x_min":157,"x_max":493,"o":"m 325 924 q 408 797 367 861 q 493 671 450 733 l 432 671 q 407 707 421 688 q 378 747 393 726 q 350 788 364 768 q 325 824 336 808 q 300 788 314 808 q 271 747 286 768 q 242 707 256 726 q 217 671 228 688 l 157 671 l 325 924 z "},"˜":{"ha":828,"x_min":229,"x_max":657,"o":"m 431 693 q 392 724 408 717 q 357 732 376 732 q 333 729 346 732 q 308 719 321 726 q 287 697 296 711 q 275 663 278 683 l 229 665 q 242 714 231 693 q 272 749 254 735 q 310 771 289 764 q 351 778 331 778 q 408 765 383 778 q 456 729 433 753 q 494 698 478 706 q 529 690 510 690 q 552 693 539 690 q 578 703 565 696 q 599 725 590 711 q 611 760 608 739 l 657 757 q 644 708 656 729 q 615 673 632 688 q 576 651 597 658 q 535 644 556 644 q 478 658 503 644 q 431 693 453 671 z "},"ﬁ":{"ha":721,"x_min":39,"x_max":625,"o":"m 39 481 l 39 556 l 135 556 l 135 718 q 216 973 135 888 q 432 1064 297 1058 l 432 990 q 270 916 329 988 q 211 718 211 844 l 211 556 l 625 556 l 625 0 l 549 0 l 549 481 l 211 481 l 211 0 l 135 0 l 135 481 l 39 481 z "},"ﬂ":{"ha":713,"x_min":39,"x_max":615,"o":"m 39 479 l 39 554 l 135 554 l 135 718 q 216 973 135 888 q 432 1064 297 1058 l 615 1064 l 615 0 l 539 0 l 539 990 l 432 990 q 270 916 329 988 q 211 718 211 844 l 211 554 l 393 554 l 393 479 l 211 479 l 211 0 l 135 0 l 135 479 l 39 479 z "},"˚":{"ha":664,"x_min":253,"x_max":464,"o":"m 301 710 q 318 669 301 686 q 358 653 335 653 q 399 669 382 653 q 415 710 415 686 q 399 750 415 733 q 358 767 382 767 q 318 750 335 767 q 301 710 301 733 m 253 711 q 283 785 253 754 q 358 815 314 815 q 433 785 403 815 q 464 711 464 754 q 433 636 464 667 q 358 606 403 606 q 283 636 314 606 q 253 711 253 667 z "},"⁄":{"ha":472,"x_min":0,"x_max":472,"o":"m 0 0 l 390 1057 l 472 1057 l 82 0 l 0 0 z "},"ƒ":{"ha":501,"x_min":-51,"x_max":467,"o":"m 246 479 l 246 110 q 165 -145 246 -60 q -51 -235 83 -231 l -51 -162 q 110 -87 51 -158 q 169 110 169 -17 l 169 479 l 74 479 l 74 554 l 169 554 l 169 718 q 251 973 169 888 q 467 1064 332 1058 l 467 990 q 305 916 364 988 q 246 718 246 844 l 246 554 l 428 554 l 428 479 l 246 479 z "},"†":{"ha":475,"x_min":88,"x_max":388,"o":"m 197 44 l 197 554 l 88 554 l 88 633 l 197 633 l 197 828 l 278 828 l 278 633 l 388 633 l 388 554 l 278 554 l 278 44 l 197 44 z "},"‡":{"ha":557,"x_min":69,"x_max":488,"o":"m 238 44 l 238 335 l 69 335 l 69 414 l 238 414 l 238 554 l 128 554 l 128 633 l 238 633 l 238 828 l 318 828 l 318 633 l 428 633 l 428 554 l 318 554 l 318 414 l 488 414 l 488 335 l 318 335 l 318 44 l 238 44 z "},"™":{"ha":814,"x_min":60,"x_max":699,"o":"m 350 1067 q 388 1011 364 1046 q 438 940 413 976 q 488 871 464 904 q 524 819 511 838 l 699 1067 l 699 692 l 663 692 l 663 950 q 663 959 663 954 q 664 967 664 964 q 632 921 651 949 q 592 863 613 893 q 553 807 572 833 q 524 764 535 781 q 492 808 514 778 q 449 870 471 838 q 408 931 426 903 q 383 967 389 958 q 384 959 383 964 q 385 950 385 954 l 385 692 l 350 692 l 350 1067 m 283 1051 l 283 1018 l 188 1018 l 188 692 l 156 692 l 156 1018 l 60 1018 l 60 1051 l 283 1051 z "},"−":{"ha":701,"x_min":99,"x_max":603,"o":"m 603 239 l 99 239 l 99 318 l 603 318 l 603 239 z "},"∫":{"ha":449,"x_min":42,"x_max":407,"o":"m 183 879 q 195 977 183 943 q 228 1026 207 1011 q 276 1043 249 1042 q 332 1044 303 1044 l 407 1044 l 407 965 l 339 965 q 281 935 296 965 q 265 817 265 904 l 265 -25 q 253 -135 265 -97 q 222 -189 242 -172 q 175 -207 203 -206 q 117 -208 147 -208 l 42 -208 l 42 -129 l 110 -129 q 168 -99 153 -129 q 183 19 183 -68 l 183 879 z "},"∏":{"ha":642,"x_min":150,"x_max":492,"o":"m 231 -92 l 150 -92 l 150 1050 l 492 1050 l 492 -92 l 411 -92 l 411 971 l 231 971 l 231 -92 z "},"π":{"ha":556,"x_min":49,"x_max":504,"o":"m 204 392 l 204 0 l 122 0 l 122 392 l 49 392 l 49 471 l 504 471 l 504 392 l 438 392 l 438 0 l 357 0 l 357 392 l 204 392 z "},"€":{"ha":756,"x_min":57,"x_max":688,"o":"m 57 556 l 153 556 q 195 699 165 632 q 272 815 225 765 q 383 892 319 864 q 525 921 446 921 q 618 908 578 921 q 679 883 658 894 l 643 813 q 587 835 615 828 q 522 842 558 842 q 412 822 461 842 q 326 763 363 801 q 266 672 289 725 q 233 556 243 619 l 546 556 l 546 510 l 229 510 q 228 491 228 500 q 228 472 228 482 q 228 438 228 454 q 231 407 229 422 l 546 407 l 546 361 l 238 361 q 279 233 250 288 q 347 142 308 178 q 431 87 386 106 q 519 68 475 68 q 583 78 551 68 q 644 104 615 88 l 688 33 q 518 -11 610 -11 q 389 15 450 -11 q 279 90 328 42 q 197 207 231 139 q 151 361 164 275 l 58 361 l 58 407 l 147 407 q 146 432 146 419 q 146 458 146 444 q 146 483 146 471 q 147 510 146 496 l 57 510 l 57 556 z "},"≤":{"ha":778,"x_min":67,"x_max":679,"o":"m 679 413 l 679 303 q 372 480 524 392 q 67 657 221 568 q 372 833 221 744 q 679 1010 524 922 l 679 901 q 466 780 572 840 q 254 657 360 719 q 466 534 360 594 q 679 413 572 474 m 625 103 l 121 103 l 121 182 l 625 182 l 625 103 z "},"≥":{"ha":778,"x_min":111,"x_max":725,"o":"m 113 413 q 324 534 218 474 q 536 657 431 594 q 324 780 431 719 q 113 901 218 840 l 113 1010 q 418 833 267 922 q 725 657 569 744 q 418 480 569 568 q 113 303 267 392 l 113 413 m 111 182 l 615 182 l 615 103 l 111 103 l 111 182 z "},"≠":{"ha":933,"x_min":111,"x_max":819,"o":"m 819 528 l 819 447 l 553 447 q 472 351 513 399 q 392 256 432 303 l 819 256 l 819 176 l 324 176 l 164 -12 l 118 29 l 243 176 l 111 176 l 111 256 l 310 256 q 391 351 350 303 q 472 447 432 399 l 111 447 l 111 528 l 540 528 l 721 742 l 767 699 l 621 528 l 819 528 z "},"≈":{"ha":629,"x_min":101,"x_max":531,"o":"m 303 276 q 265 308 281 300 q 229 315 249 315 q 206 313 218 315 q 181 302 193 310 q 159 281 168 294 q 147 246 150 267 l 101 249 q 115 297 103 276 q 144 333 126 318 q 182 354 161 347 q 224 361 203 361 q 281 349 256 361 q 328 313 306 336 q 366 281 350 289 q 401 274 382 274 q 424 276 411 274 q 450 287 438 279 q 472 308 463 294 q 483 343 481 322 l 529 340 q 516 292 528 313 q 487 256 504 271 q 449 235 469 242 q 407 228 428 228 q 350 241 375 228 q 303 276 325 254 m 304 485 q 266 516 282 508 q 231 524 250 524 q 207 521 219 524 q 182 510 194 518 q 160 489 169 503 q 149 454 151 475 l 103 457 q 116 506 104 485 q 145 541 128 526 q 183 563 163 556 q 225 569 204 569 q 282 557 257 569 q 329 521 307 544 q 367 490 351 497 q 403 482 383 482 q 426 485 413 482 q 451 495 439 488 q 473 517 464 503 q 485 551 482 531 l 531 549 q 517 500 529 521 q 488 465 506 479 q 450 443 471 450 q 408 436 429 436 q 351 449 376 436 q 304 485 326 463 z "},"∑":{"ha":656,"x_min":88,"x_max":604,"o":"m 194 -22 l 574 -22 l 604 -100 l 88 -100 l 246 475 l 88 1050 l 604 1050 l 574 971 l 194 971 l 333 475 l 194 -22 z "},"Ω":{"ha":943,"x_min":92,"x_max":850,"o":"m 92 79 l 299 79 q 222 130 258 100 q 157 201 185 160 q 113 299 129 243 q 97 429 97 356 q 122 588 97 514 q 195 717 147 663 q 313 803 243 772 q 474 835 383 835 q 645 798 574 835 q 763 702 717 761 q 829 568 808 643 q 847 414 850 493 q 828 291 844 344 q 787 197 813 238 q 728 128 761 157 q 660 79 696 100 l 849 79 l 849 0 l 554 0 l 554 79 q 636 127 597 97 q 703 199 675 157 q 749 293 732 240 q 767 411 767 346 q 748 549 767 486 q 692 657 729 611 q 601 729 656 703 q 475 756 547 756 q 347 729 401 756 q 255 657 292 703 q 199 550 218 611 q 179 418 179 489 q 197 297 179 351 q 247 200 215 242 q 318 128 278 158 q 401 79 358 97 l 401 0 l 92 0 l 92 79 z "},"√":{"ha":750,"x_min":44,"x_max":719,"o":"m 44 501 l 199 501 l 351 172 l 660 846 l 719 846 l 351 33 l 161 450 l 44 450 l 44 501 z "},"∆":{"ha":575,"x_min":63,"x_max":513,"o":"m 288 1021 l 513 375 l 63 375 l 288 1021 m 140 425 l 435 425 l 288 860 l 140 425 z "},"◊":{"ha":578,"x_min":64,"x_max":514,"o":"m 64 528 l 289 1021 l 514 528 l 289 33 l 64 528 m 125 528 l 289 172 l 454 528 l 289 882 l 125 528 z "},"∞":{"ha":694,"x_min":97,"x_max":597,"o":"m 472 313 q 403 325 436 313 q 349 361 369 338 q 293 325 326 338 q 224 313 260 313 q 167 323 192 313 q 128 349 143 333 q 105 383 113 364 q 97 422 97 403 q 105 461 97 442 q 128 497 113 481 q 168 522 144 513 q 224 532 192 532 q 293 519 260 532 q 349 482 326 506 q 403 519 369 506 q 474 532 438 532 q 528 522 506 532 q 567 496 551 511 q 590 460 582 481 q 597 422 597 440 q 590 383 597 403 q 568 349 583 364 q 529 323 553 333 q 472 313 506 313 m 322 425 q 290 465 319 449 q 225 481 260 481 q 169 463 186 481 q 151 422 151 444 q 168 383 151 401 q 225 364 185 364 q 289 379 258 364 q 322 419 319 394 l 322 422 l 322 425 m 375 419 q 408 379 378 394 q 472 364 439 364 q 529 383 513 364 q 546 422 546 401 q 528 463 546 444 q 472 481 510 481 q 406 464 436 481 q 375 422 375 447 l 375 419 z "}}}
